<svg width="259" height="74" viewBox="0 0 259 74" fill="none" xmlns="http://www.w3.org/2000/svg">
<g clip-path="url(#clip0_2001_3505)">
<path fill-rule="evenodd" clip-rule="evenodd" d="M247.63 38.38C230.07 41.5 212.81 41.4 198.44 38.17C191.79 36.65 189.42 37.19 189.94 40.2C190.41 42.96 194.54 44.45 206.48 46.3L217.03 47.93L206.37 50.2C161.97 59.9 112.42 57.23 71.5001 43.01C56.1101 37.62 44.6701 31.5 25.3801 18.37C9.76012 7.84999 7.14012 5.76999 5.81012 3.28999C3.90012 -0.390008 3.48012 -0.580008 1.64012 0.769992C-0.479883 2.35999 -0.539883 5.40999 1.45012 8.35999C4.13012 12.36 25.7101 28.32 37.3701 34.93C85.3801 62.34 148.47 70.2 210.06 56.35C217.83 54.57 225.55 52.87 227.09 52.42L230.01 51.73L227.16 53.57C225.58 54.55 219.68 58.2 214.08 61.74C208.41 65.23 203.41 68.85 202.93 69.84C201.61 72.33 204.27 74.65 207.22 73.44C209.7 72.44 242.15 52.5 248.32 48.16C250.51 46.62 253.49 44.76 255.04 43.98C256.51 43.15 257.95 41.74 258.2 40.92C258.96 37.82 255.34 37.01 247.63 38.39V38.38Z" fill="white"/>
</g>
<defs>
<clipPath id="clip0_2001_3505">
<rect width="258.3" height="73.76" fill="white"/>
</clipPath>
</defs>
</svg>
