<svg width="118" height="118" viewBox="0 0 118 118" fill="none" xmlns="http://www.w3.org/2000/svg">
<g opacity="0.5" clip-path="url(#clip0_2001_3467)">
<path fill-rule="evenodd" clip-rule="evenodd" d="M49.798 0.45814C41.3165 1.91233 32.7978 5.73757 25.154 11.5581C21.5313 14.3312 14.8928 21.1024 12.1786 24.7886C6.37784 32.6382 2.39027 41.9083 0.644078 51.554C-0.193646 56.1233 -0.227155 67.0842 0.610569 71.5182C1.74987 77.8798 4.23326 84.5458 7.31609 89.4532C15.7641 103.09 32.8313 113.615 52.1437 117.098C57.5423 118.045 67.4982 118.315 72.1932 117.571C93.3485 114.321 111.656 94.2892 117.088 68.4708C117.926 64.4426 117.993 63.4281 117.993 56.6268C118.026 48.439 117.691 45.8988 115.781 39.8754C112.732 30.2296 106.223 21.264 97.4068 14.5642C95.6644 13.2453 92.6448 10.908 90.7013 9.42002C86.3414 6.03442 80.6077 2.99076 78.6642 2.99076C77.8934 2.99076 77.2903 3.12604 77.2903 3.29513C77.2903 3.76859 79.2338 5.22278 81.7172 6.57928C82.89 7.22183 83.4597 7.66147 83.0575 7.56001C73.6006 4.88835 58.7822 5.19272 47.5157 8.23638C37.8242 10.8404 30.4485 15.3082 23.4749 22.6505C15.2279 31.3795 9.42715 42.1074 7.21184 52.7677C4.43059 66.4379 6.47464 81.2616 12.6105 91.7491C13.9174 93.9473 14.0179 94.2855 13.2137 93.3386C11.4377 91.2756 8.25062 86.2668 6.91026 83.4223C2.2823 73.5736 1.04246 61.1885 3.52213 49.6189C7.75543 29.899 22.9089 12.2683 41.5846 5.26411C48.7928 2.55864 54.9621 1.70942 63.7154 2.18664C66.869 2.38955 69.5497 2.42337 69.6837 2.28809C70.0859 1.98373 66.2286 0.732445 63.5479 0.292806C60.6326 -0.146834 52.9181 -0.0791971 49.8018 0.461898L49.798 0.45814ZM78.2993 8.9165C82.4581 9.86342 86.0101 11.0809 89.6998 12.877C92.6821 14.3312 93.5905 14.9738 95.7351 17.1757C101.871 23.4359 105.695 31.4208 107.504 41.7429C108.61 48.1384 108.644 59.5765 107.538 66.5807C105.728 77.9512 103.412 84.5834 98.7881 91.5875C91.647 102.349 79.0402 110.334 65.5286 112.668C51.615 115.069 33.8105 109.895 22.8791 100.215C17.447 95.4428 13.761 90.0281 11.4451 83.5989C7.45385 72.3298 7.21929 59.708 10.775 48.2361C15.0008 34.7688 26.1965 20.5914 37.2619 14.737C42.6606 11.8963 50.4719 9.52524 56.8759 8.78123C58.6183 8.57832 60.4986 8.34159 61.0347 8.27395C63.6819 7.90195 75.8866 8.37541 78.303 8.9165H78.2993ZM107.772 28.8806C111.194 33.8895 113.741 40.1835 115.081 46.8157C116.019 51.5202 115.919 61.771 114.913 66.9151C110.017 91.5499 93.6576 110.533 73.5373 114.866C72.1969 115.136 69.2109 115.441 66.8988 115.542L62.7064 115.678L66.7982 114.866C74.442 113.344 80.7454 110.736 87.3504 106.306C92.1459 103.056 97.7122 97.5771 100.728 93.0755C106.964 83.7379 110.252 71.8939 110.721 56.7996C111.09 44.9219 109.515 35.5504 105.758 27.3588C104.619 24.8563 104.552 24.6195 105.322 25.4988C105.792 26.0399 106.897 27.5955 107.769 28.8844L107.772 28.8806Z" fill="white"/>
</g>
<defs>
<clipPath id="clip0_2001_3467">
<rect width="118" height="118" fill="white"/>
</clipPath>
</defs>
</svg>
