<svg width="64" height="45" viewBox="0 0 64 45" fill="none" xmlns="http://www.w3.org/2000/svg">
<g clip-path="url(#clip0_2001_3444)">
<path fill-rule="evenodd" clip-rule="evenodd" d="M31.6977 1.10993C23.4347 1.95972 16.0601 4.77531 10.6579 9.12485C6.47706 12.4837 3.96332 16.2621 2.70028 21.0296C2.29778 22.5496 2.2839 22.7725 2.27002 25.3513C2.27002 27.8464 2.29778 28.1808 2.63089 29.4222C4.04814 34.6633 7.18645 37.869 12.7275 39.7094C14.9497 40.4617 16.8111 40.6845 20.5185 40.6845C24.7687 40.6845 27.3102 40.392 33.9199 39.1506C38.0036 38.3705 39.5026 38.1754 41.4195 38.1754C43.2115 38.1754 44.2247 38.3705 45.4754 38.9416C46.2666 39.3038 47.3785 40.2527 47.6838 40.8378C47.9614 41.395 47.9198 42.6364 47.5866 43.5419C47.198 44.6007 47.2535 44.9226 47.8781 44.9784C48.9607 45.0759 52.0173 42.5389 52.8223 40.8935C53.1832 40.1552 53.2248 39.9044 53.2248 38.7884C53.2248 37.7575 53.1693 37.3938 52.8917 36.8226C52.7113 36.4186 52.6002 36.0007 52.6419 35.8892C52.7529 35.5967 54.2951 34.6076 55.7941 33.8538C57.4889 33.004 58.6409 32.2084 59.7806 31.08C61.3366 29.5321 62.5025 27.6235 63.2104 25.4627C63.8211 23.5526 63.8766 22.9118 63.7378 19.0096C63.6129 15.9015 63.5573 15.2467 63.2936 14.4093C62.6135 12.2206 61.0297 9.87867 59.1683 8.27661C54.9736 4.66541 47.6684 1.94734 39.9329 1.10993C38.3768 0.928831 33.3355 0.942762 31.6977 1.10993ZM41.2098 2.26775C43.5431 2.61602 45.4322 3.03395 47.6823 3.67632C55.0569 5.79536 59.668 8.97316 61.7499 13.3784C62.5411 15.0238 62.7215 16.3194 62.7631 20.2649C62.8048 23.4149 62.7909 23.4984 62.4161 24.6981C61.6528 27.1654 60.8462 28.5879 59.3333 30.1342C58.1397 31.3462 57.0972 32.0861 55.0276 33.1588C52.9997 34.2175 51.9448 34.9992 51.695 35.5704C51.5007 36.044 51.5007 36.0161 52.0003 37.3411C52.2779 38.0516 52.3334 38.3999 52.2779 39.0283C52.1946 39.9478 51.8338 40.8409 51.2647 41.5096C50.8067 42.0529 48.8481 43.6565 48.751 43.559C48.7232 43.5311 48.7649 43.1271 48.8481 42.6674C49.209 40.8827 48.2374 39.3224 46.0707 38.1925C44.4036 37.3148 43.5153 37.1616 40.7934 37.2452C38.4601 37.3287 38.0992 37.3845 31.7655 38.5701C20.6002 40.6613 13.6142 40.132 8.71166 36.7854C3.75359 33.3987 1.90607 26.8465 4.00342 20.0173C4.87783 17.146 6.26732 14.7901 8.44795 12.4899C13.8101 6.78446 21.6566 3.27077 31.5311 2.14237C33.7118 1.89161 39.1556 1.96127 41.2113 2.26775H41.2098Z" fill="white"/>
<path fill-rule="evenodd" clip-rule="evenodd" d="M10.9354 4.44253C9.30997 4.90225 6.08838 7.42529 4.37966 9.5722C2.82361 11.5519 1.62997 13.9217 2.21291 13.9217C2.50438 13.9217 3.01792 13.3227 3.96327 11.9002C5.26949 9.89261 6.25493 8.86172 8.69927 6.88199C9.97619 5.86503 11.1158 4.90225 11.2546 4.74901C11.5461 4.4286 11.4212 4.30322 10.9354 4.44253Z" fill="white"/>
<path fill-rule="evenodd" clip-rule="evenodd" d="M2.86532 7.18845C1.35245 8.62333 -0.189716 10.9513 0.0184764 11.4807C0.226669 12.0519 0.629175 11.6479 2.21298 9.27809C4.14378 6.37891 4.03274 6.57394 3.85231 6.4625C3.76903 6.4207 3.32489 6.74111 2.86686 7.1869L2.86532 7.18845Z" fill="white"/>
<path fill-rule="evenodd" clip-rule="evenodd" d="M62.5982 32.8089C61.2642 34.0627 59.0435 35.4852 57.8345 35.8614C57.5291 35.9589 57.5707 36.335 57.9039 36.544C58.7227 37.0733 62.9452 34.3971 63.7225 32.8647C64.347 31.6109 63.889 31.597 62.5982 32.8089Z" fill="white"/>
<path d="M11.0098 26.9745L12.3416 26.6012L13.5914 26.0568L13.838 25.5177L13.6425 25.0223L13.285 24.6803C13.1907 24.6357 13.0929 24.5956 12.9917 24.56C12.8974 24.5154 12.8011 24.4872 12.7029 24.4754C12.6115 24.4546 12.5188 24.4542 12.4245 24.4742C12.3372 24.4852 12.2534 24.5239 12.1731 24.5905L11.9024 24.8423L10.8557 24.5024L10.3831 23.6306L10.4992 22.0558L10.9555 21.2605C10.9863 21.3131 11.0364 21.3269 11.1058 21.3021C11.1753 21.2772 11.2427 21.2365 11.3081 21.1798C11.3736 21.1232 11.4261 21.0602 11.4657 20.9907C11.5044 20.9132 11.5083 20.8482 11.4775 20.7957C11.6074 20.739 11.7572 20.6798 11.9268 20.6181C12.0954 20.5485 12.2377 20.4621 12.3537 20.3588L13.8491 19.8439L14.0962 19.7886L14.3419 20.0116L14.2159 20.5476L13.7904 20.7221L13.2264 20.8536L12.4128 21.4036L12.0739 21.9784C11.9619 22.1135 11.9149 22.2524 11.9329 22.3953C11.9578 22.5292 12.012 22.6716 12.0955 22.8223C12.2058 22.9939 12.2843 23.1049 12.331 23.1555C12.3846 23.1971 12.4497 23.2333 12.5261 23.264L13.2585 23.4136C13.3459 23.4671 13.4238 23.5097 13.4923 23.5414C13.5678 23.5642 13.6496 23.574 13.738 23.571C13.8263 23.5679 13.9503 23.5604 14.11 23.5483C14.2777 23.5352 14.4896 23.5207 14.7456 23.5045C14.834 23.6305 14.9323 23.7391 15.0406 23.8302C15.1478 23.9135 15.2551 24.029 15.3624 24.1767L15.668 24.6825L15.4607 25.9181L15.214 26.2636L14.737 27.1824L14.4394 27.2199C14.3362 27.2329 14.2097 27.2529 14.0599 27.2798C13.917 27.2978 13.7464 27.3193 13.5479 27.3443C13.3495 27.3693 13.1774 27.4111 13.0316 27.4698C12.8858 27.5285 12.7563 27.5891 12.6433 27.6517C12.5292 27.7064 12.4305 27.7551 12.3472 27.7979C12.2639 27.8406 12.186 27.8625 12.1136 27.8636L11.6685 27.7866L10.9691 27.9956L10.6546 27.5151L10.6886 27.2085L11.0098 26.9745ZM23.854 26.1068L23.4463 26.2308C23.353 26.2586 23.2538 26.2711 23.1486 26.2682C23.0435 26.2654 22.9353 26.2709 22.8242 26.2849C22.8004 26.2879 22.7646 26.2924 22.717 26.2984C22.6694 26.3044 22.6138 26.3114 22.5503 26.3194C22.4948 26.3264 22.4397 26.3374 22.3852 26.3523C22.3296 26.3593 22.282 26.3653 22.2423 26.3703L21.9579 26.2247C21.9617 26.0629 21.9393 25.9489 21.8906 25.8824C21.8498 25.815 21.8175 25.7505 21.7936 25.689C21.7718 25.6434 21.7305 25.572 21.6699 25.4748C21.6093 25.3776 21.5506 25.264 21.494 25.1341C21.491 25.1103 21.4423 25.0439 21.3479 24.9348C21.2535 24.8257 21.1765 24.7266 21.1169 24.6373L20.9816 24.7148C20.9419 24.7198 20.8997 24.7372 20.8551 24.7671C20.8105 24.7969 20.6929 24.8238 20.5024 24.8478C20.4726 24.8031 20.4289 24.7764 20.3714 24.7675C20.3128 24.7507 20.2488 24.7547 20.1794 24.7796C20.1169 24.7955 20.0524 24.8278 19.986 24.8765C19.9275 24.9242 19.8779 24.9788 19.8373 25.0404L19.3581 25.1733C19.3174 25.1059 19.2747 25.0548 19.23 25.0201C19.1922 24.9765 19.151 24.9373 19.1063 24.9026C19.0696 24.8669 19.0363 24.8268 19.0065 24.7822C18.9767 24.7375 18.9568 24.6755 18.9468 24.5962C19.1005 24.5365 19.1853 24.4734 19.2011 24.4069C19.2249 24.3394 19.2452 24.3086 19.2621 24.3146C19.3127 24.3324 19.3578 24.3388 19.3975 24.3338C19.342 24.3408 19.3251 24.3348 19.3469 24.316C19.3687 24.2971 19.4709 24.2439 19.6534 24.1564L20.509 23.9398L20.7041 24.0483C20.8351 24.064 20.9313 24.06 20.9928 24.0361C21.0543 24.0122 21.0945 23.979 21.1133 23.9363C21.1311 23.8857 21.1365 23.8326 21.1295 23.777C21.1305 23.7204 21.1324 23.6718 21.1354 23.6311C21.1402 23.5418 21.1114 23.4729 21.0488 23.4243C20.9932 23.3668 20.9187 23.3198 20.8254 23.2831C20.7986 23.1978 20.7543 23.1026 20.6927 22.9975C20.638 22.8834 20.5689 22.751 20.4855 22.6003C20.4109 22.4565 20.3393 22.3042 20.2707 22.1435C20.209 21.9739 20.1533 21.8196 20.1036 21.6808C20.0538 21.5419 20.015 21.4258 19.9872 21.3326C19.9593 21.2393 19.9404 21.1853 19.9304 21.1704C19.8103 21.113 19.7185 21.1205 19.6551 21.193C19.5907 21.2575 19.5416 21.3484 19.508 21.4655C19.4823 21.5816 19.4695 21.7042 19.4696 21.8332C19.4767 21.9532 19.4872 22.0366 19.5011 22.0832C19.4952 22.1001 19.4788 22.1304 19.4521 22.174C19.4243 22.2098 19.3931 22.25 19.3584 22.2947C19.3237 22.3394 19.293 22.3836 19.2663 22.4272C19.2385 22.463 19.2217 22.4893 19.2157 22.5062C19.191 22.5657 19.1906 22.6263 19.2144 22.6878C19.2383 22.7493 19.2334 22.8063 19.1997 22.8589C19.0769 23.1647 18.9189 23.4144 18.7256 23.6081C18.676 23.6627 18.6409 23.7356 18.6201 23.827C18.5994 23.9183 18.591 24.012 18.5951 24.1083C18.5991 24.2045 18.6191 24.2988 18.6549 24.391C18.6897 24.4753 18.7423 24.5413 18.8128 24.5888C18.7394 24.6465 18.6824 24.7061 18.6418 24.7676C18.6081 24.8202 18.5794 24.8803 18.5556 24.9478C18.5388 25.0063 18.523 25.0728 18.5082 25.1473C18.4924 25.2138 18.4736 25.2887 18.4519 25.3721C18.3619 25.7463 18.3179 25.9413 18.3199 25.9572L18.1967 26.3234L18.1214 26.9739C18.1443 27.092 18.1097 27.1689 18.0174 27.2047C17.9331 27.2395 17.7918 27.2694 17.5933 27.2944C17.4088 27.366 17.2451 27.4108 17.1023 27.4288C16.9584 27.4389 16.9013 27.3695 16.9309 27.2206C17.0753 26.7025 17.1801 26.3184 17.2454 26.0683C17.3176 25.8092 17.3457 25.6162 17.3297 25.4892C17.3247 25.4495 17.3366 25.4158 17.3653 25.388C17.401 25.3512 17.4298 25.3234 17.4516 25.3045C17.4575 25.2877 17.4748 25.2008 17.5034 25.044C17.54 24.8862 17.5785 24.712 17.619 24.5215C17.6586 24.323 17.6956 24.1369 17.7302 23.9632C17.7717 23.7806 17.8043 23.6555 17.828 23.588C17.8805 23.4282 17.9423 23.2471 18.0136 23.0446C18.0928 22.8411 18.1889 22.6436 18.3018 22.4519C18.3612 22.3477 18.4043 22.2092 18.4309 22.0366C18.4655 21.8629 18.4941 21.6738 18.5167 21.4694C18.5394 21.265 18.5655 21.0561 18.595 20.8427C18.6246 20.6293 18.672 20.4298 18.7374 20.2442C18.783 20.2223 18.8999 20.0302 19.0881 19.6679C19.102 19.65 19.1119 19.6326 19.1178 19.6158C19.1307 19.5899 19.1441 19.5681 19.1579 19.5502L20.6699 19.2631C20.7067 19.2987 20.7484 19.3419 20.7951 19.3924C20.8417 19.443 20.8929 19.497 20.9485 19.5545C21.1233 19.726 21.2336 19.8653 21.2793 19.9725C21.3251 20.0796 21.3544 20.1525 21.3673 20.1912C21.3545 20.217 21.4718 20.4764 21.7193 20.9693C21.783 21.0903 21.8406 21.2282 21.8924 21.3829C21.9441 21.5377 21.9869 21.6855 22.0208 21.8264C22.0537 21.9593 22.0766 22.0774 22.0896 22.1805C22.1016 22.2758 22.1041 22.3279 22.0972 22.3368C22.0823 22.3468 22.2218 22.43 22.5156 22.5865C22.5851 22.6261 22.6264 22.6653 22.6393 22.704C22.6602 22.7416 22.6647 22.7774 22.6528 22.8111C22.6488 22.8439 22.6365 22.8736 22.6157 22.9004C22.5948 22.9273 22.5849 22.9446 22.5859 22.9526L22.9614 23.3407C22.9614 23.3407 23.0961 23.6745 23.3657 24.342C23.5108 24.6624 23.6222 24.9387 23.6998 25.1708C23.7764 25.395 23.8227 25.5705 23.8387 25.6975C23.8407 25.7134 23.8462 25.7248 23.8551 25.7318C23.8541 25.7238 23.8646 25.7427 23.8864 25.7883L23.854 26.1068ZM29.2036 17.9827L29.741 18.1207C29.756 18.2397 29.7656 18.3474 29.7696 18.4436C29.7727 18.5319 29.7673 18.6173 29.7535 18.6997C29.7456 18.7652 29.7154 18.8778 29.663 19.0376C29.6175 19.1885 29.5894 19.3815 29.5787 19.6167C29.5778 19.6732 29.5575 19.7363 29.5178 19.8058C29.4782 19.8753 29.4307 19.9458 29.3752 20.0173C29.3276 20.0877 29.2766 20.1627 29.2221 20.2421C29.1666 20.3136 29.123 20.3836 29.0913 20.4521C28.9804 20.7886 28.882 21.0631 28.7958 21.2755C28.7097 21.4879 28.6508 21.6606 28.6192 21.7936L28.5702 21.9812L28.5527 22.3221L28.6007 22.7031C28.6057 22.7428 28.6112 22.7864 28.6172 22.834C28.6232 22.8817 28.6336 22.9328 28.6486 22.9873C28.6626 23.0984 28.6667 23.2269 28.6608 23.3728C28.6619 23.5097 28.6556 23.6516 28.6419 23.7985C28.6351 23.9364 28.6272 24.0664 28.6184 24.1885C28.6165 24.3016 28.6201 24.3939 28.6291 24.4653L28.8604 25.1498L28.7834 25.4982L27.5231 25.9592L27.4397 25.9697C27.408 25.9737 27.3688 25.9827 27.3222 25.9966C27.2825 26.0016 27.2349 26.0076 27.1793 26.0146L27.0364 26.0326L26.612 25.7353C26.6536 25.6817 26.6629 25.5636 26.6399 25.3811C26.6299 25.3017 26.6269 25.2456 26.6308 25.2129C26.6427 25.1791 26.6278 25.1246 26.586 25.0492C26.5721 25.0026 26.5641 24.9068 26.562 24.7619C26.5598 24.6171 26.5631 24.4191 26.5718 24.1681C26.5717 24.0391 26.5637 23.9111 26.5477 23.7841C26.5386 23.6481 26.5276 23.5286 26.5146 23.4254C26.5006 23.3143 26.4817 23.228 26.4578 23.1665C26.4408 23.096 26.4205 23.0623 26.3967 23.0653C26.3788 23.0514 26.3604 23.0336 26.3415 23.0118C26.3306 22.989 26.3157 22.9666 26.2968 22.9448C26.268 22.9081 26.2298 22.8606 26.1821 22.802C26.1344 22.7435 26.0813 22.6736 26.0226 22.5923C25.9163 22.4525 25.8319 22.3583 25.7693 22.3098C25.7147 22.2602 25.6621 22.2265 25.6115 22.2087C25.5678 22.1819 25.5167 22.1602 25.4581 22.1433C25.3986 22.1186 25.3152 22.0646 25.2079 21.9813C25.0776 21.651 24.8863 21.3486 24.634 21.0739C24.3897 20.7983 24.127 20.5371 23.8459 20.2903C23.6563 20.1287 23.5132 19.9854 23.4169 19.8605C23.3284 19.7346 23.2232 19.6349 23.1011 19.5616L22.986 19.0319C23.0514 18.9752 23.1268 18.9335 23.2121 18.9066C23.2508 18.8937 23.3083 18.8703 23.3847 18.8365C23.468 18.7938 23.5513 18.751 23.6346 18.7083C23.7249 18.6566 23.8032 18.6064 23.8696 18.5577C23.9361 18.509 23.9747 18.4639 23.9856 18.4222L24.3919 18.3831C24.4713 18.4376 24.5379 18.4857 24.5915 18.5273C24.6531 18.5679 24.7072 18.6135 24.7539 18.6641C24.9098 18.8138 25.0875 18.9123 25.287 18.9598C25.303 19.0868 25.3413 19.1989 25.4019 19.2961C25.4695 19.3843 25.5276 19.4617 25.5763 19.5281C25.6408 19.5925 25.7068 19.6366 25.7743 19.6604C25.8488 19.6752 25.9188 19.751 25.9844 19.8879C25.9864 19.9038 25.9825 19.9365 25.9726 19.9862C25.9627 20.0358 25.9454 20.0904 25.9207 20.1499C25.9028 20.2006 25.8811 20.2517 25.8553 20.3033C25.8365 20.346 25.8152 20.3688 25.7914 20.3718C25.7676 20.3748 25.7686 20.3828 25.7944 20.3956C25.8281 20.4075 25.8743 20.4219 25.9328 20.4387C25.9993 20.4545 26.0708 20.4777 26.1472 20.5084C26.2306 20.5302 26.311 20.5604 26.3884 20.599C26.3904 20.6149 26.385 20.6357 26.3721 20.6615C26.3662 20.6784 26.3692 20.7022 26.3811 20.733C26.401 20.7627 26.4338 20.7989 26.4795 20.8415C26.5331 20.8832 26.6244 20.9362 26.7535 21.0005C26.8756 21.0739 26.9441 21.1378 26.959 21.1924C26.973 21.239 26.971 21.2876 26.9532 21.3382C26.9344 21.3809 26.924 21.4266 26.9221 21.4752C26.9202 21.5238 26.9594 21.5793 27.0398 21.6418C27.0935 21.6834 27.1644 21.7027 27.2527 21.6996C27.34 21.6886 27.4224 21.6702 27.4998 21.6443C27.5841 21.6095 27.6555 21.5683 27.714 21.5206C27.7804 21.4719 27.8146 21.4233 27.8165 21.3746C27.8353 21.2675 27.8511 21.1687 27.8639 21.0784C27.8837 20.9792 27.9054 20.8958 27.9292 20.8283C28.0213 20.728 28.0793 20.6441 28.1031 20.5766C28.1348 20.5081 28.1635 20.4158 28.1891 20.2997C28.2238 20.1905 28.2475 20.0907 28.2603 20.0004C28.2811 19.9091 28.2989 19.8585 28.3138 19.8486C28.3493 19.6828 28.3998 19.5071 28.4651 19.3215C28.5373 19.127 28.5888 18.927 28.6193 18.7215C28.642 18.5816 28.6622 18.4541 28.68 18.339C28.7057 18.2228 28.722 18.1281 28.7289 18.0546L29.2036 17.9827ZM37.9026 21.193L37.6713 20.5085L37.765 20.3879L38.3841 20.3099C38.4396 20.3029 38.5031 20.2949 38.5746 20.2859C38.6539 20.2759 38.7457 20.2684 38.8499 20.2633L39.9228 20.0435C40.034 20.0295 40.1367 20.0126 40.2309 19.9926C40.3252 19.9727 40.4095 19.9379 40.4838 19.8882C40.4967 19.8624 40.518 19.8396 40.5478 19.8197C40.5765 19.7919 40.6042 19.7239 40.6309 19.6157L40.6261 19.193C40.6836 19.2019 40.6731 19.1185 40.5946 18.943C40.5519 18.8597 40.5235 18.7947 40.5096 18.7481C40.5026 18.6925 40.5269 18.6612 40.5824 18.6542C40.5893 18.5808 40.6011 18.4825 40.6179 18.3595C40.6336 18.2285 40.6484 18.0896 40.6621 17.9427C40.6828 17.7869 40.6996 17.6316 40.7123 17.4768C40.7241 17.314 40.7334 17.1637 40.7402 17.0257L41.4528 16.6336C41.5391 16.6147 41.6328 16.5908 41.734 16.5619C41.8352 16.5331 41.9404 16.5037 42.0495 16.4738C42.1507 16.445 42.2365 16.4221 42.3069 16.4051C42.3843 16.3793 42.4537 16.3544 42.5152 16.3305L42.7937 16.5252L42.8702 17.1324C42.7721 17.2496 42.6908 17.3727 42.6264 17.5018C42.5611 17.6229 42.5284 17.748 42.5286 17.877L42.5228 18.1196C42.5239 18.2565 42.5181 18.4024 42.5054 18.5572C42.5005 18.711 42.4818 18.8182 42.4491 18.8787L42.4254 18.9785L42.5104 19.1734C42.5233 19.2121 42.5367 19.2225 42.5506 19.2046C42.5576 19.1957 42.5695 19.1942 42.5863 19.2001C42.5695 19.2587 42.5497 19.3257 42.527 19.4011C42.5042 19.4765 42.479 19.5644 42.4513 19.6646C42.4137 19.75 42.3979 19.8165 42.4039 19.8641C42.4089 19.9038 42.4382 19.9122 42.4917 19.8893C42.4937 19.9052 42.5008 20.0253 42.5129 20.2495C42.5329 20.4728 42.5516 20.8131 42.5689 21.2705C42.581 21.4948 42.5861 21.6634 42.5842 21.7766C42.5893 21.8808 42.5909 21.9572 42.5889 22.0058C42.5939 22.0455 42.593 22.0698 42.586 22.0787C42.587 22.0866 42.589 22.1025 42.592 22.1263C42.5514 22.2524 42.5218 22.369 42.503 22.4762C42.4922 22.5824 42.4893 22.6553 42.4943 22.695C42.4894 22.7198 42.4968 22.7471 42.5167 22.7768C42.5445 22.8056 42.5684 22.8348 42.5882 22.8646C42.626 22.9082 42.6583 22.9404 42.6851 22.9613L42.7822 23.3482L42.5235 23.6952L41.0206 24.1505L41.0087 24.152L40.6647 23.9172C40.6696 23.8924 40.6731 23.8557 40.675 23.807C40.6769 23.7584 40.6779 23.7019 40.6778 23.6374C40.6797 23.5242 40.6781 23.4478 40.6731 23.4081C40.6761 23.3675 40.6681 23.304 40.6491 23.2177C40.6352 23.171 40.6311 23.0425 40.6369 22.8322C40.6416 22.6139 40.6349 22.3365 40.6168 22.0002C40.5834 21.3512 40.535 21.0308 40.4715 21.0388C40.4318 21.0438 40.4144 20.9694 40.4192 20.8156C40.3716 20.8216 40.3165 20.8325 40.254 20.8485C40.1905 20.8565 40.1513 20.8654 40.1365 20.8754C39.9867 20.9668 39.8424 21.0374 39.7035 21.0871C39.5716 21.1279 39.4659 21.1533 39.3866 21.1633C39.331 21.1703 39.2293 21.163 39.0814 21.1413C38.9325 21.1116 38.7316 21.1168 38.4786 21.1567L38.0292 21.2375L37.9026 21.193ZM37.276 24.3802L36.7893 24.4536L36.3012 24.5151L36.1955 24.5405L35.5837 24.3878C35.5816 24.3074 35.5785 24.2191 35.5745 24.1228C35.5704 24.0266 35.5644 23.9145 35.5563 23.7865C35.5422 23.5463 35.5266 23.3588 35.5096 23.2239C35.4996 23.08 35.4916 22.9843 35.4856 22.9366L35.4391 22.5676C35.4211 22.4247 35.3843 22.3567 35.3288 22.3637L35.3281 21.6865C35.3914 21.4205 35.4109 21.0955 35.3868 20.7115C35.3757 20.4952 35.3705 20.2621 35.3712 20.012C35.3789 19.753 35.4016 19.5486 35.4391 19.3987L35.4103 18.7855C35.4669 18.7864 35.4569 18.7071 35.3803 18.5474C35.3097 18.3708 35.326 18.2761 35.4292 18.2631C35.433 18.1658 35.4345 18.081 35.4334 18.0085C35.4393 17.9272 35.4382 17.8547 35.4302 17.7912C35.4103 17.697 35.4022 17.5367 35.406 17.3105L35.5517 17.2196C35.6599 17.2463 35.8108 17.2595 36.0043 17.2593C36.2057 17.2582 36.3912 17.259 36.5609 17.2618C36.6661 17.2647 36.7589 17.2651 36.8393 17.263C36.9186 17.253 36.9866 17.2485 37.0432 17.2494L37.2383 17.4547L37.2566 17.8878C37.2589 18.2906 37.2839 18.4891 37.3316 18.4831C37.2514 18.6786 37.1985 18.8667 37.1728 19.0473C37.1551 19.227 37.1354 19.3907 37.1137 19.5386C37.097 19.6616 37.1101 19.8938 37.1531 20.2351C37.1641 20.3224 37.184 20.3844 37.2128 20.4211C37.2406 20.4499 37.2753 20.4697 37.317 20.4805C37.3667 20.4904 37.4108 20.4889 37.4495 20.476C37.4079 20.5296 37.3727 20.6025 37.344 20.6949C37.3143 20.7792 37.2871 20.8834 37.2624 21.0075C37.2368 21.1236 37.216 21.2472 37.2003 21.3782C37.1915 21.5002 37.1866 21.6218 37.1857 21.7428C37.1838 21.856 37.1963 21.9552 37.2232 22.0405C37.2411 22.1189 37.27 22.2201 37.3098 22.3441C37.3496 22.4681 37.3909 22.604 37.4337 22.7518C37.4765 22.8996 37.5164 23.0558 37.5532 23.2205C37.5901 23.3852 37.618 23.5429 37.637 23.6937C37.5508 23.7772 37.542 23.8992 37.6106 24.0599L37.6255 24.0822L37.276 24.3802ZM47.5067 15.847L47.6236 16.7757C47.5753 17.1608 47.5374 17.5001 47.5099 17.7939C47.4894 18.0787 47.4782 18.3422 47.4764 18.5843C47.4747 18.8264 47.4833 19.0551 47.5024 19.2704C47.5294 19.4847 47.5658 19.7099 47.6116 19.946C47.6635 20.2298 47.6881 20.4888 47.6853 20.7229C47.6825 20.9571 47.6773 21.1715 47.6695 21.3659C47.6697 21.5594 47.6768 21.744 47.6909 21.9196C47.7039 22.0873 47.7492 22.255 47.8268 22.4226L47.9238 22.7127L47.7649 23.0835L46.2204 23.5925L45.7573 23.3726C45.7612 23.3399 45.7994 23.2907 45.8717 23.2251C45.951 23.1507 45.9867 23.0817 45.9787 23.0182C45.9667 22.9229 45.9582 22.8554 45.9532 22.8158C45.9482 22.7761 45.9323 22.7136 45.9054 22.6283C45.8845 22.5906 45.8884 22.4611 45.917 22.2398C45.9525 22.0095 45.9423 21.7044 45.8864 21.3244C45.8624 21.1339 45.8449 20.995 45.8339 20.9077C45.8298 20.8115 45.8263 20.7514 45.8233 20.7276C45.8272 20.6949 45.8257 20.683 45.8188 20.6919C45.8198 20.6998 45.8124 20.7048 45.7965 20.7068C45.7964 20.6423 45.7993 20.5694 45.8052 20.488C45.8101 20.3987 45.815 20.3094 45.8198 20.2201C45.8297 20.1705 45.8356 20.1213 45.8376 20.0727C45.8395 20.0241 45.8409 19.9715 45.8419 19.9149C45.8627 19.8881 45.8527 19.841 45.812 19.7736C45.7792 19.7051 45.7444 19.6531 45.7077 19.6174C45.6788 19.5807 45.6649 19.5663 45.6659 19.5742C45.6659 19.5742 45.6739 19.5732 45.6898 19.5713C45.7056 19.5693 45.7274 19.5504 45.7552 19.5146C45.7819 19.4709 45.8042 19.3915 45.8219 19.2764L45.6726 18.7631C45.6885 18.7611 45.7009 18.7635 45.7099 18.7705C45.7267 18.7764 45.7342 18.7714 45.7322 18.7556C45.7292 18.7317 45.7197 18.6886 45.7038 18.6261C45.6878 18.5636 45.6595 18.4664 45.6187 18.3344C45.5539 18.0765 45.5305 17.9222 45.5483 17.8716C45.5651 17.813 45.5978 17.7847 45.6464 17.7867C45.6821 17.7499 45.7099 17.7142 45.7297 17.6794C45.7574 17.6437 45.7723 17.6015 45.7742 17.5529C45.7762 17.5043 45.7642 17.4413 45.7383 17.3639C45.7194 17.2776 45.6816 17.1694 45.6249 17.0395C45.5702 16.9255 45.5592 16.8059 45.5918 16.6808C45.6245 16.5558 45.6372 16.4332 45.6302 16.3132L45.8487 16.0316C45.9598 16.0177 46.1067 15.9992 46.2892 15.9762C46.4708 15.9452 46.6286 15.9173 46.7625 15.8924C47.0452 15.8326 47.2501 15.7947 47.3771 15.7787L47.5067 15.847ZM50.8597 20.6618C50.8527 20.6063 50.8472 20.5626 50.8432 20.5309C50.8382 20.4912 50.8237 20.4406 50.7999 20.3791C50.7352 20.1856 50.6842 19.7808 50.6469 19.1647C50.6067 18.5892 50.5334 18.167 50.427 17.8982C50.4427 17.7672 50.4516 17.6774 50.4535 17.6288C50.4554 17.5802 50.451 17.5767 50.4401 17.6184C50.4114 17.7107 50.4252 17.5961 50.4815 17.2745C50.4176 16.8955 50.3756 16.5299 50.3554 16.1777C50.3352 15.8254 50.3319 15.4791 50.3455 15.1388C50.3493 14.977 50.3502 14.8237 50.3481 14.6789C50.3539 14.533 50.3523 14.3921 50.3432 14.2561L50.6155 14.113L52.0622 14.0759L52.3274 14.357L52.4665 15.0773C52.3535 15.2044 52.2806 15.3305 52.248 15.4555C52.2154 15.5806 52.1991 15.6754 52.1992 15.7399C52.1992 15.8044 52.1958 15.9056 52.189 16.0435C52.1812 16.1735 52.1535 16.2738 52.1059 16.3443L52.0956 16.4544C52.196 16.6111 52.2635 16.6993 52.2983 16.7192C52.341 16.738 52.3673 16.7548 52.3772 16.7697C52.3911 16.7518 52.3891 16.7682 52.3713 16.8188C52.3525 16.8615 52.3183 16.9424 52.2688 17.0615C52.1768 17.2908 52.1689 17.3886 52.2453 17.3548C52.288 17.3736 52.2537 17.8053 52.1423 18.6498C52.1117 18.8552 52.0881 19.0195 52.0713 19.1425C52.0546 19.2656 52.0388 19.3643 52.024 19.4388C52.0171 19.5122 52.0117 19.5653 52.0077 19.598C52.0038 19.6308 52.0033 19.6591 52.0063 19.6829C51.8704 19.7564 51.7539 19.8235 51.6567 19.8841C51.5585 19.9368 51.5125 19.987 51.5184 20.0346C51.5214 20.0584 51.5527 20.0827 51.6123 20.1074C51.6718 20.1322 51.7354 20.1564 51.8029 20.1802C51.8446 20.1911 51.8867 20.2059 51.9294 20.2247C51.979 20.2346 52.0287 20.2445 52.0783 20.2544L51.897 20.5433L50.8597 20.6618ZM52.4218 21.5415C52.3931 21.5693 52.4 21.5926 52.4427 21.6115C52.4854 21.6303 52.4909 21.6417 52.4591 21.6457L52.5283 22.3868L52.4736 22.817C52.4439 22.8369 52.4176 22.8523 52.3948 22.8633C52.365 22.8831 52.3313 22.9035 52.2936 22.9244C52.2639 22.9443 52.2262 22.9651 52.1805 22.987C51.9951 23.1152 51.8865 23.1813 51.8548 23.1853L51.3887 23.0383C51.0781 22.9404 50.9093 22.881 50.8825 22.8602C50.9171 22.6865 50.9258 22.4677 50.9087 22.2038C50.9007 22.1403 50.8937 22.0847 50.8877 22.0371C50.8897 21.9885 50.8886 21.9483 50.8846 21.9165C50.8796 21.8768 50.8796 21.8446 50.8845 21.8198C50.9153 21.8078 50.9892 21.7864 51.1063 21.7556C51.2233 21.7247 51.2957 21.6914 51.3235 21.6557C51.3255 21.6715 51.3478 21.6566 51.3904 21.6109L51.4558 21.5543C51.4717 21.5523 51.504 21.5523 51.5526 21.5542C51.6092 21.5552 51.694 21.5566 51.8071 21.5585C51.9202 21.5603 52.0016 21.5662 52.0512 21.5761C52.1078 21.577 52.14 21.577 52.148 21.576C52.1956 21.57 52.2274 21.566 52.2432 21.564C52.266 21.5531 52.2814 21.5471 52.2894 21.5461C52.3052 21.5441 52.3171 21.5426 52.3251 21.5416C52.3409 21.5396 52.3732 21.5396 52.4218 21.5415Z" fill="white"/>
</g>
<defs>
<clipPath id="clip0_2001_3444">
<rect width="64" height="44" fill="white" transform="translate(0 0.979919)"/>
</clipPath>
</defs>
</svg>
