<svg width="243" height="99" viewBox="0 0 243 99" fill="none" xmlns="http://www.w3.org/2000/svg">
<g opacity="0.1" clip-path="url(#clip0_4006_898)">
<path d="M143.262 75.5179C143.151 75.4839 143.05 75.4163 142.975 75.3196C142.823 75.1228 142.814 74.8492 142.954 74.6421L154.835 57.1357C151.21 53.4176 148.655 49.3975 147.238 45.1795C145.652 40.4601 145.526 35.5733 146.864 30.6568C148.606 24.257 151.088 17.7383 157.404 13.4078C161.009 10.9351 165.568 9.46558 170.953 9.03823C177.121 8.54784 184.589 9.41013 193.149 11.5989C213.568 16.8184 228.266 22.337 233.633 32.3046C235.217 35.2469 235.979 38.4817 235.963 42.1942C235.947 45.8982 235.155 49.9972 233.543 54.7267C232.17 58.7532 229.99 62.2611 227.063 65.1508C224.33 67.8512 220.94 70.0181 216.991 71.5941C210.136 74.3297 201.722 75.239 192.659 74.2263C184.17 73.2763 175.42 70.6112 167.991 66.7159L143.623 75.5103C143.504 75.5534 143.376 75.5543 143.261 75.5192L143.262 75.5179ZM192.862 12.7159C155.534 3.1733 150.427 21.9394 147.974 30.9584C144.852 42.4312 150.607 51.267 155.986 56.6595C156.18 56.8551 156.209 57.1633 156.053 57.3924L144.901 73.823L167.843 65.5427C167.996 65.4884 168.163 65.4998 168.307 65.5749C183.895 73.8325 203.291 75.8197 216.569 70.5205C224.538 67.3401 229.883 61.9005 232.456 54.3524C235.562 45.2416 235.613 38.4099 232.62 32.8514C227.452 23.2549 212.988 17.8618 192.862 12.7159Z" fill="white"/>
<path d="M155.077 46.7111C155.036 46.6985 154.994 46.6859 154.954 46.6707C154.014 46.3486 152.397 45.3542 152.099 42.3178C152.058 41.8953 152.366 41.518 152.787 41.475C153.208 41.4333 153.584 41.7408 153.625 42.1633C153.783 43.7808 154.432 44.8642 155.452 45.2137C156.592 45.6042 158.054 45.0625 159.258 43.7939C161.458 41.4729 162.844 36.565 160.13 29.7536C157.149 22.2675 158.253 18.7889 159.703 17.1897C160.937 15.8293 162.868 15.3686 164.869 15.9579C164.89 15.9642 164.912 15.971 164.934 15.9777C166.994 16.6062 168.513 18.1607 168.81 19.9539C168.88 20.3726 168.596 20.7698 168.179 20.8398C167.76 20.9106 167.366 20.6272 167.297 20.2089C167.097 19.0058 165.97 17.9013 164.484 17.448C164.469 17.4432 164.452 17.4381 164.436 17.4334C163.012 17.0144 161.667 17.3092 160.838 18.2227C159.892 19.2664 158.726 22.0777 161.556 29.1799C162.917 32.5973 163.424 35.804 163.062 38.7131C162.757 41.1627 161.801 43.3426 160.369 44.8525C158.786 46.5218 156.77 47.225 155.078 46.7085L155.077 46.7111Z" fill="white"/>
<path d="M164.768 49.5485C163.716 49.2278 163.005 48.0572 162.799 46.2861C162.479 43.5382 163.854 38.8254 165.628 36.5871C166.933 34.9407 168.715 34.4059 170.062 35.2569C171.679 36.2779 172.627 39.4021 169.981 44.8437C167.9 49.1222 166.136 49.7956 165.021 49.6074C164.935 49.5926 164.851 49.5725 164.769 49.5476L164.768 49.5485ZM168.984 36.4406C168.348 36.2465 167.533 36.6532 166.827 37.5433C165.315 39.4514 164.051 43.7721 164.322 46.1037C164.472 47.3897 164.913 48.0263 165.277 48.0908C165.764 48.1726 167.012 47.441 168.602 44.1717C170.79 39.6718 170.183 37.1539 169.242 36.559C169.161 36.5071 169.074 36.4678 168.984 36.4406Z" fill="white"/>
<path d="M178.703 52.5727L178.701 52.5723C178.297 52.4488 178.07 52.018 178.194 51.6117C179.565 47.1574 180.778 42.9106 182.063 38.4144L182.542 36.7373C182.366 34.5851 181.934 32.1123 181.478 29.4973C180.981 26.6511 180.468 23.7093 180.214 20.8112C180.178 20.3886 180.489 20.0138 180.911 19.9767C181.333 19.9393 181.705 20.2516 181.742 20.6742C181.99 23.5068 182.498 26.4157 182.989 29.2302C183.462 31.9384 183.908 34.4953 184.081 36.7545C184.089 36.8461 184.079 36.9382 184.054 37.0256L183.537 38.8358C182.25 43.3399 181.036 47.5935 179.661 52.0634C179.537 52.4697 179.108 52.6979 178.704 52.5744L178.703 52.5727Z" fill="white"/>
<path d="M183.267 37.3106C183.14 37.2719 183.021 37.1987 182.925 37.0927C182.641 36.7789 182.663 36.292 182.977 36.006C186.28 32.9899 192.389 25.448 193.662 23.2399C193.875 22.872 194.343 22.7453 194.71 22.9578C195.076 23.1703 195.201 23.6399 194.989 24.0078C193.674 26.2883 187.393 34.0502 184.007 37.1431C183.799 37.3324 183.516 37.3863 183.266 37.3102L183.267 37.3106Z" fill="white"/>
<path d="M184.906 54.9662C184.249 54.7657 183.724 54.3403 183.38 53.723C182.06 51.3637 183.55 46.5302 184.786 43.0991C184.867 42.8768 184.943 42.6657 184.961 42.6017C185.078 42.1935 185.504 41.9572 185.91 42.0755C186.317 42.1925 186.551 42.6188 186.432 43.028C186.401 43.1348 186.343 43.296 186.228 43.6197C184.045 49.6763 184.202 52.047 184.717 52.9688C184.892 53.2834 185.127 53.4544 185.48 53.5265C187.351 53.9073 189.047 49.1665 190.287 45.7053C190.457 45.2321 190.622 44.7689 190.786 44.3238C190.93 43.9307 191.359 43.7252 191.756 43.8605C192.15 43.9963 192.363 44.4232 192.236 44.8214C192.019 45.5001 191.44 48.1768 190.928 50.5392C190.45 52.7458 189.999 54.8303 189.797 55.5318C189.679 55.94 189.254 56.1763 188.846 56.0576L188.835 56.0541C188.435 55.9322 188.206 55.5104 188.322 55.1061C188.429 54.7371 188.626 53.8834 188.857 52.8331C187.852 54.3865 186.664 55.338 185.171 55.0342C185.08 55.0164 184.991 54.9935 184.904 54.9671L184.906 54.9662Z" fill="white"/>
<path d="M191.672 57.036C191.267 56.9125 191.039 56.4826 191.163 56.0763C191.838 53.8631 193.279 48.6344 193.895 46.4018C194.051 45.835 194.153 45.4645 194.177 45.3853C194.295 44.977 194.72 44.7408 195.128 44.8595L195.14 44.863C195.539 44.9849 195.768 45.4067 195.652 45.811C195.628 45.8876 195.528 46.2529 195.375 46.8093C194.758 49.0471 193.312 54.2901 192.632 56.5232C192.508 56.9295 192.079 57.159 191.675 57.0355L191.672 57.036Z" fill="white"/>
<path d="M195.197 58.1188C195.186 58.1152 195.174 58.1117 195.161 58.1077C194.762 57.9648 194.556 57.5244 194.699 57.1253C197.249 50.0001 196.537 47.785 196.086 47.5709C195.873 47.4719 195.302 47.7576 194.894 48.4388C194.675 48.8034 194.204 48.9208 193.841 48.7022C193.478 48.4836 193.362 48.0112 193.581 47.6466C194.385 46.3084 195.716 45.69 196.745 46.18C198.109 46.8276 199.113 49.343 196.143 57.6424C196.003 58.0311 195.586 58.2388 195.197 58.1201L195.197 58.1188Z" fill="white"/>
<path d="M212.756 61.4369C212.641 61.4018 212.533 61.3391 212.442 61.2488C210.782 59.6058 211.447 53.319 211.767 51.8599C211.858 51.445 212.266 51.1822 212.681 51.2719C213.096 51.363 213.355 51.7727 213.265 52.188C212.767 54.4595 212.706 59.3458 213.521 60.1535C213.822 60.451 213.824 60.9384 213.527 61.2408C213.32 61.4515 213.021 61.5178 212.756 61.4369Z" fill="white"/>
<path d="M206.541 68.3362C206.401 68.2936 206.274 68.2108 206.174 68.0894C205.905 67.7619 205.952 67.2769 206.279 67.0064C211.1 63.0215 213.801 58.183 216.413 53.5045L216.666 53.051C216.874 52.6802 217.341 52.5475 217.71 52.7552C218.08 52.9629 218.211 53.4315 218.003 53.8023L217.751 54.2545C215.068 59.0576 212.296 64.0237 207.253 68.1931C207.047 68.3643 206.779 68.4088 206.541 68.3362Z" fill="white"/>
<path d="M198.26 59.1526C198.249 59.149 198.237 59.1455 198.224 59.1415C197.825 58.9986 197.619 58.5582 197.762 58.1591C200.312 51.034 199.6 48.8189 199.149 48.6048C198.938 48.5048 198.365 48.7914 197.957 49.4726C197.738 49.8373 197.267 49.9546 196.904 49.736C196.541 49.5174 196.425 49.045 196.644 48.6804C197.448 47.3422 198.778 46.7251 199.808 47.2138C201.172 47.8614 202.176 50.3768 199.206 58.6762C199.066 59.0649 198.649 59.2726 198.26 59.1539L198.26 59.1526Z" fill="white"/>
<path d="M200.858 59.931C200.454 59.8076 200.226 59.3776 200.35 58.9713C201.025 56.7582 202.466 51.5308 203.082 49.2981C203.238 48.7313 203.34 48.3595 203.364 48.2804C203.482 47.8721 203.907 47.6358 204.315 47.7545C204.722 47.8689 204.956 48.2978 204.837 48.707C204.814 48.7836 204.715 49.1493 204.56 49.7066C203.942 51.9444 202.497 57.1874 201.817 59.4204C201.693 59.8267 201.264 60.0562 200.859 59.9327L200.858 59.931Z" fill="white"/>
<path d="M204.384 61.0138C204.373 61.0103 204.361 61.0067 204.348 61.0028C203.949 60.8598 203.743 60.4195 203.886 60.0204C206.436 52.8952 205.723 50.6801 205.273 50.466C205.061 50.3687 204.489 50.6526 204.081 51.3339C203.862 51.6985 203.391 51.8158 203.028 51.5973C202.665 51.3787 202.549 50.9063 202.767 50.5416C203.572 49.2035 204.902 48.5851 205.932 49.0751C207.296 49.7226 208.3 52.2381 205.33 60.5375C205.19 60.9262 204.773 61.1339 204.384 61.0151L204.384 61.0138Z" fill="white"/>
<path d="M207.448 62.048C207.437 62.0445 207.425 62.0409 207.412 62.037C207.013 61.894 206.807 61.4537 206.95 61.0546C209.5 53.9294 208.788 51.7143 208.337 51.5002C208.121 51.4017 207.553 51.6868 207.145 52.3681C206.926 52.7327 206.455 52.8501 206.092 52.6315C205.729 52.4129 205.613 51.9405 205.832 51.5759C206.636 50.2377 207.966 49.6206 208.996 50.1093C210.36 50.7568 211.364 53.2723 208.394 61.5717C208.254 61.9604 207.837 62.1681 207.448 62.0493L207.448 62.048Z" fill="white"/>
<path d="M220.642 60.8972C220.642 60.8972 220.629 60.8932 220.622 60.8912C220.221 60.7574 220.004 60.3224 220.137 59.9189C221.553 55.6642 223.403 48.5157 225.034 42.2085C226.041 38.3214 226.99 34.6495 227.707 32.1696C227.825 31.7613 228.25 31.525 228.658 31.6437L228.669 31.6473C229.069 31.7692 229.298 32.1909 229.181 32.5966C228.471 35.0545 227.523 38.7169 226.52 42.5936C224.882 48.9245 223.025 56.1007 221.593 60.4043C221.461 60.801 221.038 61.0196 220.641 60.8984L220.642 60.8972Z" fill="white"/>
<path d="M219.301 66.6021C219.244 66.5848 219.194 66.5651 219.151 66.5465C218.168 66.1059 217.891 64.5486 218.508 62.9249C218.805 62.1389 219.449 61.5947 220.185 61.5029C220.8 61.4264 221.373 61.678 221.715 62.1739C221.997 62.5805 222.347 63.5002 221.529 65.0769C220.671 66.732 219.767 66.7442 219.301 66.6021ZM219.94 63.4698C219.681 64.1527 219.691 64.7047 219.76 64.9912C219.864 64.8769 220.007 64.6821 220.169 64.3696C220.589 63.5585 220.517 63.145 220.454 63.0535C220.446 63.0426 220.434 63.0232 220.37 63.0305C220.242 63.0455 220.054 63.1711 219.94 63.4698Z" fill="white"/>
<path d="M181.731 66.8171C179.139 66.0261 176.609 64.9806 174.162 63.6848C173.881 63.5365 173.774 63.1875 173.923 62.9054C174.072 62.6229 174.419 62.5162 174.701 62.6644C179.464 65.1861 184.546 66.7366 189.806 67.2731C190.122 67.3054 190.352 67.5885 190.319 67.9048C190.286 68.2211 190.003 68.4527 189.688 68.4203C186.983 68.1443 184.326 67.6073 181.732 66.8158L181.731 66.8171Z" fill="white"/>
<path d="M221.481 27.2306C221.422 27.2129 221.366 27.1856 221.314 27.1471C219.322 25.7151 216.136 24.0833 212.344 22.5545C212.049 22.4362 211.907 22.0993 212.025 21.8047C212.144 21.5089 212.48 21.366 212.774 21.4839C216.649 23.0465 219.921 24.7245 221.984 26.2095C222.242 26.3944 222.301 26.7559 222.115 27.0141C221.967 27.2202 221.709 27.3004 221.479 27.2302L221.481 27.2306ZM199.974 18.8743C199.704 18.7918 199.53 18.5201 199.575 18.2318C199.626 17.9167 199.922 17.7033 200.234 17.7533C201.568 17.9673 203.077 18.3012 204.715 18.7487C205.022 18.8336 205.202 19.1498 205.119 19.4563C205.035 19.7641 204.718 19.9455 204.412 19.8623C202.812 19.4266 201.346 19.0998 200.052 18.8924C200.025 18.8884 200 18.8822 199.974 18.8743Z" fill="white"/>
<path d="M152.319 69.5934C152.165 69.5465 152.034 69.4367 151.962 69.2773C151.833 68.9867 151.963 68.6447 152.253 68.5146C155.706 66.9588 159.265 65.0963 162.833 62.9795C163.107 62.8177 163.459 62.9082 163.621 63.1816C163.782 63.4549 163.691 63.8088 163.417 63.9724C159.812 66.1103 156.214 67.9936 152.723 69.5663C152.591 69.6252 152.449 69.6316 152.321 69.5925L152.319 69.5934Z" fill="white"/>
</g>
<g opacity="0.1" clip-path="url(#clip1_4006_898)">
<path d="M56.0001 36.5305C56.1626 32.5749 58.0363 30.9869 59.2498 30.3719C61.5448 29.2054 64.7507 29.7587 67.0469 31.7135C69.0033 33.3803 69.7428 35.6505 69.0231 37.788C68.88 38.2151 68.4146 38.4451 67.9837 38.3028C67.5529 38.1606 67.3207 37.6989 67.4657 37.2737C68.1875 35.1306 66.6648 33.5371 65.976 32.9494C64.2026 31.4376 61.689 30.9645 59.9979 31.8224C58.218 32.7245 57.3981 35.0456 57.6853 38.3548C57.9254 41.1161 58.9364 42.702 60.5313 42.8211C62.3998 42.9611 64.7893 41.0916 65.2665 39.1185C65.7111 37.2783 64.2959 36.2659 63.0326 35.7408C61.606 35.1476 61.0935 35.8163 60.8292 36.3707C60.2327 37.628 60.6017 39.3695 60.953 39.6138C61.0294 39.5863 61.3294 39.4338 61.8026 38.685C62.0424 38.304 62.5495 38.1887 62.9339 38.4268C63.3182 38.6648 63.4347 39.1678 63.195 39.5488C61.9093 41.5902 60.7553 41.3684 60.1808 41.0536C58.7372 40.2623 58.5199 37.3679 59.3619 35.6398C60.17 33.9811 61.7778 33.459 63.6641 34.2435C67.3306 35.766 67.1226 38.4303 66.8621 39.5041C66.1871 42.2948 63.1109 44.6515 60.4084 44.4485C59.245 44.3624 56.4937 43.6075 56.0487 38.4984C55.9871 37.7869 55.9714 37.1348 55.996 36.5361L56.0001 36.5305Z" fill="white"/>
<path d="M1.13954 14.233C1.2289 12.0581 2.11809 10.261 3.7266 9.01466C4.3792 8.50883 4.94349 7.94188 5.48771 7.39327C6.51769 6.35496 7.58187 5.28356 9.24735 4.62582C10.846 3.996 15.8366 5.7377 16.4002 5.93904C18.5444 6.7035 22.2469 8.24282 22.9657 9.98144C23.2082 10.5681 23.4555 11.1339 23.6958 11.6803C25.4762 15.7483 27.0128 19.2622 22.5819 23.1306C18.8925 26.3531 17.6429 27.187 15.2395 27.3699C10.8923 27.6971 6.78835 25.0664 5.22408 23.9196C3.5904 22.722 1.18653 18.544 1.13477 14.7252C1.13197 14.5584 1.13479 14.3956 1.14147 14.2331L1.13954 14.233ZM9.85166 6.14131C8.50827 6.67242 7.6497 7.53575 6.65602 8.53723C6.07551 9.12267 5.47484 9.72836 4.73648 10.2997C3.40744 11.3276 2.74757 12.8103 2.774 14.7063C2.81868 18.0861 5.01584 21.7459 6.19747 22.6126C7.30222 23.4225 11.2076 26.0431 15.111 25.7494C16.9813 25.6078 17.8767 25.0698 21.494 21.9114C25.0291 18.8243 23.9587 16.3796 22.1871 12.3311C21.9452 11.777 21.6944 11.2014 21.4448 10.601C21.1829 9.96758 19.3366 8.72487 15.9035 7.49551C12.7656 6.37025 10.3335 5.98292 9.84966 6.14315L9.85166 6.14131Z" fill="white"/>
<path d="M8.32914 20.6711C8.33566 20.5124 8.41155 20.3584 8.55097 20.2568C10.2659 19.0071 11.537 18.3064 12.3772 17.8427C13.3677 17.2952 13.596 17.1475 13.586 16.921C13.5306 15.8706 12.031 12.3966 9.79953 7.50336C9.67551 7.23003 9.79689 6.90929 10.0725 6.78458C10.3481 6.66178 10.6716 6.78237 10.7975 7.05579C13.6405 13.2904 14.6208 15.7641 14.68 16.8644C14.7289 17.7899 14.0449 18.1661 12.9102 18.79C12.0937 19.2412 10.8602 19.9206 9.20098 21.1304C8.95795 21.3082 8.61426 21.2557 8.43675 21.0147C8.35982 20.9119 8.3262 20.7898 8.33107 20.6712L8.32914 20.6711Z" fill="white"/>
<path d="M13.3952 17.4247C13.3966 17.3903 13.4019 17.356 13.4091 17.3218C13.4771 17.0295 13.7725 16.8482 14.0671 16.9177C16.6756 17.5269 20.8869 18.6273 22.0837 19.1708C22.3588 19.2952 22.4788 19.6182 22.3536 19.8908C22.2284 20.1635 21.9028 20.2823 21.6278 20.158C20.5106 19.6503 16.3068 18.556 13.8151 17.9746C13.5548 17.9141 13.3828 17.679 13.3933 17.4246L13.3952 17.4247Z" fill="white"/>
<path d="M31.9761 8.59469C31.9966 8.09736 32.2783 7.5418 32.8488 6.86973C34.5401 4.8795 38.9488 1.78618 40.3099 1.62368C42.5878 1.29575 49.3225 4.69941 50.5276 5.60538C51.638 6.37334 52.5158 8.80251 52.94 10.188C53.199 11.0321 54.0121 13.861 53.6019 14.8634C53.2605 15.6944 51.9714 16.7853 49.3233 18.9737C48.8333 19.379 48.3113 19.8097 47.771 20.2627C44.9459 22.624 37.1538 18.3856 37.0864 18.333C35.189 16.8314 32.158 10.6101 31.9837 8.7866C31.9786 8.72316 31.9754 8.6598 31.978 8.59668L31.9761 8.59469ZM40.4868 3.24232C40.1034 3.31087 38.5373 4.18345 36.6881 5.59622C34.5757 7.21084 33.6915 8.32029 33.6197 8.65839C33.7878 10.1157 36.5705 15.7961 38.0807 17.0365C39.2157 17.7192 45.1967 20.2814 46.7113 19.0159C47.2555 18.5611 47.7776 18.1285 48.2715 17.7215C49.9396 16.3435 51.8256 14.7847 52.071 14.2679C52.2672 13.2547 50.6674 7.65934 49.5861 6.93665C49.571 6.92645 49.556 6.91625 49.541 6.90414C48.2281 5.8941 41.9649 3.00798 40.5433 3.23123C40.5239 3.23426 40.5063 3.23737 40.487 3.23849L40.4868 3.24232ZM38.1087 17.0587C38.1087 17.0587 38.1068 17.0586 38.1049 17.0566C38.1049 17.0566 38.1069 17.0567 38.1087 17.0587Z" fill="white"/>
<path d="M38.4302 16.476C38.4376 16.2962 38.5356 16.1221 38.7056 16.0275C41.0992 14.6716 43.1695 13.2373 43.4209 12.7628C43.9886 11.6883 42.7859 9.03117 40.3692 4.50779C40.2274 4.2433 40.3298 3.91412 40.5964 3.77371C40.863 3.6333 41.195 3.73508 41.3368 3.99957C44.1554 9.27521 45.2023 11.7286 44.3913 13.2664C43.8402 14.3129 40.3167 16.3658 39.2504 16.9696C38.9874 17.1178 38.653 17.0274 38.5032 16.7683C38.451 16.6761 38.4281 16.5756 38.4321 16.478L38.4302 16.476Z" fill="white"/>
<path d="M44.0445 12.0201C44.0463 11.9761 44.054 11.9305 44.0674 11.885C44.1546 11.5974 44.4588 11.4355 44.7489 11.5222C45.1764 11.6509 46.1916 12.0068 47.3667 12.421C48.599 12.8549 49.995 13.3472 50.8798 13.6326C51.1677 13.7249 51.3252 14.0303 51.2323 14.3158C51.1395 14.6013 50.8316 14.7573 50.5437 14.6649C49.6417 14.375 48.238 13.8804 47.0001 13.4445C45.8859 13.0519 44.8346 12.6811 44.4338 12.5611C44.1895 12.4879 44.0346 12.2611 44.0445 12.0201Z" fill="white"/>
</g>
<defs>
<clipPath id="clip0_4006_898">
<rect width="90" height="76" fill="white" transform="translate(156.178) rotate(16.9666)"/>
</clipPath>
<clipPath id="clip1_4006_898">
<rect width="42" height="69" fill="white" transform="translate(70.6661 2.83264) rotate(92.3529)"/>
</clipPath>
</defs>
</svg>
