<svg width="524" height="5" viewBox="0 0 524 5" fill="none" xmlns="http://www.w3.org/2000/svg">
<g opacity="0.1" clip-path="url(#clip0_2001_3474)">
<path fill-rule="evenodd" clip-rule="evenodd" d="M166.659 4.26441C165.327 3.72776 165.448 3.45944 167.022 2.87807C168.717 2.25198 172.591 2.11782 193.911 2.0731C217.652 2.02838 218.983 2.0731 220.194 2.92279C222.736 4.71161 219.104 4.97993 192.579 4.97993C171.985 4.97993 167.869 4.89049 166.659 4.26441Z" fill="white"/>
<path fill-rule="evenodd" clip-rule="evenodd" d="M248.791 4.53273C246.37 3.99608 245.886 2.96751 247.823 2.52031C249.76 2.0731 293.126 1.49174 296.031 1.89422C299.058 2.34142 300.753 3.50416 299.179 4.08552C297.484 4.66689 251.212 5.1141 248.791 4.53273Z" fill="white"/>
<path fill-rule="evenodd" clip-rule="evenodd" d="M490.695 4.71161C482.947 4.30913 481.616 4.08552 481.616 3.19111C481.616 1.93894 484.521 1.80478 504.509 1.93894C519.413 2.0731 522.077 2.16254 523.287 2.83335C525.708 4.26441 522.44 4.71161 508.02 4.80105C500.514 4.84577 492.753 4.80105 490.695 4.71161Z" fill="white"/>
<path fill-rule="evenodd" clip-rule="evenodd" d="M0.470899 3.45944C-2.55559 1.40229 8.94508 0.686767 38.7527 1.08925C55.4723 1.31285 58.3778 1.44702 59.7094 2.11782C62.978 3.77248 59.8305 3.99608 30.0364 4.17497C3.13421 4.30913 1.6815 4.26441 0.470899 3.45944Z" fill="white"/>
<path fill-rule="evenodd" clip-rule="evenodd" d="M329.35 4.0408C324.628 3.54888 323.418 2.92279 325.355 2.0731C326.565 1.53646 331.287 1.4023 350.912 1.4023C372.837 1.4023 375.016 1.49174 376.105 2.20726C378.769 4.04081 376.348 4.30913 354.18 4.39857C342.666 4.44329 331.529 4.30913 329.35 4.0408Z" fill="white"/>
<path fill-rule="evenodd" clip-rule="evenodd" d="M406.868 4.0408C402.268 3.54888 401.42 2.0731 405.415 1.6259C408.684 1.22341 451.687 1.8495 453.745 2.2967C454.471 2.47558 454.956 3.01223 454.713 3.45944C454.35 4.2644 452.777 4.30912 432.546 4.39857C420.548 4.44329 408.926 4.2644 406.868 4.0408Z" fill="white"/>
<path fill-rule="evenodd" clip-rule="evenodd" d="M89.5034 3.77248C87.2032 3.45944 87.6875 2.38615 90.3508 1.8495C91.8035 1.53646 101.744 1.44702 117.239 1.49174L141.828 1.6259V3.86192L116.392 3.95136C102.457 3.99608 90.2297 3.90664 89.5034 3.77248Z" fill="white"/>
</g>
<defs>
<clipPath id="clip0_2001_3474">
<rect width="524" height="4" fill="white" transform="matrix(1 0 0 -1 0 4.97993)"/>
</clipPath>
</defs>
</svg>
