<svg width="188" height="13" viewBox="0 0 188 13" fill="none" xmlns="http://www.w3.org/2000/svg">
<g clip-path="url(#clip0_4001_708)">
<path fill-rule="evenodd" clip-rule="evenodd" d="M0.854237 0.825906C0.854237 1.0944 0.988455 1.63138 1.18978 1.96699C1.42467 2.43684 1.35756 2.60465 0.854237 2.7389C-0.0852932 2.97382 -0.0181838 4.38339 1.02201 5.5916C1.99509 6.76624 6.1596 8.98501 9.31373 9.99185C14.9211 11.8377 17.337 12.1733 26.0351 12.3076C30.5687 12.3747 37.7532 12.274 41.9848 12.0726C66.8972 10.898 99.9672 10.0254 121.893 10.0254C136.665 9.99185 153.822 9.55555 155.399 9.18638C156.775 8.81721 156.205 8.44803 153.688 8.0453C151.373 7.70969 150.463 7.64256 136.161 6.80353C123.806 6.09875 91.4406 5.66245 51.6522 5.66245C14.3171 5.66245 14.7869 5.66245 8.87752 3.85014C7.33401 3.38029 5.08212 2.37345 3.87415 1.6351C1.52906 0.188243 0.854237 -0.0131244 0.854237 0.825906Z" fill="white"/>
<path fill-rule="evenodd" clip-rule="evenodd" d="M166.48 7.30694C164.936 7.70967 164.265 8.31378 164.735 8.88432C165.306 9.5891 187.198 9.48842 187.198 8.81719C187.198 7.97816 185.856 7.7768 178.806 7.54187C175.01 7.44118 170.95 7.27338 169.742 7.17269C168.534 7.10557 167.058 7.17269 166.484 7.30694H166.48Z" fill="white"/>
</g>
<defs>
<clipPath id="clip0_4001_708">
<rect width="187" height="12" fill="white" transform="translate(0.194336 0.329941)"/>
</clipPath>
</defs>
</svg>
