<svg width="267" height="131" viewBox="0 0 267 131" fill="none" xmlns="http://www.w3.org/2000/svg">
<g opacity="0.1" clip-path="url(#clip0_4006_897)">
<path d="M89.0539 90.8292C84.67 94.0345 78.7373 97.1122 71.6919 99.8225C63.3159 103.045 55.7581 104.827 49.8353 104.977C43.2265 105.144 38.9525 103.216 37.4757 99.4001C36.9537 98.054 36.6503 96.5784 36.5717 95.0142C36.5612 94.7914 36.6784 94.5829 36.8747 94.478C37.0711 94.3732 37.3106 94.3915 37.4888 94.5253C41.271 97.3367 50.5601 95.8947 65.8841 90.1176C66.1576 90.0152 66.4651 90.1335 66.5998 90.3934C66.6761 90.5412 66.7553 90.6885 66.8343 90.8377C67.2615 91.6373 67.7336 92.5235 67.9565 93.6828C75.2434 88.8244 85.1516 81.4353 94.8121 74.1449C94.9409 74.044 95.1051 74.0097 95.2644 74.0397C95.4236 74.0696 95.5629 74.1662 95.6485 74.3039C96.1104 75.0479 96.4951 75.8146 96.7919 76.5801C98.2698 80.395 96.3964 84.6885 91.3755 88.9972C90.6592 89.6118 89.8842 90.2239 89.0537 90.8311L89.0539 90.8292ZM37.8189 96.0672C37.9511 97.0977 38.1958 98.0761 38.5488 98.9872C40.1724 103.18 45.5638 103.932 49.8013 103.825C55.5947 103.678 63.0195 101.922 71.275 98.7461C79.5336 95.5694 86.2247 91.8935 90.6241 88.1183C93.8442 85.3552 97.3411 81.1817 95.718 76.9919C95.5183 76.4783 95.2754 75.9629 94.9926 75.4547C85.1321 82.893 75.0669 90.3834 67.8177 95.1605C67.6462 95.2741 67.4253 95.2858 67.2418 95.1929C67.0575 95.0989 66.9364 94.9149 66.9255 94.7075C66.8475 93.3044 66.349 92.3684 65.8203 91.3772C65.8203 91.3772 65.8195 91.3761 65.8187 91.375C51.3406 96.7927 42.3607 98.3048 37.82 96.0664L37.8189 96.0672Z" fill="white"/>
<path d="M66.4301 91.1232C66.3887 91.1535 66.3432 91.1783 66.2937 91.1977C51.6733 96.7093 42.6873 98.2864 38.0169 96.1614C36.4909 95.467 35.4327 94.3633 34.8745 92.8805C34.6851 92.3764 34.5652 91.855 34.5192 91.3318C34.4995 91.1056 34.6138 90.8908 34.811 90.7803C35.0082 90.6698 35.2529 90.686 35.4346 90.8223C35.9045 91.1718 36.4026 91.4637 36.9147 91.6899C41.9579 93.9124 51.4393 91.7141 57.5134 84.8993C57.7249 84.6639 58.0888 84.6417 58.3266 84.8548C58.5645 85.0678 58.5863 85.4321 58.3745 85.6693C55.4612 88.9367 51.518 91.453 47.2723 92.7538C43.2249 93.9938 39.2823 93.9913 36.4548 92.7445C36.2895 92.6719 36.1243 92.5925 35.9626 92.5088C36.4187 93.6961 37.2449 94.549 38.49 95.1157C42.8042 97.0788 51.7651 95.4444 65.8855 90.1217C66.1826 90.0104 66.5154 90.1608 66.6288 90.4581C66.7228 90.7056 66.6355 90.978 66.4315 91.1272L66.4301 91.1232Z" fill="white"/>
<path d="M80.6973 86.1087C75.8692 89.6388 71.4881 92.7428 67.8168 95.1613C67.6453 95.2749 67.4244 95.2866 67.2409 95.1937C67.0566 95.0997 66.9355 94.9157 66.9246 94.7083C66.7575 91.7014 64.7447 89.6655 62.1962 87.0892C61.9 86.7894 61.5986 86.4849 61.2954 86.1733C61.1531 86.0267 61.0972 85.8152 61.1507 85.618C61.2041 85.4208 61.3565 85.2673 61.5545 85.2151C62.6424 84.9209 63.3053 84.0157 63.9459 83.1419C64.7312 82.0697 65.6198 80.8548 67.2411 81.4206C70.607 82.5951 73.1599 81.1323 74.8308 77.0726C74.9513 76.7792 75.006 76.6434 75.185 76.5377C75.388 76.4145 75.6473 76.4302 75.8354 76.5752C77.5624 77.9134 79.0201 76.3749 80.8913 74.0529C81.8854 72.8196 82.6692 71.8462 83.5605 71.7985C86.1215 71.6638 87.7987 71.2181 88.5442 70.4762C89.0976 69.9252 89.0619 69.2717 89.0233 68.5798C88.9824 67.8275 88.9124 66.5682 90.5408 66.4727C91.2235 66.4329 91.7659 66.2516 92.1564 65.9358C92.3901 65.7447 92.7333 65.7697 92.9399 65.9905L93.258 66.3316C95.381 68.6099 97.2132 70.5776 99.7715 70.5307C100.021 70.5264 100.246 70.6832 100.329 70.9192C100.411 71.1552 100.333 71.4174 100.133 71.5683C93.3092 76.7344 86.6618 81.746 80.6976 86.1068L80.6973 86.1087ZM67.9622 93.6789C75.8342 88.4296 86.7606 80.2388 98.2855 71.5196C96.0047 70.9633 94.2597 69.0966 92.4349 67.1369C91.9283 67.4198 91.3178 67.5835 90.6116 67.6255C90.1423 67.6524 90.1246 67.6535 90.172 68.5222C90.2156 69.308 90.275 70.3833 89.3558 71.2976C88.3909 72.2571 86.5159 72.7987 83.6245 72.9511C83.2443 72.9717 82.4021 74.0165 81.7861 74.7798C80.348 76.5648 78.2302 79.1932 75.7384 77.881C73.1759 83.6945 69.0966 83.2873 66.8651 82.5098C66.1169 82.2493 65.7249 82.6638 64.8734 83.8264C64.3319 84.5655 63.6864 85.4463 62.7146 85.9818C62.8136 86.0827 62.912 86.1807 63.0101 86.2806C65.3707 88.6662 67.4397 90.7585 67.96 93.6804L67.9622 93.6789Z" fill="white"/>
<path d="M88.9803 71.6158C87.9392 72.377 86.179 72.8144 83.6247 72.9492C83.2437 72.9687 82.4023 74.0146 81.7863 74.7779C80.3482 76.5629 78.2304 79.1913 75.7386 77.8791C73.1761 83.6926 69.0968 83.2854 66.8653 82.5079C66.1182 82.2466 65.7251 82.6619 64.8755 83.8248C63.6121 85.551 61.7132 88.1489 56.2532 84.9189C56.0636 85.0306 55.7659 85.2281 55.494 85.4084C53.2728 86.876 50.9764 88.2522 49.4415 87.5777C49.2436 87.4903 49.02 87.3493 48.8172 87.1224C47.867 88.4615 46.0768 89.0756 44.5969 89.1886C43.3926 89.2801 41.9801 89.0731 41.6301 88.2187C41.5844 88.1057 41.5074 87.918 41.4312 87.745C40.9223 88.2836 39.9341 89.1609 37.7673 89.4683C35.1348 89.842 34.2211 89.1054 33.554 88.5686C33.0077 88.1285 32.7066 87.8861 31.1503 88.5613C28.74 89.6053 27.0574 89.7572 26.151 89.0101C25.5751 88.5362 25.3726 87.7439 25.5805 86.7776C26.0944 84.3882 28.9809 81.1069 32.0747 80.2899C32.2838 80.2346 32.5071 80.3018 32.652 80.4633C34.6941 82.7386 38.4695 83.4218 44.1951 82.553C49.0535 81.8153 55.145 79.9993 63.3636 76.8367C70.7758 73.9845 78.131 70.9535 82.9504 67.4297C85.7704 65.3679 87.7225 63.1381 88.3105 60.676C88.3674 60.4376 88.5698 60.261 88.8146 60.2385C90.5857 60.0724 92.2204 60.8033 93.1864 62.1932C94.0015 63.3653 94.1786 64.7735 93.6498 65.8667C93.1434 66.9149 92.0652 67.5384 90.6118 67.6236C90.1425 67.6505 90.1237 67.6524 90.1722 68.5204C90.2158 69.3061 90.2751 70.3814 89.356 71.2957C89.2438 71.408 89.1179 71.5152 88.9803 71.6158ZM82.6284 72.1754C82.9351 71.9511 83.2409 71.815 83.5604 71.7985C86.1214 71.6638 87.7975 71.2189 88.5441 70.4762C89.0975 69.9252 89.0618 69.2716 89.0232 68.5798C88.9823 67.8275 88.9123 66.5682 90.5407 66.4727C91.5754 66.4127 92.2913 66.0289 92.6124 65.3617C92.9546 64.6523 92.8087 63.6672 92.2416 62.8503C91.9175 62.3841 91.0118 61.3607 89.3181 61.3692C88.4056 64.4573 85.5884 67.3683 80.7266 70.2568C75.93 73.1061 69.4691 75.7271 63.7791 77.9158C55.4803 81.1084 49.3119 82.9453 44.3703 83.6951C38.4491 84.5942 34.4113 83.8773 32.049 81.5031C29.5053 82.3418 27.1226 85.0866 26.7055 87.0267C26.6257 87.3962 26.5916 87.8855 26.8782 88.1218C27.0711 88.2802 27.9154 88.7042 30.6881 87.503C32.7258 86.6204 33.459 87.0163 34.2728 87.6712C34.8311 88.121 35.4628 88.6298 37.6008 88.3266C39.5981 88.0439 40.3345 87.2347 40.7305 86.8005C40.9635 86.5443 41.2289 86.2544 41.6477 86.3301C42.1316 86.417 42.3304 86.8974 42.6876 87.7684C42.8563 87.958 43.9484 88.2261 45.3821 87.9079C46.1226 87.7433 47.8859 87.191 48.2577 85.6036C48.3208 85.3371 48.5623 85.1521 48.8371 85.1614C49.1108 85.1716 49.3407 85.3737 49.3864 85.6447C49.5037 86.348 49.7998 86.478 49.8979 86.5207C50.9879 86.9989 53.6003 85.2739 54.8556 84.4436C55.9252 83.7372 56.212 83.5477 56.6074 83.7885C61.3495 86.6871 62.6684 84.8833 63.9453 83.1389C64.7295 82.0675 65.6192 80.8518 67.2397 81.4165C70.6055 82.591 73.1585 81.1282 74.8294 77.0685C74.9498 76.7752 75.0043 76.6412 75.1836 76.5336C75.3866 76.4104 75.6459 76.4261 75.8337 76.573C77.5607 77.9112 79.0194 76.3719 80.8896 74.0507C81.5272 73.2598 82.0787 72.5756 82.6277 72.1743L82.6284 72.1754Z" fill="white"/>
<path d="M83.6501 68.3431C83.5224 68.4365 83.3947 68.5298 83.2624 68.6215C78.3556 72.0897 70.9985 75.1389 63.7791 77.9158C54.4678 81.4988 47.7213 83.4084 42.5463 83.9285C39.4199 84.2428 36.9364 84.0415 34.9538 83.3159C32.7694 82.5157 31.2427 81.0598 30.4165 78.9907C30.2677 78.62 30.1493 78.2473 30.0628 77.8816C30.0246 77.7194 30.0575 77.549 30.1536 77.4148C30.2497 77.2806 30.3998 77.1927 30.5641 77.1769C33.5124 76.8869 36.4767 76.6693 39.3433 76.4576C48.964 75.7488 58.0601 75.0804 65.1278 71.8693L64.9695 70.9976C64.6279 69.1125 64.2394 66.964 63.8087 64.5654C63.7663 64.3288 63.8733 64.0925 64.0801 63.9699C64.322 63.8267 64.5622 63.5299 64.6443 63.3925C64.6592 63.3648 64.6757 63.3393 64.6952 63.3132C64.8637 63.0925 65.1629 63.0251 65.4081 63.1453C72.8977 66.1093 83.8184 61.8963 88.2349 56.28C88.3664 56.1115 88.5811 56.0319 88.7923 56.071C89.0023 56.1109 89.1746 56.2641 89.2373 56.469C90.5615 60.7378 88.7336 64.6263 83.649 68.3439L83.6501 68.3431ZM31.3712 78.2556C31.4068 78.3592 31.4453 78.4622 31.4868 78.5648C32.8596 82.0023 36.4385 83.3811 42.4284 82.7799C47.4979 82.2714 54.151 80.3829 63.3634 76.8386C70.5129 74.0875 77.7918 71.0736 82.5964 67.6785C87.1244 64.4755 88.9938 61.3356 88.3967 57.8709C83.3649 63.3651 73.0023 67.1297 65.3621 64.3582C65.2593 64.4788 65.1395 64.6034 65.0067 64.7173C65.4117 66.9732 65.7795 69.004 66.1044 70.7953L66.3413 72.1042C66.3875 72.3598 66.2574 72.6147 66.0222 72.7261C58.7061 76.1861 49.3441 76.8756 39.4333 77.6047C36.7972 77.7994 34.079 77.9985 31.3712 78.2556Z" fill="white"/>
<path d="M66.1159 72.671C66.0876 72.6918 66.0565 72.7111 66.0222 72.7261C58.706 76.1861 49.3452 76.8748 39.4333 77.6047C34.7787 77.9478 29.9665 78.3019 25.2281 78.9587C24.9756 78.9936 24.7296 78.8588 24.6236 78.6268C24.5176 78.3947 24.5751 78.1206 24.7663 77.9538C26.8542 76.1228 27.2378 73.7293 27.5519 70.5489C27.5781 70.2824 27.7853 70.0687 28.0511 70.0359C29.1537 69.8993 30.4997 69.4131 32.0501 68.5924C32.2336 68.4953 32.4551 68.5049 32.6297 68.6178C32.8044 68.7307 32.9058 68.929 32.8946 69.1358C32.8947 69.1475 32.8888 69.1921 32.8775 69.266C32.5482 71.3169 32.7941 72.4594 33.1835 72.6828C33.3243 72.7632 33.9115 72.9227 35.5425 71.5686C36.6139 70.6793 37.3277 69.9925 37.8484 69.4907C38.636 68.7331 38.9954 68.3863 39.5105 68.5228C40.0127 68.6552 40.1547 69.1267 40.4162 69.9836C40.5192 70.3238 40.6482 70.7476 40.8254 71.2557C41.4433 73.0262 41.9484 73.1398 42.0437 73.1441C42.2735 73.1561 42.9408 72.8936 44.1592 70.2195C44.5971 69.2584 45.3144 68.6178 46.1296 68.4592C46.845 68.3198 47.5851 68.5693 48.211 69.1597C48.9465 69.8517 49.6099 70.1338 50.1849 69.9994C50.8375 69.8452 51.8392 69.0506 52.8976 66.1368C52.9697 65.9377 53.1456 65.7957 53.3547 65.7656C53.5638 65.7355 53.7734 65.8229 53.9006 65.9923C54.6794 67.0345 55.8184 68.2053 56.8324 67.8627C58.0292 67.4587 58.8677 65.0505 58.8487 63.6227C58.8457 63.3894 58.9827 63.1782 59.1973 63.0869C59.4119 62.9956 59.6587 63.0423 59.8266 63.2055C61.3468 64.6915 62.7958 64.9644 64.022 64.0073C64.182 63.8803 64.393 63.8505 64.5834 63.9232C64.7739 63.9959 64.9104 64.1619 64.9458 64.3615C65.3768 66.7582 65.7653 68.9067 66.1069 70.7918L66.3437 72.1007C66.3838 72.3204 66.293 72.5399 66.1184 72.6675L66.1159 72.671ZM26.6578 77.6088C30.9118 77.0775 35.1909 76.7615 39.3443 76.4568C48.9651 75.748 58.0604 75.0785 65.1289 71.8685L64.9705 70.9968C64.669 69.3314 64.3311 67.4605 63.959 65.3941C63.0413 65.8179 61.6121 66.0301 59.8918 64.7745C59.6105 66.3597 58.7661 68.4322 57.2043 68.9601C56.0608 69.3454 54.8582 68.8435 53.6188 67.4668C52.7016 69.6414 51.6612 70.8411 50.4556 71.1254C49.4812 71.355 48.4612 70.977 47.4269 70.0022C47.0677 69.6643 46.7077 69.527 46.3552 69.5947C45.9156 69.6806 45.4868 70.095 45.2093 70.7051C44.3818 72.5213 43.3531 74.367 41.9939 74.2992C41.0879 74.2534 40.3507 73.3826 39.7418 71.6358C39.5564 71.1052 39.4235 70.6691 39.3181 70.3188C39.2672 70.1508 39.2156 69.9816 39.1693 69.8405C39.022 69.9734 38.8358 70.1516 38.6528 70.3275C38.1483 70.8124 37.3877 71.5452 36.2841 72.4614C34.6886 73.7861 33.4893 74.1869 32.6179 73.6868C31.6307 73.1199 31.4896 71.5778 31.6173 70.1033C30.5319 70.6092 29.5391 70.9465 28.6559 71.1128C28.3913 73.6463 28.0086 75.812 26.6605 77.6102L26.6578 77.6088Z" fill="white"/>
<path d="M85.5378 60.3952C84.907 60.8564 84.2325 61.2991 83.5171 61.7179C80.6808 63.3795 77.5122 64.5203 74.353 65.0167C70.8949 65.5599 67.6409 65.276 64.9428 64.1971C64.7756 64.131 64.6481 63.9887 64.6 63.8152C64.5519 63.6418 64.5863 63.4551 64.6944 63.3122C65.4075 62.3702 65.821 61.0484 65.7479 59.9428C65.7284 59.639 65.9464 59.3737 66.248 59.3349C66.3903 59.3166 66.4605 59.3393 66.7969 59.4466C70.5078 60.6279 71.994 60.2899 72.592 59.8022C72.9866 59.4783 73.1352 58.944 73.0474 58.1688C72.9799 57.5771 73.2512 57.0205 73.7723 56.6749C74.2306 56.3717 75.5678 55.823 78.0966 57.2545C79.1251 57.8366 80.2447 57.5698 80.777 57.0242C81.3002 56.4868 81.3066 55.7167 80.7917 54.8567C79.723 53.0675 79.4887 52.2295 79.8945 51.6552C80.361 50.9945 81.3008 51.1872 82.7216 51.479C83.1117 51.5589 83.5525 51.6487 84.0116 51.7269C85.4354 51.9678 87.2237 50.9732 87.9186 49.555C88.2573 48.8616 88.4361 47.8257 87.3601 46.8259C87.2439 46.7174 87.1769 46.5662 87.175 46.4078C87.173 46.2494 87.2371 46.0965 87.3517 45.9875C87.4922 45.8545 87.6308 45.8356 87.7922 45.8135C87.9663 45.7905 88.3284 45.7428 88.7279 45.6273C88.9257 45.5702 89.1393 45.6242 89.2871 45.7668C90.9669 47.3885 91.6387 49.5923 91.2845 52.3192C90.9264 55.0776 88.8244 57.9956 85.5373 60.399L85.5378 60.3952ZM66.0363 63.3723C70.8479 64.9803 77.3847 63.9726 82.9329 60.7218C87.0661 58.3004 89.7607 55.1005 90.1426 52.1616C90.4019 50.1685 90.0377 48.5136 89.0601 47.2315C89.454 48.1161 89.426 49.0972 88.9535 50.0634C88.0407 51.9303 85.7396 53.1855 83.8253 52.8624C83.3472 52.7813 82.8961 52.6889 82.4966 52.6075C81.8991 52.4842 81.1725 52.3357 80.8681 52.3615C80.8971 52.5523 81.0548 53.0543 81.7794 54.2675C82.5641 55.5812 82.4979 56.9132 81.6033 57.8314C80.6089 58.8512 78.8978 59.0306 77.534 58.258C75.9214 57.3443 74.8628 57.3394 74.4099 57.6386C74.2987 57.7132 74.1692 57.8431 74.1919 58.0436C74.3258 59.2209 74.0344 60.1119 73.3257 60.6957C71.7118 62.0204 68.4338 61.1585 66.8869 60.6829C66.8087 61.5998 66.5083 62.5495 66.0352 63.3731L66.0363 63.3723Z" fill="white"/>
<path d="M81.2501 58.1385C80.2362 58.8798 78.7481 58.945 77.5341 58.258C75.9214 57.3443 74.8628 57.3394 74.4099 57.6386C74.2987 57.7132 74.1693 57.8431 74.1919 58.0436C74.3258 59.2209 74.0344 60.1119 73.3257 60.6957C71.7072 62.0187 68.43 61.1579 66.8839 60.6834C66.7189 62.5032 65.6647 64.6164 63.9372 65.4101C63.1659 65.7638 61.6969 66.0842 59.8903 64.7723C59.609 66.3575 58.7643 68.4319 57.2025 68.9598C56.0589 69.3451 54.8563 68.8432 53.6169 67.4665C52.6997 69.6411 51.6593 70.8409 50.4537 71.1251C49.4793 71.3547 48.4594 70.9767 47.4251 70.0019C47.0658 69.664 46.7059 69.5267 46.3534 69.5944C45.9137 69.6803 45.4849 70.0948 45.2074 70.7048C44.3792 72.5199 43.3512 74.3667 41.992 74.2989C41.086 74.2531 40.3488 73.3823 39.7399 71.6355C39.5545 71.1049 39.4216 70.6688 39.3162 70.3185C39.2654 70.1505 39.2137 69.9813 39.1674 69.8402C39.0201 69.9731 38.8339 70.1513 38.651 70.3272C38.1464 70.8122 37.3858 71.5449 36.2822 72.4612C34.6867 73.7859 33.4875 74.1866 32.616 73.6865C31.6288 73.1197 31.4877 71.5775 31.6155 70.103C29.9425 70.882 28.5006 71.26 27.3179 71.2298C25.6719 71.1867 24.8685 70.3811 24.4852 69.7126C23.4769 67.9533 24.268 65.0382 26.0489 63.9396C26.2672 63.8052 26.5473 63.8309 26.7378 64.0045C28.964 66.0207 32.9719 66.6921 38.6529 66.0006C43.8233 65.3712 50.3946 63.561 57.6562 60.7684C66.1053 57.518 72.8463 53.9654 77.1484 50.4969C81.8882 46.6764 83.6416 43.0594 82.3588 39.7496C82.2241 39.4005 82.0594 39.0264 81.8705 38.6397C81.8009 38.4987 81.7928 38.3364 81.8463 38.1897C81.8997 38.0429 82.0109 37.9246 82.1534 37.8608C84.8423 36.6754 87.2624 37.31 89.3475 39.7472C91.1925 41.9041 91.8442 43.5995 91.3393 44.9292C91.0923 45.5809 90.4493 46.3874 88.8219 46.7934C89.4503 47.7857 89.5059 48.9361 88.9529 50.0672C88.0402 51.934 85.739 53.1892 83.8247 52.8662C83.3467 52.7851 82.8956 52.6926 82.4961 52.6113C81.8985 52.488 81.172 52.3395 80.8676 52.3653C80.8965 52.5561 81.0543 53.0581 81.7788 54.2713C82.5635 55.585 82.4973 56.917 81.6028 57.8352C81.4925 57.9478 81.375 58.0505 81.2495 58.1423L81.2501 58.1385ZM73.7027 56.724C73.7256 56.7073 73.7486 56.6905 73.7734 56.6741C74.2317 56.3709 75.5689 55.8222 78.0977 57.2537C79.1262 57.8358 80.2458 57.569 80.7781 57.0234C81.3013 56.486 81.3077 55.7159 80.7928 54.8559C79.7241 53.0667 79.4898 52.2287 79.8956 51.6544C80.3621 50.9937 81.3019 51.1864 82.7228 51.4782C83.1128 51.5581 83.5536 51.6479 84.0127 51.7261C85.4365 51.967 87.2248 50.9724 87.9197 49.5542C88.2584 48.8608 88.4372 47.8249 87.3612 46.8251C87.245 46.7166 87.178 46.5654 87.1764 46.4051C87.1755 46.2459 87.2396 46.093 87.3542 45.984C87.4928 45.8507 87.6322 45.8329 87.7925 45.8116C89.516 45.5827 90.0881 44.9794 90.265 44.5135C90.5966 43.6385 89.9779 42.2471 88.4766 40.4916C86.8602 38.6016 85.1614 38.0235 83.1707 38.7001C83.2674 38.917 83.356 39.1298 83.4352 39.3344C84.9191 43.1667 83.049 47.2241 77.8767 51.3944C73.4836 54.9378 66.6356 58.5502 58.0763 61.8424C48.9618 65.3488 32.8806 70.3674 26.3335 65.1648C25.2942 66.0913 24.8429 68.0211 25.4857 69.1409C26.3042 70.5696 28.6977 70.3706 32.0536 68.5949C32.2371 68.4978 32.4586 68.5074 32.6332 68.6203C32.8079 68.7332 32.9094 68.9315 32.8981 69.1383C32.8982 69.15 32.8924 69.1946 32.8811 69.2685C32.5517 71.3194 32.7976 72.4619 33.187 72.6853C33.3278 72.7657 33.915 72.9252 35.5461 71.5711C36.6175 70.6818 37.3312 69.995 37.8519 69.4932C38.6396 68.7356 38.9989 68.3888 39.514 68.5253C40.0162 68.6577 40.1583 69.1292 40.4197 69.9861C40.5227 70.3263 40.6517 70.7501 40.8289 71.2582C41.4468 73.0287 41.9519 73.1423 42.0472 73.1466C42.277 73.1586 42.9443 72.8961 44.1628 70.222C44.6006 69.2609 45.3191 68.6195 46.1331 68.4617C46.8485 68.3223 47.5886 68.5718 48.2146 69.1622C48.95 69.8542 49.6134 70.1363 50.1884 70.0019C50.8411 69.8477 51.8427 69.0531 52.9011 66.1393C52.9733 65.9402 53.1491 65.7982 53.3582 65.7681C53.5673 65.738 53.7769 65.8254 53.9041 65.9948C54.6829 67.037 55.822 68.2078 56.8359 67.8652C58.0327 67.4612 58.8713 65.053 58.8523 63.6252C58.8492 63.3919 58.9862 63.1808 59.2008 63.0894C59.4154 62.9982 59.6622 63.0448 59.8301 63.208C60.7238 64.0821 62.0802 64.9914 63.4603 64.3592C64.9633 63.6707 65.8594 61.52 65.7547 59.9429C65.7352 59.6391 65.9532 59.3738 66.2548 59.335C66.3971 59.3167 66.4673 59.3394 66.8037 59.4467C70.5145 60.628 72.0008 60.29 72.5988 59.8023C72.9934 59.4784 73.142 58.9441 73.0542 58.1689C72.9902 57.605 73.2329 57.0709 73.7076 56.7238L73.7027 56.724Z" fill="white"/>
<path d="M76.5417 52.4158C72.1501 55.6268 65.812 58.8646 58.0754 61.8413C49.517 65.1346 42.0097 67.0437 36.3663 67.3628C29.7237 67.7379 25.6029 65.9866 24.1189 62.1543C22.594 58.2156 22.0633 50.5219 24.5054 42.9358C26.5863 36.4752 31.5418 27.7731 43.3396 23.0096C47.5473 21.3109 51.7788 20.5083 55.9164 20.624C59.5606 20.7269 63.1535 21.5386 66.5984 23.0388C75.8891 27.0849 81.7576 34.9992 83.4354 39.3324C84.9193 43.1648 83.0492 47.2222 77.8758 51.3933C77.4534 51.7341 77.0088 52.0743 76.5417 52.4158ZM36.4825 28.0939C30.192 32.6932 27.1104 38.6053 25.6012 43.2937C23.2446 50.612 23.7371 57.9855 25.1912 61.7404C26.473 65.051 30.2101 66.5546 36.2963 66.2112C41.8213 65.8995 49.2075 64.015 57.6578 60.7638C66.1069 57.5134 72.8479 53.9608 77.15 50.4923C81.8898 46.6718 83.6432 43.0548 82.3603 39.745C80.7517 35.5933 75.1056 27.9993 66.1412 24.0948C58.9868 20.9799 51.4606 20.9732 43.7723 24.0778C40.9583 25.2134 38.5465 26.5831 36.4817 28.0928L36.4825 28.0939Z" fill="white"/>
<path d="M36.7126 42.9469C36.6995 42.9565 36.6853 42.9668 36.6706 42.9742C35.4778 43.6243 34.3065 43.653 33.4558 43.0553C32.8074 42.5991 32.4446 41.8213 32.55 41.1202C32.6353 40.5565 33.0057 40.1309 33.5649 39.9542C33.7665 39.8909 33.9828 40.0036 34.0469 40.2057C34.1109 40.4079 34.0004 40.6232 33.7977 40.6873C33.4443 40.7994 33.3364 41.0482 33.3082 41.2387C33.2451 41.6516 33.4872 42.1408 33.8941 42.427C34.2458 42.6745 35.0192 42.9855 36.2734 42.3141L36.4702 42.1618C36.6354 42.0327 36.8788 42.0633 37.0082 42.2311C37.1376 42.3989 37.1084 42.6407 36.9414 42.7695L36.7192 42.9421C36.7192 42.9421 36.7137 42.9461 36.7104 42.9485L36.7126 42.9469Z" fill="white"/>
<path d="M41.585 36.3898C41.5556 36.4114 41.5218 36.4293 41.4859 36.4421C40.1115 36.9238 39.57 36.5291 39.3575 36.1125C39.0265 35.4628 39.4403 34.5445 39.8805 34.2395C40.054 34.1194 40.2943 34.1641 40.4139 34.3391C40.5335 34.5141 40.4915 34.7568 40.3167 34.8728C40.1391 35.0009 39.9194 35.525 40.0408 35.7643C40.1138 35.9077 40.4697 35.9822 41.2297 35.716C41.4295 35.6456 41.6489 35.751 41.72 35.9513C41.7782 36.1157 41.7182 36.2925 41.5861 36.389L41.585 36.3898Z" fill="white"/>
<path d="M50.7999 43.4153C49.7566 44.1781 48.9163 44.0253 48.5569 43.8979C47.8754 43.6576 47.3944 43.0318 47.3594 42.3425C47.3277 41.7197 47.6711 41.1792 48.2784 40.8966C48.4714 40.8077 48.6988 40.8921 48.7887 41.0838C48.8783 41.2773 48.7951 41.5047 48.604 41.5939C48.2816 41.7439 48.1112 41.9964 48.1267 42.3063C48.146 42.6808 48.4268 43.0374 48.8103 43.1725C49.4513 43.3987 50.2632 43.0271 51.0371 42.15C51.1776 41.9918 51.4194 41.9765 51.578 42.1179C51.7367 42.2593 51.7529 42.5014 51.6124 42.6597C51.3322 42.9773 51.0599 43.2235 50.8002 43.4134L50.7999 43.4153Z" fill="white"/>
<path d="M56.7283 29.9441C56.6835 29.9768 56.6316 29.9996 56.5746 30.011C55.2441 30.2621 54.4676 30.0543 54.2654 29.393C54.0514 28.6949 54.7189 27.8098 55.0589 27.6655C55.2529 27.5825 55.4792 27.6745 55.5628 27.869C55.6443 28.0584 55.5606 28.2761 55.3783 28.3656C55.3783 28.3656 55.3772 28.3664 55.3761 28.3672C55.232 28.4726 54.918 28.973 55.0042 29.1825C55.0494 29.2925 55.4053 29.4495 56.4294 29.2558C56.637 29.2168 56.839 29.3534 56.8797 29.5625C56.9091 29.7126 56.8459 29.8598 56.7302 29.9444L56.7283 29.9441ZM55.3598 28.3724C55.3598 28.3724 55.366 28.3695 55.369 28.369C55.3668 28.3706 55.3628 28.3719 55.3598 28.3724Z" fill="white"/>
<path d="M65.9357 33.5397C65.8833 33.578 65.8213 33.6031 65.7533 33.6108C64.0353 33.8037 62.8385 33.1243 62.5445 32.3534C62.3363 31.8075 62.5467 31.25 63.1105 30.8529C63.2831 30.7317 63.5237 30.7745 63.6455 30.9479C63.7673 31.1213 63.7264 31.3632 63.5529 31.4832C63.2815 31.6733 63.1839 31.8742 63.2625 32.0825C63.4196 32.4942 64.2681 33.0043 65.6656 32.8472C65.8757 32.8231 66.0676 32.9756 66.0915 33.1869C66.1085 33.3293 66.0446 33.4618 65.9365 33.5408L65.9357 33.5397Z" fill="white"/>
<path d="M35.4327 91.7473C35.4086 91.7649 35.383 91.7802 35.3566 91.7945C35.0746 91.9402 34.7263 91.8281 34.5807 91.5442C33.8591 90.1473 33.2948 88.9516 32.9049 87.9901C32.7844 87.6946 32.9259 87.359 33.2212 87.2407C33.5165 87.1223 33.8523 87.2655 33.9709 87.5606C34.3473 88.4899 34.8963 89.6531 35.6014 91.0183C35.7337 91.2749 35.6564 91.5837 35.4316 91.7481L35.4327 91.7473Z" fill="white"/>
<path d="M70.2003 87.8046C69.8566 88.056 69.517 88.1024 69.2691 88.0885C68.4261 88.042 67.6102 87.1918 67.4839 86.231C67.3707 85.3616 67.8405 84.6732 68.7409 84.3884C68.9425 84.3251 69.1589 84.4377 69.2229 84.6399C69.287 84.842 69.1765 85.0574 68.9746 85.1226C68.2913 85.3379 68.2014 85.7922 68.2456 86.1367C68.3234 86.7309 68.829 87.2965 69.3068 87.3224C69.8317 87.3508 70.2885 86.7157 70.5596 85.577C70.5581 85.4788 70.5122 85.3106 70.4663 85.2617C70.4544 85.2637 70.4324 85.2679 70.3971 85.2837C70.2044 85.3707 69.9765 85.2834 69.8887 85.0901C69.801 84.8969 69.8873 84.6689 70.0799 84.5819C70.513 84.3864 70.8083 84.5473 70.945 84.661C71.303 84.9561 71.3537 85.5499 71.3132 85.7259C71.0396 86.8932 70.6154 87.4995 70.1985 87.8043L70.2003 87.8046ZM70.5669 85.5481C70.5669 85.5481 70.5664 85.5519 70.565 85.5546C70.5653 85.5527 70.5666 85.55 70.5669 85.5481Z" fill="white"/>
<path d="M77.6742 82.9844C77.1132 83.3945 76.1287 83.2597 75.5573 83.0096C74.8916 82.7175 74.8151 82.3175 74.8273 82.1051C74.8655 81.4816 75.6822 81.1738 76.2936 80.9976C76.8605 80.8338 77.5674 80.9394 77.8712 81.545C78.2291 82.259 77.9865 82.6786 77.8097 82.8651C77.7681 82.909 77.7222 82.9493 77.6742 82.9844ZM75.6104 82.1499C75.7092 82.2576 76.0779 82.4389 76.5702 82.4709C76.9616 82.4977 77.206 82.4082 77.2676 82.316C77.3154 82.244 77.2848 82.0831 77.1868 81.8872C77.0368 81.5881 76.5324 81.7298 76.5102 81.7359C75.868 81.9228 75.6673 82.0881 75.6104 82.1499Z" fill="white"/>
<path d="M55.8947 73.0903C55.5641 73.3321 54.9685 73.4681 53.9081 73.0624C53.3936 72.8649 52.7583 72.1838 52.9349 71.6442C53.3791 70.2933 54.0255 69.9771 54.4891 69.9493C55.2404 69.9047 55.8317 70.5692 56.1089 71.1522C56.445 71.857 56.4196 72.5484 56.0442 72.9558C56.0012 73.0023 55.9518 73.0469 55.8939 73.0892L55.8947 73.0903ZM53.6773 71.8534C53.7121 71.9743 53.9436 72.2542 54.1808 72.3449C54.8207 72.5903 55.3063 72.6222 55.4815 72.4335C55.6313 72.2719 55.6044 71.8709 55.4187 71.4818C55.1994 71.0215 54.8307 70.7005 54.5402 70.7178C54.2283 70.7355 53.9149 71.1498 53.6781 71.8545L53.6773 71.8534Z" fill="white"/>
<path d="M60.4485 70.8914C60.4322 70.9033 60.4139 70.915 60.394 70.9245C59.2527 71.4983 58.4382 71.5891 57.9722 71.1946C57.6685 70.9372 57.5712 70.5087 57.7126 70.047C57.8501 69.5982 58.2419 69.0897 58.7796 69.0347C58.9902 69.0136 59.1791 69.1666 59.2019 69.3787C59.2239 69.5897 59.0719 69.7782 58.861 69.8012C58.73 69.8145 58.5271 70.0134 58.447 70.2772C58.4016 70.4281 58.4092 70.5622 58.4666 70.611C58.5824 70.7098 59.0465 70.7422 60.0472 70.2394C60.2361 70.145 60.4677 70.2213 60.5628 70.4108C60.6491 70.5816 60.5967 70.7847 60.4482 70.8933L60.4485 70.8914Z" fill="white"/>
<path d="M31.6255 75.2064C31.5873 75.2343 31.5443 75.2557 31.496 75.2675C30.7731 75.4562 29.8302 75.0942 29.5194 74.5088C29.4126 74.3077 29.2285 73.7811 29.8379 73.2448C29.998 73.1041 30.2397 73.1209 30.38 73.2807C30.5203 73.4406 30.5054 73.6836 30.3464 73.8235C30.1259 74.0166 30.1769 74.1139 30.1966 74.15C30.3261 74.3935 30.9068 74.6266 31.3006 74.5238C31.5056 74.4698 31.7153 74.594 31.7702 74.7995C31.8119 74.9574 31.7496 75.1174 31.6263 75.2075L31.6255 75.2064Z" fill="white"/>
<path d="M85.8568 77.9169C85.4126 78.2417 84.6186 78.4454 83.3324 77.6161C83.1542 77.5007 83.1013 77.2635 83.2158 77.0856C83.3302 76.9077 83.5669 76.8558 83.7462 76.9703C84.2437 77.2912 85.1431 77.7356 85.5851 77.1079C85.9668 76.5647 85.8686 75.4959 85.4042 75.1356C84.9199 74.7596 84.1911 75.5196 83.9 75.8636C83.763 76.0244 83.5214 76.0445 83.3592 75.9074C83.197 75.7703 83.177 75.5276 83.3132 75.3657C84.614 73.8258 85.5361 74.267 85.8732 74.5286C86.6641 75.1431 86.8359 76.6677 86.2131 77.5521C86.1375 77.6595 86.0216 77.7964 85.8579 77.9161L85.8568 77.9169Z" fill="white"/>
</g>
<g opacity="0.1" clip-path="url(#clip1_4006_897)">
<path d="M164.748 98.6107C164.584 98.7739 164.369 98.8878 164.123 98.921C163.522 99.0052 162.967 98.5882 162.885 97.9872C162.621 96.0895 162.322 92.628 161.975 88.6174C161.255 80.3155 160.268 68.9436 158.866 62.7761C158.731 62.1861 159.102 61.5968 159.693 61.4591C160.284 61.3228 160.872 61.6918 161.008 62.2832C162.445 68.5986 163.439 80.0567 164.164 88.4216C164.51 92.4007 164.807 95.8376 165.062 97.6805C165.113 98.0351 164.985 98.3735 164.749 98.6093L164.748 98.6107Z" fill="white"/>
<path d="M175.472 62.7777C175.284 62.9655 175.026 63.0864 174.74 63.099C173.658 63.1442 171.79 63.1547 169.425 63.1672C162.638 63.2029 152.381 63.2593 146.025 64.1859C145.425 64.2743 144.868 63.8573 144.781 63.2576C144.694 62.6579 145.113 62.1001 145.713 62.0117C152.221 61.0615 162.57 61.0064 169.418 60.9693C171.762 60.9568 173.61 60.9463 174.652 60.9026C175.258 60.8772 175.769 61.3477 175.793 61.9529C175.805 62.272 175.682 62.5652 175.472 62.775L175.472 62.7777Z" fill="white"/>
<path d="M187.335 93.0328C187.099 93.2686 186.759 93.3923 186.411 93.3462C183.255 92.9269 180.205 93.4469 178.55 94.0213C174.251 95.511 172.663 93.7396 172.101 92.5516C170.574 89.3326 173.394 83.1777 177.585 80.5789C179.712 79.2589 181.9 78.9824 183.973 79.7001C182.973 76.4024 181.576 73.5626 179.872 72.8375C177.584 71.8639 174.977 76.0302 173.625 78.6022C173.344 79.1407 172.678 79.347 172.143 79.0669C171.607 78.7855 171.401 78.1215 171.682 77.5858C174.709 71.8264 177.754 69.5494 180.735 70.8193C183.866 72.1534 185.693 77.1975 186.686 81.2785C187.336 81.8214 187.964 82.4738 188.562 83.2358C188.936 83.7119 188.85 84.4022 188.373 84.778C188.095 84.9961 187.744 85.0595 187.426 84.9791C187.95 88.3034 188.041 91.29 187.598 92.608C187.542 92.7737 187.45 92.9176 187.333 93.0342L187.335 93.0328ZM177.077 83.7758C174.635 86.2177 173.29 89.9264 174.086 91.6057C174.638 92.769 176.43 92.4327 177.837 91.9448C179.615 91.3291 182.527 90.8106 185.672 91.0601C185.826 89.292 185.478 85.9141 184.716 82.5298C182.812 81.2161 180.782 81.1762 178.738 82.4427C178.142 82.8118 177.586 83.2671 177.077 83.7758Z" fill="white"/>
<path d="M201.48 88.202C199.949 89.7335 197.295 90.6803 193.612 90.022C193.015 89.9159 192.62 89.3453 192.728 88.7481C192.835 88.1509 193.407 87.7545 194.004 87.8606C198.011 88.5773 200.309 87.0147 200.748 85.26C201.255 83.2381 199.516 80.4767 194.491 78.8711C191.04 77.7675 189.238 76.251 189.138 74.3599C189.056 72.8304 190.177 71.3925 192.136 70.5164C194.256 69.5675 197.384 69.3912 199.239 71.2458C199.667 71.6739 199.666 72.3696 199.237 72.7987C198.808 73.2279 198.112 73.2288 197.684 72.8007C196.611 71.7283 194.531 71.8473 193.029 72.5201C191.999 72.9815 191.301 73.6876 191.331 74.2381C191.365 74.8872 192.391 75.8938 195.165 76.7805C201.541 78.8186 203.634 82.7737 202.879 85.7887C202.662 86.6503 202.194 87.4904 201.481 88.2033L201.48 88.202Z" fill="white"/>
<path d="M213.124 87.0839C212.942 87.2663 212.697 87.3857 212.419 87.4039C211.815 87.4443 211.291 86.9862 211.253 86.381C210.755 78.6101 208.878 67.7447 207.975 62.5229C207.845 61.7644 207.734 61.1222 207.65 60.6211C207.55 60.0242 207.953 59.4568 208.553 59.3547C209.15 59.2526 209.716 59.6545 209.817 60.2542C209.9 60.7512 210.01 61.3906 210.142 62.145C211.05 67.4052 212.94 78.3473 213.447 86.2359C213.469 86.5645 213.342 86.8687 213.127 87.0839L213.124 87.0839Z" fill="white"/>
<path d="M217.481 66.6893C217.352 66.8182 217.192 66.9156 217.011 66.9679C216.292 67.2194 205.357 71.4246 204.16 71.9272C203.601 72.1635 202.957 71.9013 202.724 71.3415C202.489 70.7831 202.753 70.1391 203.313 69.9043C203.431 69.8548 216.118 64.8683 216.605 64.8211C217.209 64.7643 217.744 65.2059 217.8 65.8098C217.831 66.148 217.704 66.4658 217.481 66.6893ZM216.805 67.0065C216.805 67.0065 216.805 67.0065 216.807 67.0051C216.807 67.0051 216.807 67.0051 216.805 67.0065Z" fill="white"/>
<path d="M229.135 74.0083C228.706 74.4374 228.01 74.4383 227.582 74.0102C225.938 72.3662 221.467 67.0966 220.666 64.4122C220.493 63.8304 220.824 63.2206 221.404 63.0446C221.987 62.87 222.598 63.1992 222.77 63.7797C223.37 65.7892 227.288 70.6062 229.137 72.4554C229.565 72.8835 229.564 73.5791 229.135 74.0083Z" fill="white"/>
<path d="M222.218 87.5589C221.789 87.9881 221.093 87.9889 220.665 87.5608C220.237 87.1327 220.238 86.4371 220.667 86.0079C226.893 79.7818 228.779 69.4349 229.725 61.1172C229.794 60.5146 230.337 60.0812 230.94 60.1476C231.543 60.2153 231.975 60.757 231.907 61.361C230.92 70.0348 228.927 80.8502 222.218 87.5589Z" fill="white"/>
<path d="M244.504 67.6504C244.321 67.8328 244.073 67.9522 243.795 67.9704C243.19 68.0094 242.67 67.55 242.633 66.9447C242.246 60.665 240.269 39.6907 239.372 34.792C239.263 34.1951 239.658 33.6222 240.252 33.5119C240.848 33.4003 241.42 33.7939 241.53 34.3895C242.44 39.3498 244.436 60.4857 244.824 66.8051C244.844 67.1324 244.719 67.4352 244.504 67.6504Z" fill="white"/>
<path d="M246.519 78.2787C245.88 78.9177 245.103 79.224 244.287 79.1264C242.804 78.9488 241.804 78.127 241.543 76.873C241.153 75.0001 242.578 72.5909 244.111 71.6838C245.706 70.7425 246.705 71.2863 247.16 71.6938C248.384 72.7947 248.221 75.1955 247.448 76.8959C247.194 77.4535 246.878 77.9195 246.519 78.2787ZM244.771 73.9371C244.095 74.613 243.558 75.7709 243.695 76.4225C243.722 76.5512 243.784 76.8552 244.555 76.946C244.792 76.9744 245.127 76.6426 245.388 76.1219C245.944 75.0189 245.931 73.7015 245.72 73.3662C245.64 73.3773 245.474 73.4282 245.226 73.575C245.071 73.6669 244.918 73.7904 244.771 73.9371Z" fill="white"/>
</g>
<defs>
<clipPath id="clip0_4006_897">
<rect width="80.1989" height="82.8284" fill="white" transform="translate(0 53.3348) rotate(-36.1725)"/>
</clipPath>
<clipPath id="clip1_4006_897">
<rect width="101" height="83" fill="white" transform="translate(136 71.4178) rotate(-45)"/>
</clipPath>
</defs>
</svg>
