<svg width="82" height="56" viewBox="0 0 82 56" fill="none" xmlns="http://www.w3.org/2000/svg">
<g clip-path="url(#clip0_4001_703)">
<path d="M2.3642 14.3871C9.26883 16.289 16.4075 17.3198 23.5436 17.5424C27.1057 17.6533 30.6745 17.5431 34.2212 17.2223C37.9323 16.8866 41.6006 16.2614 45.2764 15.6712C52.0807 14.5781 59.08 13.7425 65.8367 15.6835C71.2835 17.248 76.601 20.7922 78.7456 26.3361C80.5457 30.9892 80.36 37.2168 76.6526 40.8633C76.1954 41.3128 75.6697 41.6774 75.1292 42.0156C74.4594 42.4347 73.8688 41.3938 74.3915 40.8876C77.8821 37.5079 78.7412 32.3973 77.2248 27.8005C75.4742 22.4937 70.597 19.1798 65.5255 17.6532C59.1699 15.7402 52.5022 16.5454 46.0886 17.5696C42.4737 18.1474 38.8685 18.7817 35.2231 19.1404C31.7825 19.4784 28.3203 19.6289 24.8621 19.5861C18.9211 19.5147 13.0175 18.8674 7.19796 17.691C13.5536 21.4564 20.9043 23.4152 28.2528 23.285C30.8127 23.2395 33.363 22.9075 35.8567 22.3391C37.2443 22.0223 37.6597 24.2347 36.2751 24.552C29.9514 25.999 23.2949 25.8329 17.0017 24.1925C17.614 24.4377 18.2196 24.7205 18.8239 24.9551C19.8372 25.3483 20.8651 25.7035 21.9042 26.0183C23.9741 26.6463 26.0888 27.1086 28.222 27.4383C32.4516 28.0915 36.7695 28.1815 41.0034 27.6016C42.2003 27.4378 43.3906 27.2238 44.5703 26.9584C45.7775 26.6867 46.9598 26.2736 48.1808 26.08C49.1692 25.9233 49.6914 27.3553 48.7525 27.8112C47.7023 28.3213 46.5443 28.5756 45.411 28.8353C44.3575 29.0769 43.2943 29.278 42.2243 29.4379C40.0009 29.7717 37.7476 29.9316 35.4984 29.9304C33.831 29.9291 32.1675 29.8282 30.515 29.6284C33.8828 30.967 37.3722 31.855 40.9926 32.091C42.891 32.215 44.7914 32.1511 46.6741 31.8888C47.6082 31.7585 48.5366 31.582 49.4532 31.3592C50.4342 31.1213 51.3762 30.7657 52.3792 30.6546C53.3842 30.5433 53.7876 31.8132 52.9352 32.3394C51.6073 33.1602 49.8763 33.419 48.353 33.6667C46.7788 33.9231 45.1806 34.0468 43.5843 34.0553C42.8825 34.0589 42.1797 34.0365 41.4785 33.9906C44.029 35.2609 46.5965 36.412 49.4317 36.8388C52.4076 37.2874 55.4077 37.1577 58.3012 36.3282C58.991 36.1302 59.6652 35.8867 60.3264 35.6054C61.0304 35.3049 62.296 34.7197 62.6499 35.8426C62.9796 36.8905 61.8575 37.3296 61.1106 37.6231C60.35 37.9222 59.5697 38.1807 58.78 38.3946C58.7452 38.4042 58.7101 38.4118 58.6753 38.4214C59.7837 38.8935 61.0675 38.7868 62.24 38.5359C63.9613 38.168 65.6244 37.55 67.4136 37.6412C68.9391 37.7188 70.3908 38.4002 71.2877 39.6947C72.1926 41.0009 72.516 42.7266 71.3515 43.9562C70.6678 44.6784 69.5023 43.7573 69.8134 42.8857C70.156 41.9245 70.0001 41.0898 69.1991 40.3489C68.169 39.3961 66.659 39.5103 65.3878 39.7103C62.661 40.1393 59.4544 41.275 57.015 39.2951C56.8538 39.1642 56.7623 39.005 56.7232 38.84C54.4101 39.223 52.0098 39.2332 49.7124 38.8408C46.374 38.2701 42.8791 37.0232 40.4 34.5869C40.2044 34.3949 40.2467 34.1006 40.398 33.9015C38.2789 33.6831 36.1823 33.2275 34.1774 32.4934C32.5043 31.8811 30.8604 31.1302 29.352 30.165C29.0876 29.9962 29.1105 29.6621 29.2741 29.4598C26.9131 29.1026 24.5817 28.5462 22.3041 27.788C21.0921 27.3849 19.8964 26.9274 18.7225 26.4173C17.5971 25.9283 16.3273 25.4242 15.368 24.6366C15.0155 24.3473 15.1714 23.8691 15.5285 23.7794C12.9962 23.0189 10.5322 22.0177 8.18415 20.7818C5.78757 19.5197 3.52167 18.0121 1.42349 16.2823C0.48112 15.5055 1.18575 14.0624 2.36516 14.3869L2.3642 14.3871Z" fill="white"/>
</g>
<defs>
<clipPath id="clip0_4001_703">
<rect width="74.6606" height="42.1613" fill="white" transform="matrix(-0.982585 0.185814 0.185814 0.982585 74.1658 0.679932)"/>
</clipPath>
</defs>
</svg>
