<svg width="188" height="13" viewBox="0 0 188 13" fill="none" xmlns="http://www.w3.org/2000/svg">
<g clip-path="url(#clip0_4001_699)">
<path fill-rule="evenodd" clip-rule="evenodd" d="M187.146 0.825906C187.146 1.0944 187.011 1.63138 186.81 1.96699C186.575 2.43684 186.642 2.60465 187.146 2.7389C188.085 2.97382 188.018 4.38339 186.978 5.5916C186.005 6.76624 181.84 8.98501 178.686 9.99185C173.079 11.8377 170.663 12.1733 161.965 12.3076C157.431 12.3747 150.247 12.274 146.015 12.0726C121.103 10.898 88.0326 10.0254 66.1065 10.0254C51.335 9.99185 34.1774 9.55555 32.6003 9.18638C31.2246 8.81721 31.795 8.44803 34.3116 8.0453C36.6269 7.70969 37.5366 7.64256 51.8383 6.80353C64.1939 6.09875 96.5592 5.66245 136.348 5.66245C173.683 5.66245 173.213 5.66245 179.122 3.85014C180.666 3.38029 182.918 2.37345 184.126 1.6351C186.471 0.188243 187.146 -0.0131244 187.146 0.825906Z" fill="white"/>
<path fill-rule="evenodd" clip-rule="evenodd" d="M21.5198 7.30694C23.0633 7.70967 23.7344 8.31378 23.2646 8.88432C22.6942 9.5891 0.801638 9.48842 0.801638 8.81719C0.801638 7.97816 2.14382 7.7768 9.19402 7.54187C12.9894 7.44118 17.0495 7.27338 18.2575 7.17269C19.4655 7.10557 20.9419 7.17269 21.516 7.30694H21.5198Z" fill="white"/>
</g>
<defs>
<clipPath id="clip0_4001_699">
<rect width="187" height="12" fill="white" transform="matrix(-1 0 0 1 187.805 0.329941)"/>
</clipPath>
</defs>
</svg>
