<svg width="50" height="4" viewBox="0 0 50 4" fill="none" xmlns="http://www.w3.org/2000/svg">
<g clip-path="url(#clip0_2001_3457)">
<path fill-rule="evenodd" clip-rule="evenodd" d="M5.32881 1.14103C4.53509 1.26991 3.08669 1.39879 2.12385 1.43101C0.311272 1.46323 0.00312327 1.65655 0.00312327 2.75559C0.00312327 4.26991 -0.427455 4.23769 9.71967 3.4322C15.8214 2.94891 43.6088 2.53006 46.9351 2.85225C49.3453 3.07779 50.0094 2.94891 50 2.2723C49.9907 1.72457 44.4689 1.14461 42.7497 1.49903C41.928 1.66013 41.1426 1.85344 41.0025 1.9501C40.8718 2.01454 35.9102 1.85344 29.9776 1.59569C16.5404 0.979936 7.21609 0.818838 5.32881 1.14103Z" fill="white"/>
</g>
<defs>
<clipPath id="clip0_2001_3457">
<rect width="50" height="3" fill="white" transform="translate(0 0.979935)"/>
</clipPath>
</defs>
</svg>
