<svg width="82" height="56" viewBox="0 0 82 56" fill="none" xmlns="http://www.w3.org/2000/svg">
<g clip-path="url(#clip0_4001_706)">
<path d="M79.6356 14.3871C72.7309 16.289 65.5923 17.3198 58.4561 17.5424C54.8941 17.6533 51.3253 17.5431 47.7786 17.2223C44.0675 16.8866 40.3992 16.2614 36.7234 15.6712C29.9191 14.5781 22.9197 13.7425 16.163 15.6835C10.7163 17.248 5.39879 20.7922 3.25413 26.3361C1.45405 30.9892 1.63978 37.2168 5.34713 40.8633C5.80433 41.3128 6.33002 41.6774 6.87059 42.0156C7.54033 42.4347 8.13095 41.3938 7.6083 40.8876C4.11762 37.5079 3.2586 32.3973 4.77497 27.8005C6.52553 22.4937 11.4027 19.1798 16.4742 17.6532C22.8298 15.7402 29.4976 16.5454 35.9112 17.5696C39.5261 18.1474 43.1313 18.7817 46.7767 19.1404C50.2173 19.4784 53.6794 19.6289 57.1376 19.5861C63.0787 19.5147 68.9822 18.8674 74.8018 17.691C68.4461 21.4564 61.0954 23.4152 53.7469 23.285C51.187 23.2395 48.6368 22.9075 46.1431 22.3391C44.7555 22.0223 44.3401 24.2347 45.7246 24.552C52.0484 25.999 58.7049 25.8329 64.9981 24.1925C64.3858 24.4377 63.7802 24.7205 63.1758 24.9551C62.1625 25.3483 61.1346 25.7035 60.0956 26.0183C58.0257 26.6463 55.911 27.1086 53.7778 27.4383C49.5482 28.0915 45.2302 28.1815 40.9963 27.6016C39.7995 27.4378 38.6091 27.2238 37.4295 26.9584C36.2223 26.6867 35.0399 26.2736 33.819 26.08C32.8305 25.9233 32.3084 27.3553 33.2472 27.8112C34.2975 28.3213 35.4555 28.5756 36.5887 28.8353C37.6423 29.0769 38.7055 29.278 39.7754 29.4379C41.9989 29.7717 44.2522 29.9316 46.5013 29.9304C48.1687 29.9291 49.8322 29.8282 51.4847 29.6284C48.1169 30.967 44.6275 31.855 41.0072 32.091C39.1088 32.215 37.2083 32.1511 35.3256 31.8888C34.3915 31.7585 33.4632 31.582 32.5466 31.3592C31.5656 31.1213 30.6236 30.7657 29.6206 30.6546C28.6156 30.5433 28.2122 31.8132 29.0645 32.3394C30.3924 33.1602 32.1234 33.419 33.6468 33.6667C35.2209 33.9231 36.8192 34.0468 38.4155 34.0553C39.1173 34.0589 39.82 34.0365 40.5213 33.9906C37.9708 35.2609 35.4033 36.412 32.568 36.8388C29.5921 37.2874 26.592 37.1577 23.6985 36.3282C23.0088 36.1302 22.3345 35.8867 21.6734 35.6054C20.9693 35.3049 19.7037 34.7197 19.3499 35.8426C19.0201 36.8905 20.1422 37.3296 20.8891 37.6231C21.6498 37.9222 22.43 38.1807 23.2197 38.3946C23.2545 38.4042 23.2897 38.4118 23.3245 38.4214C22.2161 38.8935 20.9322 38.7868 19.7597 38.5359C18.0385 38.168 16.3754 37.55 14.5861 37.6412C13.0606 37.7188 11.6089 38.4002 10.7121 39.6947C9.80711 41.0009 9.48374 42.7266 10.6483 43.9562C11.3319 44.6784 12.4975 43.7573 12.1864 42.8857C11.8438 41.9245 11.9997 41.0898 12.8007 40.3489C13.8308 39.3961 15.3408 39.5103 16.612 39.7103C19.3388 40.1393 22.5454 41.275 24.9847 39.2951C25.146 39.1642 25.2374 39.005 25.2766 38.84C27.5896 39.223 29.99 39.2332 32.2874 38.8408C35.6257 38.2701 39.1207 37.0232 41.5998 34.5869C41.7954 34.3949 41.7531 34.1006 41.6018 33.9015C43.7208 33.6831 45.8175 33.2275 47.8223 32.4934C49.4955 31.8811 51.1394 31.1302 52.6477 30.165C52.9122 29.9962 52.8892 29.6621 52.7257 29.4598C55.0867 29.1026 57.4181 28.5462 59.6956 27.788C60.9077 27.3849 62.1033 26.9274 63.2773 26.4173C64.4027 25.9283 65.6724 25.4242 66.6317 24.6366C66.9842 24.3473 66.8283 23.8691 66.4713 23.7794C69.0035 23.0189 71.4675 22.0177 73.8156 20.7818C76.2122 19.5197 78.4781 18.0121 80.5763 16.2823C81.5186 15.5055 80.814 14.0624 79.6346 14.3869L79.6356 14.3871Z" fill="white"/>
</g>
<defs>
<clipPath id="clip0_4001_706">
<rect width="74.6606" height="42.1613" fill="white" transform="translate(7.83398 0.679932) rotate(10.7086)"/>
</clipPath>
</defs>
</svg>
