<svg width="326" height="282" viewBox="0 0 326 282" fill="none" xmlns="http://www.w3.org/2000/svg">
<g clip-path="url(#clip0_2001_3640)">
<path d="M25.4368 181.093C25.4368 181.093 25.3566 180.401 25.1574 179.369C25.019 178.301 24.8586 176.918 24.64 175.158C24.4215 173.398 24.2167 171.384 24.0258 169.115C23.8349 166.846 23.6939 164.384 23.5777 161.824C23.4615 159.265 23.4311 156.573 23.4007 153.881C23.4312 151.153 23.4976 148.485 23.7217 145.807C23.921 143.226 24.253 140.73 24.7179 138.32C25.1827 135.91 25.7666 133.841 26.5551 131.978C27.3437 130.116 28.3121 128.559 29.4355 127.402C30.5837 126.149 31.9589 125.418 33.5249 125.15C34.1198 125.045 34.8475 125.025 35.5503 125.103C36.253 125.18 36.9669 125.416 37.6309 125.844C38.295 126.273 38.8732 126.835 39.4626 127.554C39.991 128.31 40.4088 129.295 40.6191 130.485C40.8542 131.577 40.8819 132.875 40.8238 134.306C40.7657 135.736 40.536 137.432 40.2095 139.103C39.9189 140.835 39.4458 142.675 38.9726 144.515C38.4386 146.391 37.8437 148.303 37.188 150.251C36.4962 152.138 35.7436 154.061 34.991 155.984C34.2024 157.846 33.3779 159.647 32.4814 161.327L32.5146 161.8C32.8798 161.584 33.1233 161.44 33.3059 161.332C33.4886 161.224 33.6103 161.152 33.8648 161.166C34.0834 161.119 34.302 161.072 34.4957 161.122C34.6534 161.111 34.7862 161.196 34.9439 161.185C35.0408 161.21 35.2344 161.26 35.3313 161.285C35.489 161.274 35.6467 161.263 35.8044 161.252C37.6499 160.9 39.2298 160.378 40.544 159.683C41.8583 158.989 42.9789 158.244 43.82 157.583C44.8078 156.753 45.6628 155.837 46.36 154.932L47.0295 161.764C45.92 162.666 44.7385 163.446 43.4492 164.044C42.1598 164.641 40.9922 165.167 39.9104 165.56C38.6099 166 37.3704 166.404 36.0589 166.686C36.9609 167.795 37.802 168.941 38.5822 170.122C39.2297 171.218 39.9131 172.375 40.5107 173.664C41.1443 175.014 41.6202 176.376 41.8775 177.784C41.9494 177.906 41.9466 178.318 42.0158 178.852C42.085 179.386 42.1043 180.114 42.1596 180.902C42.215 181.691 42.1845 182.612 42.1901 183.594C42.1956 184.576 42.0434 185.57 41.9272 186.624C41.775 187.617 41.5619 188.646 41.252 189.651C40.9421 190.655 40.5603 191.538 40.0456 192.335C39.531 193.132 38.9444 193.807 38.225 194.396C37.5057 194.985 36.6424 195.331 35.6103 195.53C34.5783 195.73 33.657 195.699 32.7743 195.317C31.9277 194.996 31.1308 194.482 30.4806 193.798C29.8304 193.115 29.3518 192.166 28.7763 191.192C28.2008 190.218 27.747 189.172 27.3182 188.029C26.8893 186.887 26.5573 185.769 26.2502 184.554C25.9431 183.34 25.672 182.186 25.4977 181.057M30.362 166.357C30.362 166.357 30.2513 166.586 30.2485 166.999C30.2457 167.411 30.254 167.981 30.2983 168.612C30.3426 169.242 30.3979 170.031 30.4892 170.88C30.5805 171.73 30.6358 172.518 30.788 173.332C30.8433 174.12 30.9595 174.873 31.0397 175.565C31.12 176.256 31.1891 176.79 31.2472 177.167C31.7867 179.887 32.2211 182.011 32.6223 183.663C32.9875 185.254 33.3555 186.433 33.6653 187.235C33.9752 188.038 34.263 188.525 34.5286 188.696C34.7333 188.904 34.963 189.014 35.1816 188.967C35.7764 188.862 36.2883 188.478 36.5595 187.825C36.8306 187.172 36.969 186.433 36.9994 185.512C37.0299 184.59 37.0243 183.608 36.886 182.54C36.7477 181.472 36.5844 180.501 36.4212 179.53C36.2801 178.874 36.1279 178.06 35.843 177.161C35.558 176.262 35.237 175.302 34.8801 174.281C34.5232 173.26 34.1054 172.275 33.7236 171.351C33.3058 170.366 32.8991 169.539 32.5284 168.772C32.0968 168.042 31.7371 167.433 31.4493 166.946C31.1007 166.495 30.7991 166.263 30.5805 166.31M31.4469 134.837C30.8575 137.731 30.4286 140.202 30.2322 142.371C29.9997 144.479 29.878 146.358 29.8669 148.007C29.8558 149.656 29.8586 151.05 29.9471 152.312C29.9996 153.513 30.1131 154.678 30.1546 155.721C30.9099 153.386 31.6653 151.05 32.3958 148.812C33.1871 146.538 33.8318 144.432 34.4267 142.52C35.0216 140.608 35.4699 138.865 35.8434 137.413C36.1561 135.996 36.2363 134.881 36.1561 134.189C35.9929 133.218 35.719 132.477 35.3454 132.122C34.9719 131.768 34.5486 131.608 34.0755 131.641C33.2011 131.829 32.6533 132.153 32.2493 132.72C31.9062 133.251 31.6102 134.001 31.458 134.994" fill="white"/>
<path d="M53.1745 174.804C52.1424 175.003 51.1381 174.693 50.1365 173.971C49.1349 173.249 48.1112 172.211 47.223 170.847C46.3349 169.483 45.4606 167.864 44.7578 165.98C44.0551 164.096 43.4381 162.079 43.0646 159.918C42.7602 158.291 42.5666 156.435 42.3978 154.481C42.2899 152.492 42.2429 150.466 42.3425 148.272C42.3813 146.114 42.5778 143.945 42.8351 141.74C43.0925 139.535 43.4217 137.451 43.9087 135.357C44.3348 133.298 44.8938 131.325 45.5606 129.535C46.1915 127.684 46.9053 126.113 47.6911 124.663C48.4769 123.213 49.3817 122.104 50.3944 121.177C51.4071 120.25 52.4778 119.699 53.6676 119.489C54.481 119.337 55.1838 119.414 55.74 119.661C56.2961 119.907 56.8024 120.347 57.2479 120.823C57.6325 121.334 57.9672 122.04 58.2052 122.721C58.4791 123.462 58.6562 124.179 58.8083 124.992C59.1237 126.777 59.2455 128.512 59.2205 130.415C59.1596 132.258 58.977 134.173 58.6726 136.159C58.3323 138.085 57.8702 140.083 57.3472 142.116C56.7883 144.089 56.1685 146.098 55.6096 148.071C54.9898 150.079 54.334 152.027 53.7391 153.939C53.0834 155.887 52.5494 157.763 51.9794 159.578C51.9296 159.772 51.8549 160.062 51.841 160.317C51.8023 160.668 51.7276 160.958 51.7248 161.371C51.6861 161.722 51.6833 162.134 51.6445 162.486C51.6418 162.898 51.639 163.31 51.6003 163.662L51.6584 164.038C51.7884 164.536 51.8825 164.973 52.0734 165.435C52.3252 165.861 52.4801 166.263 52.6599 166.567C52.8757 166.932 53.0805 167.14 53.2852 167.347C53.49 167.555 53.6837 167.604 53.8414 167.593C54.2177 167.535 54.6189 167.38 54.9841 167.165C55.4102 166.913 55.8363 166.661 56.3482 166.276C56.86 165.892 57.311 165.543 57.7869 165.098C58.2628 164.652 58.6779 164.243 59.1538 163.797C60.1913 162.774 61.193 161.689 62.3412 160.436L65.7001 165.842C64.2835 167.336 62.8558 168.673 61.3921 169.948C60.7944 170.465 60.1 170.958 59.4414 171.511C58.747 172.004 58.0525 172.496 57.358 172.989C56.6275 173.42 55.9579 173.816 55.2524 174.151C54.5468 174.486 53.9271 174.688 53.2713 174.829M49.0798 152.586C49.6608 150.929 50.2308 149.114 50.7538 147.08C51.3736 145.071 51.8606 142.977 52.3476 140.882C52.8345 138.788 53.1638 136.704 53.3963 134.596C53.6647 132.548 53.6896 130.645 53.5679 128.91C53.4987 128.376 53.3687 127.878 53.2497 127.538C53.1916 127.161 53.0228 127.015 52.926 126.99C52.392 127.059 51.8912 127.601 51.3406 128.337C50.8259 129.134 50.3943 130.21 50.0097 131.505C49.6251 132.8 49.2875 134.314 49.0219 135.949C48.7562 137.584 48.5376 139.438 48.4767 141.281C48.355 143.159 48.3909 145.027 48.4628 146.955C48.5348 148.884 48.7893 150.705 49.1047 152.489" fill="white"/>
<path d="M73.1736 149.025C73.1902 148.359 73.3396 147.778 73.6468 147.185C73.9539 146.593 74.2721 146.159 74.748 145.713C75.163 145.304 75.614 144.955 76.101 144.668C76.588 144.38 77.086 144.25 77.584 144.12C78.1789 144.015 78.688 144.042 79.1113 144.203C79.5347 144.363 79.8473 144.753 79.9165 145.287C79.9884 145.409 79.9746 145.664 79.9248 145.857C79.8971 146.366 79.8805 147.033 79.9109 147.919C79.9413 148.804 79.85 149.761 79.9275 150.865C79.9081 151.944 79.9247 153.084 79.9772 154.285C79.9689 155.522 80.0215 156.723 80.0741 157.924C80.1155 160.773 80.1681 163.781 80.3285 166.971C80.8044 166.526 81.3412 166.044 81.9029 165.466C82.4645 164.888 83.076 164.116 83.6764 163.186C84.3377 162.221 85.0239 161.158 85.8457 159.769C86.6066 158.416 87.4062 156.712 88.3165 154.778L90.8232 160.688C90.6129 161.305 90.2809 161.994 89.852 162.658C89.4591 163.383 88.9694 164.083 88.4188 164.819C87.8682 165.555 87.3176 166.291 86.731 166.966C86.1444 167.641 85.5578 168.316 84.9712 168.991C83.6155 170.449 82.102 171.918 80.4917 173.363C80.5387 175.388 80.428 177.424 80.3422 179.364C80.1955 181.339 79.9769 183.193 79.6255 184.961C79.2741 186.729 78.7899 188.412 78.1978 189.911C77.6056 191.411 76.8807 192.825 76.0119 193.995C75.1431 195.165 74.0696 196.128 72.8272 196.944C71.6098 197.664 70.2236 198.237 68.6327 198.602C68.0378 198.707 67.3461 198.787 66.5216 198.782C65.7939 198.801 65.0551 198.663 64.3662 198.331C63.6523 198.095 63.0492 197.631 62.4958 196.972C61.9425 196.313 61.5606 195.389 61.3504 194.2C61.1982 193.386 61.2535 192.368 61.4915 191.242C61.7295 190.116 62.0892 188.918 62.6315 187.612C63.1738 186.306 63.8379 184.928 64.5628 183.514C65.3486 182.064 66.2312 180.639 67.1748 179.178C68.1183 177.718 69.1586 176.282 70.2598 174.81C71.3611 173.338 72.4374 171.963 73.5497 170.648L73.8347 167.934C72.9908 169.008 72.075 169.959 71.1121 170.693C70.1492 171.426 69.1033 171.88 68.1073 172.14C67.2329 172.328 66.3116 172.297 65.3791 172.109C64.4467 171.921 63.625 171.503 62.8281 170.989C62.0921 170.438 61.406 169.694 60.8056 168.817C60.2661 167.903 59.8123 166.858 59.602 165.668C59.2977 164.041 59.1013 162.597 59.0017 161.177C58.9021 159.758 58.8744 158.46 58.9436 157.187C59.0128 155.915 59.1788 154.667 59.3808 153.48C59.6437 152.257 59.9065 151.034 60.2912 149.739C60.5762 148.832 61.0299 148.071 61.7493 147.481C62.4687 146.892 63.1742 146.557 63.9877 146.405C64.6434 146.264 65.1885 146.352 65.7447 146.599C66.3008 146.845 66.5885 147.332 66.7296 147.988C66.7767 148.206 66.8237 148.425 66.8099 148.679C66.796 148.934 66.7822 149.189 66.7075 149.479C66.5193 150.411 66.4031 151.466 66.298 152.678C66.1928 153.889 66.1236 155.162 66.1153 156.399C66.107 157.636 66.0987 158.873 66.1512 160.073C66.2038 161.274 66.3421 162.342 66.4943 163.156C66.5884 163.593 66.6824 164.03 66.8733 164.492C67.0283 164.893 67.1832 165.294 67.4239 165.563C67.6038 165.867 67.9053 166.1 68.2678 166.296C68.5943 166.432 68.9457 166.47 69.4188 166.437C70.0746 166.296 70.6473 165.875 71.137 165.175C71.5659 164.511 71.8869 163.665 72.1719 162.757C72.4569 161.85 72.5841 160.953 72.6755 159.996C72.7668 159.039 72.8083 158.275 72.764 157.644L73.2096 149.086L73.1736 149.025ZM67.9659 193.165C68.7794 193.013 69.449 192.617 70.0466 192.1C70.6442 191.582 71.1589 190.785 71.6376 189.928C72.1162 189.07 72.4621 188.126 72.772 187.122C73.0819 186.118 73.3558 185.053 73.5329 183.962C73.746 182.933 73.8622 181.879 73.9175 180.861C74.0089 179.903 74.0393 178.982 74.0808 178.218C73.4583 178.833 72.8108 179.544 72.1993 180.316C71.5879 181.088 70.9515 181.956 70.4119 182.85C69.8115 183.78 69.272 184.673 68.8293 185.592C68.3257 186.547 67.9438 187.429 67.5869 188.215C67.23 189.001 66.9699 189.811 66.8315 190.55C66.6572 191.228 66.6655 191.798 66.6987 192.271C66.8398 192.927 67.2742 193.245 67.9908 193.068" fill="white"/>
<path d="M104.5 159.094C103.949 159.83 103.277 160.638 102.386 161.493C101.495 162.348 100.604 163.203 99.5194 164.008C98.4956 164.777 97.3751 165.522 96.2434 166.108C95.1477 166.756 94.0299 167.088 92.937 167.323C91.9658 167.486 91.1413 167.48 90.4385 167.403C89.7607 167.229 89.1077 166.957 88.6373 166.578C88.131 166.138 87.7464 165.627 87.4476 164.982C87.1488 164.337 86.9357 163.56 86.7836 162.746C86.5733 161.557 86.4488 160.234 86.4599 158.585C86.4101 156.972 86.4821 155.287 86.554 153.602C86.59 151.856 86.7228 150.135 86.8557 148.414C86.9885 146.693 87.0964 145.069 87.1545 143.638C87.1822 143.129 87.4036 142.67 87.7218 142.236C88.04 141.801 88.4301 141.489 88.8811 141.14C89.3681 140.852 89.7942 140.6 90.3171 140.374C90.84 140.147 91.2772 140.053 91.7144 139.959C92.5278 139.806 93.0369 139.834 93.3745 140.127C93.676 140.36 93.8919 140.725 94.0219 141.223C94.08 141.599 94.1243 142.23 94.1187 143.055C94.1132 143.879 93.9859 144.776 93.9305 145.794C93.8752 146.812 93.6981 147.902 93.6538 149.078C93.5487 150.29 93.4684 151.405 93.3633 152.617C93.319 153.793 93.2387 154.908 93.2553 156.048C93.2359 157.127 93.3383 158.134 93.5264 159.008C93.6786 159.822 93.9165 160.502 94.1683 160.929C94.4561 161.415 94.8794 161.576 95.4743 161.471C96.13 161.33 96.8356 160.995 97.555 160.406C98.2743 159.816 98.9827 159.069 99.7159 158.225C100.388 157.417 101.121 156.574 101.794 155.766C102.43 154.897 103.078 154.186 103.542 153.583L104.572 159.216L104.5 159.094ZM86.7784 132.856C86.6843 132.419 86.712 131.91 86.8005 131.365C86.8891 130.82 87.0994 130.203 87.4424 129.671C87.7855 129.14 88.2255 128.634 88.8591 128.177C89.4927 127.721 90.356 127.375 91.388 127.176C92.0437 127.035 92.6746 126.99 93.2805 127.043C93.8865 127.095 94.4315 127.184 94.9268 127.466C95.4221 127.748 95.8205 128.006 96.1691 128.457C96.5177 128.908 96.7806 129.492 96.8608 130.183C97.0019 130.839 96.9493 131.445 96.8968 132.051C96.7833 132.693 96.5371 133.249 96.2299 133.841C95.8868 134.372 95.386 134.915 94.7773 135.274C94.1077 135.67 93.3662 135.944 92.431 136.168C90.8041 136.472 89.5563 136.306 88.6266 135.706C87.6969 135.105 87.1214 134.131 86.9361 132.845" fill="white"/>
<path d="M102.568 159.578C102.322 158.328 102.162 156.944 102.015 155.306C101.869 153.668 101.722 152.03 101.636 150.356C101.55 148.683 101.465 147.009 101.512 145.42C101.498 143.868 101.495 142.474 101.575 141.359C101.642 140.498 101.902 139.687 102.331 139.023C102.82 138.323 103.551 137.892 104.522 137.729C105.554 137.529 106.232 137.704 106.81 138.265C107.292 138.802 107.602 139.605 107.862 140.601C107.945 140.88 107.942 141.292 107.975 141.765C108.008 142.239 108.017 142.809 108.086 143.343C108.094 143.913 108.138 144.543 108.147 145.113C108.191 145.744 108.199 146.314 108.171 146.823C108.144 147.332 108.177 147.805 108.235 148.182C108.232 148.594 108.279 148.813 108.29 148.97L108.885 148.865C108.885 148.865 109.096 148.248 109.22 147.764C109.345 147.28 109.555 146.663 109.765 146.046C109.975 145.429 110.211 144.715 110.446 144.001C110.681 143.287 110.916 142.573 111.127 141.956C111.301 141.279 111.547 140.722 111.732 140.202C111.918 139.682 112.017 139.295 112.128 139.065C112.524 137.928 113.038 137.131 113.794 136.603C114.488 136.11 115.255 135.739 116.226 135.576C117.136 135.449 117.911 135.648 118.658 136.356C119.369 137.004 119.823 138.05 120.08 139.458C120.127 139.677 120.149 139.992 120.122 140.501C120.094 141.01 120.102 141.58 120.122 142.308C120.105 142.975 120.099 143.799 120.094 144.624C120.088 145.448 120.083 146.273 120.113 147.158C120.144 148.044 120.199 148.832 120.29 149.682C120.382 150.531 120.462 151.223 120.578 151.975C120.752 153.104 121.134 154.028 121.53 154.698C121.925 155.367 122.457 155.711 123.112 155.569C123.392 155.486 123.732 155.367 124.001 155.127C124.366 154.911 124.659 154.573 125.049 154.261C125.403 153.887 125.757 153.514 126.173 153.104C126.552 152.634 126.906 152.26 127.285 151.79C128.129 150.716 128.937 149.582 129.794 148.254L131.427 154.352L130.218 155.641C129.57 156.353 128.923 157.064 128.214 157.811C127.567 158.522 126.823 159.208 126.042 159.833C125.262 160.458 124.446 161.023 123.558 161.466C122.706 161.969 121.709 162.229 120.713 162.489C119.681 162.689 118.691 162.124 117.706 160.735C116.757 159.407 116.007 157.304 115.492 154.488C115.318 153.359 115.108 152.169 115.044 150.81C114.92 149.488 114.881 148.032 114.842 146.577L114.405 146.671L109.837 162.428C109.577 163.239 109.27 163.831 108.855 164.241C108.404 164.589 107.942 164.78 107.322 164.982C106.569 165.098 105.902 165.082 105.407 164.799C104.851 164.553 104.478 164.199 104.093 163.687C103.769 163.139 103.446 162.591 103.208 161.911C102.97 161.23 102.793 160.514 102.676 159.761" fill="white"/>
<path d="M140.319 155.503C139.475 156.577 138.56 157.529 137.597 158.262C136.634 158.995 135.588 159.449 134.592 159.709C133.718 159.897 132.796 159.867 131.864 159.678C130.931 159.49 130.11 159.072 129.313 158.558C128.577 158.007 127.891 157.263 127.29 156.386C126.751 155.473 126.297 154.427 126.087 153.237C125.829 151.829 125.73 150.409 125.874 148.846C125.957 147.319 126.258 145.744 126.693 144.256C127.091 142.706 127.658 141.304 128.347 139.829C129.072 138.415 129.869 137.123 130.774 136.013C131.74 134.868 132.752 133.941 133.873 133.197C134.993 132.453 136.222 131.891 137.473 131.645C137.91 131.551 138.261 131.589 138.491 131.7C138.72 131.811 138.986 131.982 139.191 132.19C139.396 132.397 139.564 132.544 139.769 132.751C139.913 132.995 140.167 133.009 140.397 133.119C140.652 133.133 140.845 133.183 141.1 133.197C141.318 133.15 141.573 133.164 141.792 133.117C141.974 133.009 142.168 133.059 142.386 133.012C142.569 132.904 142.824 132.918 143.042 132.87C143.322 132.787 143.576 132.801 143.831 132.815C144.085 132.829 144.315 132.94 144.545 133.05C144.81 133.222 144.954 133.465 145.134 133.77C145.314 134.074 145.408 134.511 145.513 135.106C145.643 135.604 145.687 136.235 145.779 137.084C145.87 137.934 145.936 138.88 146.003 139.826C146.044 140.869 146.086 141.913 146.199 143.077C146.216 144.217 146.293 145.321 146.31 146.461C146.401 149.117 146.467 151.87 146.52 154.878C146.996 154.433 147.533 153.951 148.094 153.373C148.656 152.795 149.267 152.023 149.868 151.093C150.529 150.127 151.215 149.065 152.037 147.676C152.798 146.323 153.598 144.619 154.508 142.685L157.015 148.595C156.804 149.212 156.472 149.901 156.043 150.565C155.651 151.29 155.161 151.99 154.61 152.726C154.12 153.426 153.57 154.162 152.922 154.873C152.336 155.548 151.749 156.223 151.224 156.862C149.868 158.32 148.354 159.789 146.78 161.294C146.827 163.32 146.716 165.356 146.63 167.296C146.484 169.271 146.265 171.125 145.914 172.893C145.562 174.661 145.078 176.343 144.486 177.843C143.894 179.343 143.169 180.756 142.3 181.927C141.431 183.097 140.358 184.06 139.176 184.84C137.959 185.56 136.548 186.229 134.982 186.497C134.387 186.603 133.695 186.683 132.871 186.677C132.143 186.697 131.404 186.558 130.715 186.226C130.001 185.991 129.398 185.526 128.845 184.868C128.292 184.209 127.91 183.285 127.699 182.095C127.547 181.282 127.603 180.264 127.841 179.138C128.079 178.011 128.438 176.813 128.981 175.507C129.523 174.202 130.187 172.824 130.912 171.41C131.698 169.96 132.58 168.535 133.524 167.074C134.467 165.613 135.508 164.177 136.609 162.705C137.71 161.233 138.786 159.858 139.899 158.544L140.184 155.83L140.319 155.503ZM134.39 180.77C135.203 180.618 135.873 180.222 136.47 179.705C137.093 179.091 137.583 178.391 138.061 177.533C138.54 176.675 138.886 175.732 139.196 174.727C139.506 173.723 139.78 172.658 139.957 171.568C140.134 170.477 140.286 169.484 140.341 168.466C140.433 167.509 140.463 166.587 140.505 165.824C139.882 166.438 139.235 167.149 138.623 167.921C138.012 168.693 137.375 169.562 136.836 170.455C136.235 171.385 135.696 172.279 135.253 173.197C134.75 174.152 134.368 175.034 134.011 175.82C133.654 176.606 133.394 177.417 133.255 178.155C133.081 178.833 133.089 179.403 133.123 179.876C133.264 180.532 133.698 180.85 134.415 180.673M132.968 150.567C133.062 151.004 133.156 151.441 133.347 151.904C133.502 152.305 133.657 152.706 133.898 152.974C134.077 153.279 134.379 153.511 134.705 153.647C135.032 153.782 135.419 153.882 135.856 153.788C136.512 153.647 137.085 153.226 137.514 152.562C137.943 151.898 138.3 151.112 138.549 150.144C138.834 149.236 138.961 148.34 139.052 147.383C139.144 146.425 139.185 145.662 139.141 145.031L139.307 136.556C138.554 136.672 137.849 137.007 137.19 137.56C136.532 138.114 135.97 138.692 135.455 139.489C134.941 140.286 134.523 141.107 134.08 142.026C133.734 142.969 133.389 143.913 133.175 144.942C132.926 145.911 132.835 146.868 132.78 147.886C132.749 148.807 132.816 149.754 132.968 150.567Z" fill="white"/>
<path d="M179.636 151.16C177.913 151.439 176.3 151.489 174.908 151.08C173.455 150.706 172.235 150.031 171.162 149.187C170.052 148.282 169.211 147.137 168.516 145.822C167.822 144.508 167.31 143.086 167.042 141.52C166.843 140.488 166.765 139.384 166.713 138.183C166.66 136.982 166.801 135.831 167.003 134.644C167.205 133.457 167.504 132.295 167.996 131.183C168.453 130.01 169.017 129.019 169.715 128.115C170.412 127.21 171.242 126.391 172.18 125.755C173.118 125.118 174.261 124.689 175.511 124.443C176.543 124.244 177.526 124.238 178.519 124.391C179.451 124.579 180.298 124.9 181.059 125.353C181.82 125.807 182.47 126.491 182.998 127.246C183.466 128.037 183.909 128.925 184.047 129.993C184.221 131.122 184.213 132.359 183.853 133.557C183.529 134.816 182.951 136.061 182.082 137.232C181.31 138.427 180.248 139.547 178.992 140.618C177.736 141.689 176.372 142.577 174.839 143.319C175.187 143.77 175.561 144.124 175.898 144.417C176.236 144.71 176.538 144.943 176.828 145.017C177.155 145.153 177.445 145.228 177.796 145.266C178.148 145.305 178.463 145.283 178.804 145.164C179.896 144.929 181.039 144.5 182.196 143.817C183.352 143.133 184.437 142.328 185.486 141.462C186.534 140.596 187.511 139.608 188.366 138.692C189.246 137.68 189.979 136.836 190.615 135.967L194.887 139.027C193.601 141.019 192.109 142.804 190.546 144.467C189.838 145.214 189.093 145.9 188.288 146.622C187.483 147.344 186.642 148.006 185.668 148.581C184.694 149.157 183.72 149.732 182.735 150.15C181.689 150.604 180.632 150.9 179.54 151.135M173.511 138.847C174.166 138.706 174.908 138.432 175.602 137.94C176.333 137.508 176.955 136.894 177.542 136.219C178.129 135.544 178.557 134.88 178.95 134.155C179.282 133.466 179.457 132.788 179.291 132.229C179.139 131.416 178.84 130.771 178.455 130.259C178.071 129.747 177.647 129.587 177.21 129.681C176.397 129.833 175.752 130.132 175.24 130.516C174.728 130.901 174.349 131.371 174.042 131.963C173.796 132.519 173.549 133.076 173.436 133.718C173.323 134.359 173.27 134.965 173.253 135.632C173.237 136.299 173.245 136.869 173.35 137.464C173.455 138.059 173.489 138.532 173.583 138.969" fill="white"/>
<path d="M219.919 136.637C219.587 137.326 219.133 138.087 218.63 139.041C218.029 139.971 217.429 140.901 216.635 141.781C215.841 142.66 215.011 143.479 214.109 144.177C213.207 144.874 212.222 145.292 211.19 145.491C209.939 145.737 208.91 145.524 207.883 144.899C206.918 144.237 205.991 143.225 205.103 141.861C204.735 142.489 204.27 143.092 203.744 143.731C203.218 144.37 202.596 144.984 201.876 145.574C201.218 146.127 200.463 146.656 199.671 147.123C198.88 147.591 198.042 147.84 197.228 147.992C196.354 148.18 195.432 148.15 194.561 147.925C193.689 147.701 192.807 147.32 192.01 146.805C191.274 146.254 190.588 145.51 189.987 144.633C189.448 143.72 188.994 142.674 188.784 141.484C188.526 140.076 188.427 138.656 188.571 137.093C188.654 135.566 188.955 133.992 189.39 132.503C189.788 130.954 190.355 129.551 191.044 128.076C191.769 126.662 192.566 125.37 193.532 124.225C194.497 123.079 195.51 122.152 196.631 121.408C197.751 120.664 198.98 120.102 200.23 119.856C200.668 119.762 201.019 119.801 201.249 119.911C201.478 120.022 201.744 120.193 201.949 120.401C202.153 120.608 202.322 120.755 202.527 120.963C202.671 121.206 202.925 121.22 203.155 121.331C203.349 121.38 203.603 121.394 203.858 121.408C204.076 121.361 204.331 121.375 204.549 121.328C204.732 121.22 204.987 121.234 205.205 121.187C205.388 121.079 205.642 121.093 205.861 121.046C206.14 120.963 206.395 120.976 206.65 120.99C206.904 121.004 207.134 121.115 207.363 121.226C207.629 121.397 207.773 121.641 207.953 121.945C208.133 122.249 208.227 122.686 208.332 123.281C208.52 124.156 208.622 125.163 208.639 126.303C208.655 127.443 208.672 128.583 208.628 129.759C208.583 130.934 208.636 132.135 208.653 133.275C208.669 134.415 208.783 135.58 208.946 136.551C209.134 137.425 209.275 138.081 209.563 138.568C209.815 138.994 210.177 139.191 210.711 139.122C211.087 139.063 211.489 138.909 211.879 138.596C212.305 138.344 212.659 137.971 213.013 137.597C213.367 137.224 213.746 136.753 214.125 136.283C214.504 135.812 214.787 135.317 215.13 134.786C215.841 133.627 216.541 132.31 217.266 130.896L219.773 136.806L219.919 136.637ZM195.762 138.839C195.856 139.276 195.95 139.713 196.141 140.176C196.296 140.577 196.451 140.978 196.691 141.246C196.871 141.551 197.173 141.783 197.499 141.919C197.826 142.054 198.177 142.093 198.65 142.06C199.306 141.919 199.879 141.498 200.308 140.834C200.737 140.17 201.093 139.384 201.343 138.416C201.628 137.508 201.755 136.612 201.846 135.655C201.937 134.697 201.979 133.934 201.935 133.303L202.101 124.828C201.348 124.944 200.643 125.279 199.984 125.832C199.326 126.386 198.764 126.964 198.249 127.761C197.735 128.558 197.317 129.379 196.874 130.298C196.528 131.241 196.182 132.185 195.969 133.214C195.72 134.183 195.629 135.14 195.574 136.158C195.482 137.115 195.61 138.026 195.762 138.839Z" fill="white"/>
<path d="M239.827 133.497C238.241 134.844 236.839 136.084 235.546 137.094C234.29 138.164 233.206 138.97 232.182 139.739C231.219 140.472 230.306 141.012 229.515 141.479C228.723 141.947 227.946 142.16 227.29 142.301C225.882 142.558 224.537 142.367 223.317 141.692C222.097 141.017 220.976 139.955 219.955 138.505C218.934 137.055 218.013 135.218 217.252 132.957C216.43 130.733 215.78 128.242 215.29 125.329C215.055 124.236 214.906 123.01 214.756 121.785C214.571 120.498 214.483 119.236 214.455 117.939C213.885 117.947 213.412 117.98 213.157 117.966C212.903 117.952 212.49 117.95 212.175 117.972C211.824 117.933 211.351 117.966 210.817 118.035C210.247 118.044 209.458 118.099 208.451 118.201C207.978 118.235 207.626 118.196 207.397 118.085C207.167 117.974 206.901 117.803 206.794 117.62C206.686 117.438 206.542 117.194 206.434 117.012C206.326 116.829 206.34 116.574 206.329 116.417C206.271 116.04 206.406 115.714 206.675 115.473C207.04 115.257 207.466 115.006 207.989 114.779C208.512 114.552 209.168 114.411 209.823 114.27C210.479 114.129 211.171 114.048 211.766 113.943C212.36 113.838 212.955 113.733 213.428 113.7C213.962 113.631 214.242 113.548 214.461 113.501C214.502 110.93 214.701 108.349 214.972 105.889C215.305 103.393 215.78 101.141 216.4 99.1323C217.02 97.1236 217.759 95.4552 218.713 94.152C219.668 92.8488 220.692 92.0797 221.942 91.8334C222.756 91.6813 223.519 91.7228 224.244 92.1157C224.994 92.4117 225.633 92.9375 226.248 93.56C226.862 94.1826 227.365 95.0347 227.808 95.9229C228.226 96.9079 228.547 97.868 228.782 98.9609C228.909 99.8712 228.976 100.817 228.956 101.897C228.901 102.915 228.76 104.066 228.461 105.228C228.223 106.354 227.924 107.516 227.468 108.689C227.072 109.826 226.651 111.06 226.195 112.233C226.352 112.222 226.668 112.2 227.044 112.142C227.42 112.084 227.858 111.99 228.392 111.921C228.926 111.852 229.46 111.783 230.054 111.677C230.649 111.572 231.183 111.503 231.778 111.398C232.312 111.329 232.846 111.26 233.344 111.13C233.842 111 234.255 111.002 234.57 110.98C234.946 110.922 235.273 111.058 235.489 111.423C235.704 111.788 235.92 112.153 235.989 112.687C236.13 113.343 236.042 113.888 235.76 114.383C235.477 114.879 235.112 115.094 234.614 115.225L223.978 117.239C223.561 118.06 223.179 118.943 222.725 119.704C222.307 120.526 221.914 121.251 221.582 121.94C221.696 123.104 221.87 124.233 222.044 125.362C222.113 125.896 222.208 126.333 222.277 126.867C222.346 127.401 222.415 127.935 222.509 128.372C222.578 128.906 222.672 129.344 222.706 129.817C222.8 130.254 222.894 130.691 222.952 131.067C223.115 132.039 223.364 132.877 223.663 133.522C224.023 134.13 224.346 134.678 224.817 135.057C225.287 135.436 225.746 135.658 226.291 135.746C226.836 135.835 227.406 135.826 228.062 135.685C228.438 135.627 228.9 135.436 229.448 135.113C229.996 134.789 230.605 134.429 231.274 134.034C231.944 133.638 232.567 133.024 233.225 132.47C233.944 131.881 234.567 131.267 235.25 130.617C235.898 129.905 236.52 129.291 237.071 128.555C237.658 127.88 238.172 127.083 238.601 126.419L239.924 133.522L239.827 133.497ZM224.385 99.9984C224.385 99.9984 224.291 99.5613 224.244 99.3427C224.1 99.0992 224.053 98.8806 223.885 98.734C223.741 98.4905 223.572 98.3439 223.342 98.2332C223.113 98.1225 222.858 98.1087 222.482 98.1668C221.984 98.2968 221.569 98.7063 221.259 99.7107C220.913 100.654 220.614 101.816 220.459 103.222C220.243 104.663 220.063 106.166 219.992 107.851C219.92 109.536 219.812 111.16 219.729 112.687C220.044 112.665 220.299 112.679 220.578 112.596C220.893 112.574 221.148 112.588 221.427 112.505C221.798 111.464 222.194 110.327 222.554 109.129C222.974 107.895 223.273 106.733 223.572 105.571C223.871 104.409 224.084 103.38 224.236 102.386C224.388 101.393 224.394 100.568 224.289 99.9735" fill="white"/>
<path d="M249.472 138.145C247.748 138.425 246.196 138.439 244.743 138.065C243.291 137.691 242.07 137.016 240.997 136.172C239.887 135.268 239.046 134.122 238.352 132.808C237.657 131.494 237.146 130.071 236.877 128.505C236.678 127.473 236.601 126.369 236.548 125.169C236.495 123.968 236.637 122.817 236.839 121.63C237.041 120.443 237.339 119.281 237.832 118.168C238.288 116.995 238.853 116.005 239.55 115.1C240.247 114.195 241.077 113.376 242.015 112.74C242.953 112.104 244.096 111.675 245.408 111.393C246.44 111.193 247.422 111.188 248.415 111.34C249.348 111.528 250.194 111.849 250.955 112.303C251.716 112.757 252.366 113.44 252.895 114.195C253.362 114.987 253.805 115.875 253.943 116.943C254.118 118.072 254.109 119.309 253.75 120.507C253.426 121.766 252.848 123.011 251.979 124.181C251.207 125.376 250.144 126.497 248.888 127.568C247.632 128.638 246.268 129.527 244.735 130.268C245.084 130.719 245.457 131.073 245.795 131.366C246.132 131.66 246.434 131.892 246.724 131.967C247.051 132.102 247.341 132.177 247.693 132.216C248.008 132.194 248.36 132.233 248.7 132.114C249.793 131.878 250.936 131.45 252.092 130.766C253.249 130.083 254.333 129.278 255.382 128.412C256.431 127.546 257.407 126.558 258.262 125.642C259.142 124.629 259.875 123.785 260.512 122.917L264.784 125.977C263.497 127.969 262.006 129.754 260.442 131.416C259.795 132.128 258.99 132.85 258.185 133.572C257.38 134.294 256.538 134.955 255.564 135.531C254.59 136.106 253.617 136.682 252.632 137.099C251.586 137.553 250.529 137.849 249.436 138.084M243.371 125.736C244.027 125.595 244.768 125.321 245.463 124.828C246.193 124.397 246.816 123.783 247.402 123.107C247.989 122.432 248.418 121.768 248.811 121.043C249.143 120.354 249.256 119.713 249.151 119.118C248.999 118.304 248.7 117.66 248.315 117.148C247.931 116.636 247.508 116.475 247.07 116.569C246.257 116.722 245.612 117.02 245.1 117.405C244.589 117.79 244.209 118.26 243.902 118.852C243.656 119.408 243.41 119.964 243.296 120.606C243.183 121.248 243.13 121.854 243.114 122.521C243.097 123.188 243.105 123.758 243.211 124.352C243.316 124.947 243.349 125.42 243.443 125.858" fill="white"/>
<path d="M260.852 130.025C260.7 129.211 260.537 128.24 260.459 127.136C260.382 126.032 260.268 124.867 260.18 123.606C260.127 122.405 260.099 121.107 260.072 119.809C260.044 118.512 260.052 117.275 260.097 116.099C260.141 114.923 260.16 113.844 260.216 112.826C260.307 111.869 260.374 111.008 260.487 110.366C260.551 109.918 260.686 109.591 260.761 109.301C260.836 109.01 260.982 108.842 261.19 108.637C261.372 108.529 261.58 108.324 261.859 108.241C262.103 108.097 262.479 108.039 262.916 107.945C263.414 107.815 263.827 107.818 264.081 107.832C264.336 107.846 264.529 107.895 264.698 108.042C264.806 108.225 264.95 108.468 265.094 108.712C265.213 109.052 265.307 109.489 265.412 110.084C265.553 110.74 265.68 111.65 265.904 112.585C266.068 113.556 266.292 114.492 266.516 115.427L266.831 115.405C267.091 114.594 267.316 113.722 267.625 112.718C267.935 111.714 268.281 110.77 268.724 109.852C269.167 108.933 269.778 108.161 270.426 107.45C271.073 106.739 271.961 106.296 272.932 106.133C273.309 106.075 273.624 106.053 274.011 106.152C274.363 106.191 274.689 106.327 274.955 106.498C275.22 106.67 275.522 106.902 275.702 107.207C275.882 107.511 276.062 107.815 276.156 108.252C276.178 108.568 276.272 109.005 276.28 109.575C276.288 110.145 276.333 110.776 276.316 111.443C276.3 112.109 276.308 112.679 276.352 113.31C276.36 113.88 276.43 114.414 276.488 114.791C276.629 115.446 276.795 116.005 276.95 116.406C277.201 116.833 277.381 117.137 277.683 117.369C277.924 117.638 278.214 117.712 278.505 117.787C278.795 117.862 279.111 117.84 279.39 117.757C280.203 117.604 281.067 117.259 281.883 116.694C282.735 116.191 283.455 115.601 284.077 114.987C284.821 114.301 285.591 113.518 286.324 112.674L287.104 119.276C286.689 119.685 286.213 120.131 285.676 120.612C285.139 121.094 284.542 121.611 283.908 122.067C283.275 122.524 282.641 122.98 281.935 123.315C281.266 123.711 280.488 123.924 279.675 124.076C278.267 124.333 277.091 124.289 276.172 123.846C275.193 123.44 274.421 122.828 273.699 122.023C273.037 121.182 272.498 120.269 272.008 119.162C271.518 118.055 271.125 116.974 270.757 115.795L270.32 115.889L267.966 130.667C267.827 131.405 267.714 132.047 267.564 132.628C267.44 133.113 267.218 133.572 267.083 133.898C266.886 134.261 266.679 134.466 266.411 134.706C266.167 134.85 265.863 135.03 265.547 135.052C264.795 135.168 264.128 135.152 263.633 134.869C263.076 134.623 262.703 134.269 262.318 133.757C261.995 133.209 261.671 132.661 261.433 131.981C261.195 131.3 261.018 130.584 260.902 129.831" fill="white"/>
<path d="M296.157 107.356C296.174 106.689 296.323 106.108 296.63 105.516C296.938 104.924 297.256 104.49 297.732 104.044C298.147 103.635 298.598 103.286 299.085 102.998C299.572 102.711 300.07 102.581 300.568 102.451C301.163 102.346 301.672 102.373 302.095 102.534C302.518 102.694 302.831 103.084 302.9 103.618C302.972 103.74 302.958 103.995 302.908 104.188C302.881 104.697 302.864 105.364 302.895 106.25C302.925 107.135 302.834 108.092 302.911 109.196C302.892 110.275 302.908 111.415 302.961 112.616C302.953 113.853 303.005 115.054 303.058 116.254C303.099 119.104 303.152 122.112 303.251 125.338C303.727 124.893 304.264 124.411 304.826 123.833C305.387 123.255 305.999 122.483 306.599 121.553C307.261 120.587 307.947 119.525 308.769 118.136C309.529 116.783 310.329 115.079 311.239 113.145L313.746 119.055C313.536 119.672 313.204 120.361 312.775 121.025C312.382 121.75 311.892 122.45 311.342 123.186C310.791 123.922 310.24 124.658 309.654 125.333C309.067 126.008 308.481 126.683 307.894 127.358C306.538 128.816 305.025 130.285 303.415 131.729C303.462 133.755 303.351 135.791 303.265 137.731C303.118 139.706 302.9 141.56 302.548 143.328C302.197 145.096 301.713 146.778 301.121 148.278C300.528 149.778 299.804 151.191 298.935 152.362C298.066 153.532 296.992 154.495 295.75 155.311C294.533 156.031 293.146 156.603 291.556 156.969C290.961 157.074 290.269 157.154 289.444 157.148C288.717 157.168 287.978 157.029 287.289 156.697C286.575 156.462 285.972 155.997 285.419 155.339C284.865 154.68 284.483 153.756 284.273 152.566C284.121 151.753 284.176 150.735 284.414 149.609C284.652 148.483 285.012 147.285 285.554 145.979C286.097 144.673 286.761 143.295 287.486 141.881C288.271 140.431 289.154 139.006 290.098 137.545C291.041 136.084 292.081 134.648 293.183 133.176C294.284 131.704 295.36 130.329 296.473 129.015L296.758 126.301C295.914 127.374 294.998 128.326 294.035 129.059C293.072 129.793 292.026 130.246 291.03 130.506C290.156 130.695 289.234 130.664 288.363 130.44C287.43 130.252 286.609 129.834 285.812 129.319C285.076 128.769 284.39 128.024 283.789 127.147C283.25 126.234 282.796 125.188 282.586 123.999C282.281 122.372 282.085 120.927 281.985 119.508C281.886 118.089 281.858 116.791 281.927 115.518C281.997 114.246 282.163 112.998 282.425 111.775C282.688 110.552 282.951 109.329 283.336 108.034C283.621 107.126 284.075 106.366 284.794 105.776C285.513 105.187 286.219 104.852 287.032 104.7C287.688 104.559 288.233 104.647 288.789 104.894C289.345 105.14 289.633 105.627 289.774 106.283C289.821 106.501 289.868 106.72 289.854 106.974C289.841 107.229 289.827 107.483 289.752 107.774C289.564 108.706 289.448 109.761 289.343 110.972C289.237 112.184 289.168 113.457 289.16 114.694C289.152 115.931 289.143 117.167 289.196 118.368C289.248 119.569 289.387 120.637 289.539 121.45C289.633 121.888 289.727 122.325 289.918 122.787C290.073 123.188 290.228 123.589 290.468 123.858C290.648 124.162 290.95 124.394 291.312 124.591C291.639 124.726 291.99 124.765 292.463 124.732C293.119 124.591 293.692 124.17 294.182 123.47C294.61 122.806 294.931 121.96 295.216 121.052C295.501 120.145 295.629 119.248 295.72 118.291C295.811 117.333 295.853 116.57 295.809 115.939L296.254 107.381L296.157 107.356ZM290.986 151.557C291.799 151.404 292.469 151.009 293.066 150.491C293.664 149.974 294.179 149.177 294.657 148.319C295.136 147.462 295.482 146.518 295.792 145.514C296.102 144.509 296.376 143.444 296.553 142.354C296.766 141.325 296.882 140.271 296.937 139.252C297.029 138.295 297.059 137.374 297.101 136.61C296.478 137.224 295.831 137.935 295.219 138.707C294.608 139.479 293.971 140.348 293.432 141.242C292.831 142.171 292.292 143.065 291.849 143.984C291.345 144.938 290.964 145.821 290.607 146.607C290.25 147.392 289.99 148.203 289.851 148.942C289.677 149.62 289.685 150.19 289.718 150.663C289.859 151.319 290.294 151.637 291.011 151.46" fill="white"/>
<g clip-path="url(#clip1_2001_3640)">
<path fill-rule="evenodd" clip-rule="evenodd" d="M132.376 177.045C112.955 182.917 86.7243 192.207 85.0497 193.786C84.1537 194.643 84.3519 196.338 85.3966 196.417C85.7087 196.437 87.1059 196.114 88.3691 195.672C99.8259 191.626 119.783 184.891 128.278 182.203C141.536 177.983 175.996 168.852 169.862 171.164C151.436 178.054 140.34 182.877 132.396 187.428C129.025 189.359 128.742 189.64 129.037 190.743L129.359 191.942L138.647 189.35C143.747 187.932 154.117 184.794 161.597 182.327C202.073 169.066 245.273 157.182 270.773 152.251C285.852 149.29 290.712 148.142 290.962 147.356C292.071 143.666 269.22 147.984 226.374 159.465C199.59 166.693 186.316 170.661 160.986 179.093C142.892 185.123 140.744 185.699 147.132 182.805C159.031 177.355 199.879 162.807 220.275 156.776C225.923 155.109 230.368 153.558 230.542 153.254C230.786 152.829 230.671 152.397 230.182 151.911C229.512 151.32 228.233 151.509 221.05 153.176C209.276 155.869 146.252 172.859 132.376 177.045Z" fill="white"/>
</g>
<g clip-path="url(#clip2_2001_3640)">
<path fill-rule="evenodd" clip-rule="evenodd" d="M91.4039 96.4949C90.1331 97.4494 90.6952 99.1653 92.2592 99.1653C93.4811 99.1653 94.1409 98.5779 94.1409 97.4766C94.1409 96.9871 94.0187 96.4487 93.8476 96.2774C93.4078 95.8369 92.137 95.9348 91.4012 96.4977L91.4039 96.4949Z" fill="white"/>
<path fill-rule="evenodd" clip-rule="evenodd" d="M109.572 100.952C108.765 101.931 103.191 114.176 101.991 117.605C101.16 119.957 101.062 120.569 101.551 120.422C102.039 120.251 103.826 117.042 107.272 110.138C110.5 103.625 111.233 101.811 110.94 101.052C110.745 100.563 109.963 100.514 109.572 100.955V100.952Z" fill="white"/>
<path fill-rule="evenodd" clip-rule="evenodd" d="M91.4527 104.161C91.3305 104.479 91.1594 107.369 91.0616 110.575C90.8906 116.648 91.135 120.199 91.8192 121.129C92.5523 122.108 92.7234 121.153 92.9433 114.543C93.261 105.042 93.261 104.356 92.9189 103.94C92.4546 103.377 91.7215 103.5 91.4527 104.161Z" fill="white"/>
<path fill-rule="evenodd" clip-rule="evenodd" d="M71.4764 109.376C70.841 109.621 71.1587 110.796 72.1606 112.022C72.7227 112.707 74.4605 115.011 76 117.164C79.2529 121.621 81.5256 124.145 81.9411 123.726C82.3321 123.334 81.5989 121.841 79.2502 118.29C76.3639 113.955 74.2622 111.114 73.1137 110.086C72.1117 109.205 72.014 109.156 71.4764 109.376Z" fill="white"/>
<path fill-rule="evenodd" clip-rule="evenodd" d="M55.8255 125.148C54.457 126.029 54.8724 127.574 56.4609 127.574C57.1207 127.574 57.9516 126.742 57.9516 126.105C57.9516 125.64 57.1696 124.637 56.803 124.637C56.6808 124.637 56.241 124.882 55.8255 125.151V125.148Z" fill="white"/>
<path fill-rule="evenodd" clip-rule="evenodd" d="M61.4515 127.081C60.7672 127.351 60.7184 128.183 61.3293 128.525C61.5737 128.648 63.3087 129.064 65.1932 129.406C67.0504 129.774 69.4724 130.263 70.5477 130.532C72.9697 131.095 75.0714 131.169 75.0714 130.63C75.0714 129.847 70.8409 128.302 66.635 127.593C62.7467 126.907 62.0624 126.858 61.4515 127.079V127.081Z" fill="white"/>
</g>
</g>
<defs>
<clipPath id="clip0_2001_3640">
<rect width="282.886" height="159.861" fill="white" transform="translate(0.864746 143.956) rotate(-30.5786)"/>
</clipPath>
<clipPath id="clip1_2001_3640">
<rect width="212" height="14" fill="white" transform="translate(82.9998 189.87) rotate(-15)"/>
</clipPath>
<clipPath id="clip2_2001_3640">
<rect width="56" height="35" fill="white" transform="translate(55 96)"/>
</clipPath>
</defs>
</svg>
