<svg width="167" height="25" viewBox="0 0 167 25" fill="none" xmlns="http://www.w3.org/2000/svg">
<path d="M14.8125 0.84375L17.8594 7.07812L24.5625 8.0625C25.125 8.15625 25.5938 8.53125 25.7812 9.09375C25.9688 9.60938 25.8281 10.2188 25.4062 10.5938L20.5312 15.4219L21.7031 22.2656C21.7969 22.8281 21.5625 23.3906 21.0938 23.7188C20.625 24.0938 20.0156 24.0938 19.5 23.8594L13.5 20.625L7.45312 23.8594C6.98438 24.0938 6.375 24.0938 5.90625 23.7188C5.4375 23.3906 5.20312 22.8281 5.29688 22.2656L6.42188 15.4219L1.54688 10.5938C1.17188 10.2188 1.03125 9.60938 1.17188 9.09375C1.35938 8.53125 1.82812 8.15625 2.39062 8.0625L9.14062 7.07812L12.1406 0.84375C12.375 0.328125 12.8906 0 13.5 0C14.0625 0 14.5781 0.328125 14.8125 0.84375Z" fill="#8BCDA6"/>
<path d="M49.8125 0.84375L52.8594 7.07812L59.5625 8.0625C60.125 8.15625 60.5938 8.53125 60.7812 9.09375C60.9688 9.60938 60.8281 10.2188 60.4062 10.5938L55.5312 15.4219L56.7031 22.2656C56.7969 22.8281 56.5625 23.3906 56.0938 23.7188C55.625 24.0938 55.0156 24.0938 54.5 23.8594L48.5 20.625L42.4531 23.8594C41.9844 24.0938 41.375 24.0938 40.9062 23.7188C40.4375 23.3906 40.2031 22.8281 40.2969 22.2656L41.4219 15.4219L36.5469 10.5938C36.1719 10.2188 36.0312 9.60938 36.1719 9.09375C36.3594 8.53125 36.8281 8.15625 37.3906 8.0625L44.1406 7.07812L47.1406 0.84375C47.375 0.328125 47.8906 0 48.5 0C49.0625 0 49.5781 0.328125 49.8125 0.84375Z" fill="#8BCDA6"/>
<path d="M84.8125 0.84375L87.8594 7.07812L94.5625 8.0625C95.125 8.15625 95.5938 8.53125 95.7812 9.09375C95.9688 9.60938 95.8281 10.2188 95.4062 10.5938L90.5312 15.4219L91.7031 22.2656C91.7969 22.8281 91.5625 23.3906 91.0938 23.7188C90.625 24.0938 90.0156 24.0938 89.5 23.8594L83.5 20.625L77.4531 23.8594C76.9844 24.0938 76.375 24.0938 75.9062 23.7188C75.4375 23.3906 75.2031 22.8281 75.2969 22.2656L76.4219 15.4219L71.5469 10.5938C71.1719 10.2188 71.0312 9.60938 71.1719 9.09375C71.3594 8.53125 71.8281 8.15625 72.3906 8.0625L79.1406 7.07812L82.1406 0.84375C82.375 0.328125 82.8906 0 83.5 0C84.0625 0 84.5781 0.328125 84.8125 0.84375Z" fill="#8BCDA6"/>
<path d="M119.812 0.84375L122.859 7.07812L129.562 8.0625C130.125 8.15625 130.594 8.53125 130.781 9.09375C130.969 9.60938 130.828 10.2188 130.406 10.5938L125.531 15.4219L126.703 22.2656C126.797 22.8281 126.562 23.3906 126.094 23.7188C125.625 24.0938 125.016 24.0938 124.5 23.8594L118.5 20.625L112.453 23.8594C111.984 24.0938 111.375 24.0938 110.906 23.7188C110.438 23.3906 110.203 22.8281 110.297 22.2656L111.422 15.4219L106.547 10.5938C106.172 10.2188 106.031 9.60938 106.172 9.09375C106.359 8.53125 106.828 8.15625 107.391 8.0625L114.141 7.07812L117.141 0.84375C117.375 0.328125 117.891 0 118.5 0C119.062 0 119.578 0.328125 119.812 0.84375Z" fill="#8BCDA6"/>
<path d="M154.812 0.84375L157.859 7.07812L164.562 8.0625C165.125 8.15625 165.594 8.53125 165.781 9.09375C165.969 9.60938 165.828 10.2188 165.406 10.5938L160.531 15.4219L161.703 22.2656C161.797 22.8281 161.562 23.3906 161.094 23.7188C160.625 24.0938 160.016 24.0938 159.5 23.8594L153.5 20.625L147.453 23.8594C146.984 24.0938 146.375 24.0938 145.906 23.7188C145.438 23.3906 145.203 22.8281 145.297 22.2656L146.422 15.4219L141.547 10.5938C141.172 10.2188 141.031 9.60938 141.172 9.09375C141.359 8.53125 141.828 8.15625 142.391 8.0625L149.141 7.07812L152.141 0.84375C152.375 0.328125 152.891 0 153.5 0C154.062 0 154.578 0.328125 154.812 0.84375Z" fill="#8BCDA6"/>
</svg>
