<svg width="245" height="233" viewBox="0 0 245 233" fill="none" xmlns="http://www.w3.org/2000/svg">
<g clip-path="url(#clip0_2001_3636)">
<path d="M197.809 203.899C197.809 206.657 196.762 208.892 195.524 208.892C194.286 208.892 193.19 206.657 193.19 203.899C193.19 201.141 194.238 198.953 195.524 198.953C196.809 198.953 197.809 201.188 197.809 203.899Z" fill="black"/>
<path d="M237.667 37.8506C240.191 34.5696 245.048 28.1027 245.001 20.1141C245.001 5.37327 238.524 0 238.524 0C238.524 0 229.286 11.1269 225.715 14.0276C218.62 19.8288 206.62 25.2496 189.191 27.3418C168.858 29.7194 160.381 35.4255 156.286 39.182C148.81 46.3622 144.239 55.3494 142.048 65.0023C129.477 62.8149 115.048 61.959 103.239 61.7212C94.8577 43.4616 90.5244 39.0394 73.9529 35.378C59.4291 32.192 50.0958 16.7855 49.3339 12.7912C49.2386 12.3633 48.4767 12.5059 48.191 12.8863C24.7148 46.5524 48.6672 50.1663 48.6672 50.1663C42.2863 63.3855 52.7148 65.8582 52.7148 65.8582L55.5244 65.668C36.9053 71.279 15.7624 83.9751 6.23864 109.415C-5.6185 140.989 2.52435 187.066 5.66721 201.854C6.23864 204.755 8.52435 206.942 11.4291 207.465L58.4767 215.834C58.4767 215.834 61.191 230.29 74.191 230.29C84.8577 230.29 88.0005 222.729 88.7624 219.971C88.9529 219.4 89.4291 219.02 90.0482 219.02H170.62C170.62 219.02 177.905 233 188.858 233C199.81 233 208.905 223.918 207.762 209.557L229.905 205.088C229.905 205.088 240.524 127.389 218.381 100.951C213.143 94.6265 205.81 89.1106 197.477 84.3555C198.762 83.9276 200.096 83.452 201.334 82.7388C203.715 81.5024 207.762 79.1249 209.429 75.511C209.953 74.4649 209.953 73.4663 210.001 72.1824C213.953 71.6594 217.953 70.7559 221.667 68.521C226.667 65.8106 231.524 60.0569 233.858 54.541C235.048 51.8306 237.191 47.1706 237.62 44.27C238.334 39.8478 237.286 38.3261 237.62 37.8506H237.667ZM104.429 164.622C104.429 160.009 106.953 156.3 110.048 156.3C113.143 156.3 115.62 160.009 115.62 164.622C115.62 169.234 113.096 172.896 110.048 172.896C107.001 172.896 104.429 169.187 104.429 164.622ZM30.0958 166.524C30.0958 161.959 32.572 158.202 35.6672 158.202C38.7624 158.202 41.2386 161.959 41.2386 166.524C41.2386 171.089 38.7624 174.845 35.6672 174.845C32.572 174.845 30.0958 171.136 30.0958 166.524ZM143.715 136.043C143.715 136.043 112.048 132.858 81.0005 133.095C50.0005 133.286 9.9053 138.992 9.9053 138.992C10.572 96.1957 33.6196 91.3931 33.6196 91.3931L132.096 90.0616C146.001 100.998 143.715 136.043 143.715 136.043ZM193.191 224.06C188.334 224.06 184.429 215.549 184.429 205.088C184.429 203.423 184.524 201.807 184.715 200.237H190.667C190.667 200.237 190.81 189.491 195.477 186.78C199.239 188.968 202.001 196.338 202.001 205.088C202.001 215.549 198.048 224.06 193.191 224.06ZM214.381 112.125C225.762 126.723 223.286 156.3 223.286 156.3L153.953 136.281C154.667 109.605 145.762 93.4853 145.762 93.4853C172.048 94.3888 214.381 112.125 214.381 112.125ZM230.572 31.7165C228.762 33.4759 226.143 35.4255 223.572 37.1849C218.334 40.6086 212.715 43.5567 206.524 45.649C200.381 47.7412 193.381 49.5006 186.524 50.1188L185.953 50.2139C192.667 52.5914 200.905 53.4473 208.096 52.5914C213.572 51.9257 219.048 50.309 224.143 47.8363C224.143 48.4545 224.048 49.1202 223.905 49.7384C223.143 53.59 221.191 57.1563 217.953 59.9618C214.858 62.91 208.048 66.1435 199.524 67.0469C194.762 67.57 188.905 68.1882 188.905 68.1882H188.572C188.572 68.1882 190.191 72.0873 199.572 72.0398C199.572 72.0398 199.715 72.4202 199.667 72.6104C199.239 73.8467 198.334 75.1306 197.048 76.2718C195.81 77.4606 194.096 78.4116 192.334 79.2676C191.524 79.648 190.667 79.9808 189.762 80.2661C176.905 74.0369 162.572 69.472 150.001 66.619C153.001 58.4878 156.81 51.6404 163.334 46.2196C168.905 41.6071 178.143 37.28 187.572 36.7094C200.477 35.9486 213.191 32.5249 218.953 29.8145C223.953 27.6747 234.429 20.4945 235.762 17.1659C236.715 23.1098 232.62 29.9096 230.572 31.7165Z" fill="white"/>
<path d="M53.1906 154.208H23.5715V179.695H53.1906V154.208Z" fill="black"/>
<path d="M121.19 150.594H101.286V174.845H121.19V150.594Z" fill="black"/>
<path d="M223.238 166.619L221.952 195.435C221.952 195.958 221.524 196.338 221 196.338H210.381C209.952 196.338 209.524 196.053 209.476 195.577C208.809 192.059 205.333 177.175 195.524 176.985C185.905 176.842 181.667 186.4 180.714 189.11C180.571 189.538 180.143 189.729 179.714 189.681L151.952 186.21C151.428 186.162 151.095 185.687 151.143 185.211L153.762 149.168C153.762 148.597 154.381 148.169 154.952 148.312L222.619 165.668C223.047 165.763 223.333 166.191 223.333 166.619H223.238Z" fill="#8BCDA6"/>
<path d="M204.905 100.808C186.571 92.772 140.571 83.5471 140.047 83.452L127.762 70.9461C127.762 70.9461 127.762 70.7559 127.857 70.8034C187.714 80.694 203.095 98.1452 205.047 100.761C205.095 100.856 205.047 100.951 204.952 100.903L204.905 100.808Z" fill="#8BCDA6"/>
<path d="M120.905 79.7906L39.0475 81.7877C38.7142 81.7877 38.5713 81.4073 38.857 81.2171C42.857 78.6969 59.8571 68.7588 83.5237 67.9028C107.381 67.0945 118.762 76.8424 121.143 79.22C121.333 79.4102 121.19 79.743 120.905 79.743V79.7906Z" fill="#8BCDA6"/>
<path d="M142.476 147.028C142.428 146.077 141.667 145.316 140.714 145.221C132.476 144.65 94.6666 142.178 64.3809 143.985C35.5237 145.696 15.2856 149.405 9.66659 150.499C8.76183 150.689 8.09516 151.498 8.14278 152.449C8.23802 156.538 8.57135 167.855 9.90468 176.795C11.3333 186.59 13.0475 192.296 13.9047 194.817C14.1904 195.72 15.0952 196.243 15.9999 196.053C24.8571 194.436 69.3809 186.543 97.4285 186.352C121.762 186.162 133.667 186.257 137.714 186.305C138.667 186.352 139.476 185.639 139.619 184.688C140.238 179.933 142 166.333 142.333 158.345C142.619 152.401 142.571 148.882 142.476 147.028ZM35.6666 174.845C32.5713 174.845 30.0952 171.136 30.0952 166.524C30.0952 161.911 32.5713 158.202 35.6666 158.202C38.7618 158.202 41.238 161.959 41.238 166.524C41.238 171.089 38.7618 174.845 35.6666 174.845ZM110.048 172.896C106.952 172.896 104.428 169.187 104.428 164.622C104.428 160.057 106.952 156.3 110.048 156.3C113.143 156.3 115.619 160.009 115.619 164.622C115.619 169.234 113.095 172.896 110.048 172.896Z" fill="#8BCDA6"/>
</g>
<defs>
<clipPath id="clip0_2001_3636">
<rect width="245" height="233" fill="white"/>
</clipPath>
</defs>
</svg>
