<svg width="30" height="31" viewBox="0 0 30 31" fill="none" xmlns="http://www.w3.org/2000/svg">
<g clip-path="url(#clip0_2001_3744)">
<path d="M15 3.1062C19.0078 3.1062 19.4824 3.12378 21.0586 3.19409C22.5234 3.25854 23.3145 3.50464 23.8418 3.70972C24.5391 3.97925 25.043 4.30737 25.5645 4.82886C26.0918 5.3562 26.4141 5.85425 26.6836 6.55151C26.8887 7.07886 27.1348 7.87573 27.1992 9.33472C27.2695 10.9167 27.2871 11.3914 27.2871 15.3933C27.2871 19.4011 27.2695 19.8757 27.1992 21.4519C27.1348 22.9167 26.8887 23.7078 26.6836 24.2351C26.4141 24.9324 26.0859 25.4363 25.5645 25.9578C25.0371 26.4851 24.5391 26.8074 23.8418 27.0769C23.3145 27.282 22.5176 27.5281 21.0586 27.5925C19.4766 27.6628 19.002 27.6804 15 27.6804C10.9922 27.6804 10.5176 27.6628 8.94141 27.5925C7.47656 27.5281 6.68555 27.282 6.1582 27.0769C5.46094 26.8074 4.95703 26.4792 4.43555 25.9578C3.9082 25.4304 3.58594 24.9324 3.31641 24.2351C3.11133 23.7078 2.86523 22.9109 2.80078 21.4519C2.73047 19.8699 2.71289 19.3953 2.71289 15.3933C2.71289 11.3855 2.73047 10.9109 2.80078 9.33472C2.86523 7.86987 3.11133 7.07886 3.31641 6.55151C3.58594 5.85425 3.91406 5.35034 4.43555 4.82886C4.96289 4.30151 5.46094 3.97925 6.1582 3.70972C6.68555 3.50464 7.48242 3.25854 8.94141 3.19409C10.5176 3.12378 10.9922 3.1062 15 3.1062ZM15 0.405029C10.9277 0.405029 10.418 0.422607 8.81836 0.49292C7.22461 0.563232 6.12891 0.821045 5.17969 1.19019C4.18945 1.5769 3.35156 2.08667 2.51953 2.92456C1.68164 3.75659 1.17188 4.59448 0.785156 5.57886C0.416016 6.53394 0.158203 7.62378 0.0878906 9.21753C0.0175781 10.823 0 11.3328 0 15.405C0 19.4773 0.0175781 19.9871 0.0878906 21.5867C0.158203 23.1804 0.416016 24.2761 0.785156 25.2253C1.17188 26.2156 1.68164 27.0535 2.51953 27.8855C3.35156 28.7175 4.18945 29.2332 5.17383 29.614C6.12891 29.9832 7.21875 30.241 8.8125 30.3113C10.4121 30.3816 10.9219 30.3992 14.9941 30.3992C19.0664 30.3992 19.5762 30.3816 21.1758 30.3113C22.7695 30.241 23.8652 29.9832 24.8145 29.614C25.7988 29.2332 26.6367 28.7175 27.4688 27.8855C28.3008 27.0535 28.8164 26.2156 29.1973 25.2312C29.5664 24.2761 29.8242 23.1863 29.8945 21.5925C29.9648 19.9929 29.9824 19.4832 29.9824 15.4109C29.9824 11.3386 29.9648 10.8289 29.8945 9.22925C29.8242 7.6355 29.5664 6.53979 29.1973 5.59058C28.8281 4.59448 28.3184 3.75659 27.4805 2.92456C26.6484 2.09253 25.8105 1.5769 24.8262 1.19604C23.8711 0.826904 22.7813 0.569092 21.1875 0.498779C19.582 0.422607 19.0723 0.405029 15 0.405029Z" fill="white"/>
<path d="M15 7.69995C10.7461 7.69995 7.29492 11.1511 7.29492 15.405C7.29492 19.6589 10.7461 23.1101 15 23.1101C19.2539 23.1101 22.7051 19.6589 22.7051 15.405C22.7051 11.1511 19.2539 7.69995 15 7.69995ZM15 20.4031C12.2402 20.4031 10.002 18.1648 10.002 15.405C10.002 12.6453 12.2402 10.407 15 10.407C17.7598 10.407 19.998 12.6453 19.998 15.405C19.998 18.1648 17.7598 20.4031 15 20.4031Z" fill="white"/>
<path d="M24.8086 7.39527C24.8086 8.39136 24 9.1941 23.0098 9.1941C22.0137 9.1941 21.2109 8.3855 21.2109 7.39527C21.2109 6.39917 22.0195 5.59644 23.0098 5.59644C24 5.59644 24.8086 6.40503 24.8086 7.39527Z" fill="white"/>
</g>
<defs>
<clipPath id="clip0_2001_3744">
<rect width="30" height="30" fill="white" transform="translate(0 0.405029)"/>
</clipPath>
</defs>
</svg>
