<svg width="866" height="321" viewBox="0 0 866 321" fill="none" xmlns="http://www.w3.org/2000/svg">
<path fill-rule="evenodd" clip-rule="evenodd" d="M9.44242 1.29543C7.97538 2.78656 7.97538 4.77474 9.07566 7.75702C10.9095 12.2304 8.89228 85.3513 5.59143 132.423C3.39087 163.94 -0.276737 305.34 1.00693 309.997C1.37369 311.986 3.20749 313.974 4.67453 314.637C11.2762 316.79 12.3765 307.347 13.6602 244.351C14.3937 211.03 16.0441 167.088 17.5111 146.543C19.1616 125.98 20.812 87.5236 21.5455 60.9961L22.6458 12.7459L83.3854 13.4086C116.781 13.5743 232.005 14.237 339.547 14.7341C447.069 15.2311 539.921 15.8938 545.972 16.3909C556.792 17.0536 617.348 18.7104 774.423 22.3554C818.272 23.3495 854.418 24.5093 854.785 24.675C855.702 25.3377 849.65 155.14 847.816 175.537C846.899 186.472 845.249 209.189 844.332 226.107C839.748 303.702 839.931 298.713 843.232 303.37C844.882 305.69 846.899 307.015 847.816 306.352C849.467 304.696 852.401 275.849 855.151 233.581C856.252 217.989 857.902 199.101 858.819 191.314C861.753 167.272 865.237 99.1397 865.237 65.3222C865.237 37.1379 864.871 32.3332 862.12 28.3568C860.286 26.0372 858.819 22.8893 858.819 21.3982C858.819 14.1082 836.61 12.617 664.314 8.97202C621.382 7.97793 560.826 6.48679 529.448 5.65838C498.253 4.66429 379.728 3.6702 266.317 3.17315C76.6003 2.47361 44.305 1.97656 20.0988 -0.19571C14.2307 -0.858438 10.9298 -0.361392 9.46279 1.29543H9.44242Z" fill="white"/>
<path fill-rule="evenodd" clip-rule="evenodd" d="M371.659 308.322C370.742 308.654 297.166 309.151 208.349 309.648C85.5859 310.31 43.5715 310.973 33.3022 312.63C20.2822 314.784 15.6773 317.269 20.2822 319.754C22.116 320.748 139.744 320.748 576.25 319.423C686.707 319.092 791.845 318.926 809.836 319.092C833.329 319.257 843.048 318.76 845.066 317.269C849.1 314.287 848.55 312.63 842.865 310.145C838.647 308.157 799.75 307.825 605.612 307.825C477.897 307.825 372.759 307.991 371.659 308.322Z" fill="white"/>
</svg>
