<svg width="147" height="34" viewBox="0 0 147 34" fill="none" xmlns="http://www.w3.org/2000/svg">
<g clip-path="url(#clip0_2001_3754)">
<path d="M33.366 18.0134L35.9066 17.0726V2.99642H33.9638L29.2313 7.38652H28.6833L29.032 2.43895H49.5562L49.8551 7.38652H49.3072L44.6245 2.99642H42.6318V17.0378L45.2222 17.9785V18.4663H33.366V18.0134ZM51.8478 17.3862V1.77695L49.8551 1.21947V0.940737L57.0287 0H57.8257V7.42137L57.9752 7.31684C59.7187 6.30642 61.8608 5.7141 64.1524 5.7141C67.2908 5.7141 68.6856 6.96842 68.6856 9.268V17.3862L70.3794 18.0134V18.4663H60.9641V18.0134L62.6579 17.3862V9.23315C62.6579 7.944 61.8608 7.45621 60.3663 7.45621C59.4696 7.45621 58.573 7.63042 57.8755 8.01368V17.3862L59.5195 18.0134V18.4663H50.1042V18.0482L51.8478 17.3862ZM75.5104 12.578C75.7097 15.1563 77.3536 17.1423 81.2891 17.1423C83.1821 17.1423 84.5271 16.5152 85.7725 16.0622V16.5848C84.0788 18.0482 81.5382 18.8496 78.8481 18.8496C72.7705 18.8496 69.6819 16.4803 69.6819 12.4038C69.6819 8.39694 73.0694 5.92316 78.5492 5.92316C83.7301 5.92316 86.3703 7.73494 86.3703 12.4735V12.578H75.5104ZM75.4108 11.9857L80.7411 11.7418C80.7411 8.53631 79.9441 6.41094 78.3997 6.41094C76.706 6.44579 75.4108 8.91958 75.4108 11.9857ZM-0.0107422 24.703C-0.0107422 17.9088 6.41553 15.5047 13.589 15.5047C16.6278 15.5047 19.5172 15.8532 21.1113 16.3061L21.2607 21.0446H20.5633L16.3787 16.4455C15.5319 16.2016 14.6352 16.097 13.7385 16.1319C9.95247 16.1319 7.95983 19.198 8.05946 24.2501C8.10928 30.2778 9.65357 33.0303 13.1407 33.0303C13.8381 33.0303 14.5854 32.9606 15.233 32.7864V26.3406L12.8418 25.4347V24.8773H24.0006V25.4696L21.7091 26.3755V32.7516C19.019 33.4136 16.1795 33.762 13.2901 33.762C5.17013 33.7271 -0.0107422 31.0791 -0.0107422 24.703ZM22.9545 21.5324V21.1491L30.4269 20.2084L31.2737 20.2433V30.5565C31.2737 31.8108 32.1206 32.1941 33.5653 32.1941C34.5118 32.1941 35.4085 31.9154 36.0063 31.3927V22.1596L33.914 21.5324V21.1143L41.3864 20.2084L42.1336 20.2433V32.0896L44.1761 32.6819V33.0651L36.8531 33.6923L36.1059 33.6575V32.0896H35.9066C34.4122 33.1348 32.4195 33.6923 30.2774 33.7271C26.6907 33.7271 25.0467 32.2289 25.0467 29.999V22.1596L22.9545 21.5324ZM69.931 20.2084L70.5288 20.2433V24.0759H70.6783C71.4753 21.2885 73.2189 20.2433 75.4108 20.2433C75.7097 20.2433 76.0584 20.2781 76.3573 20.3478V24.2153C75.8591 24.1456 75.3112 24.1107 74.813 24.1107C73.4181 24.0759 72.0233 24.2849 70.7281 24.6682V32.2289L72.4218 32.8909V33.4484H62.7077V32.9258L64.4512 32.2638V21.9505L62.4088 21.5324V21.184L69.931 20.2084ZM88.7117 20.522V16.4803L86.6692 15.9925V15.6789L94.2413 14.7034L94.9387 14.773V32.0896L97.031 32.6122V33.0651L89.5585 33.762L88.9608 33.7271V32.2986H88.8113C87.5161 33.2394 85.7227 33.7968 83.8297 33.762C79.7448 33.762 76.8056 31.6018 76.8056 27.142C76.8056 22.4383 80.2429 20.1387 85.4736 20.1387C86.5696 20.1039 87.6655 20.2433 88.7117 20.522ZM88.7117 31.6018V21.2537C88.1637 20.9053 87.4165 20.7659 86.6692 20.8007C84.6268 20.8356 83.3814 22.9958 83.3814 26.7936C83.3814 30.2081 84.278 32.1244 86.9681 32.0547C87.6157 32.0547 88.2135 31.9154 88.7117 31.6018ZM105.201 20.2084L105.848 20.2433V32.2638L107.542 32.9258V33.4484H97.828V32.9258L99.5716 32.2638V22.1247L97.4793 21.5324V21.1143L105.201 20.2084ZM105.898 16.9681C105.848 18.2224 104.354 19.198 102.561 19.1632C101.365 19.198 100.269 18.7799 99.6712 18.083C99.0734 17.3862 99.0734 16.5152 99.6712 15.7835C100.269 15.0866 101.365 14.6685 102.561 14.7034C104.404 14.6685 105.898 15.6789 105.898 16.9681ZM127.718 32.2638V22.0202L125.675 21.5324V21.0446L133.148 20.069L133.895 20.1039V21.6369H134.094C135.887 20.5917 138.129 19.9994 140.471 19.9994C143.709 19.9994 145.153 21.0795 145.153 23.4836V32.2638L146.897 32.9606V33.4484H137.183V32.9258L138.926 32.2638V23.6926C138.926 22.3686 138.129 21.846 136.585 21.846C135.638 21.8111 134.742 22.0202 134.044 22.4035V32.2289L135.738 32.8909V33.4484H126.024V32.9258L127.718 32.2638ZM117.157 25.818V24.1107C117.157 21.5324 116.36 20.6962 114.068 20.6962C113.819 20.6962 113.57 20.731 113.271 20.731L109.186 24.5985H108.638V21.0446C110.83 20.522 113.122 20.2433 115.463 20.2084C120.445 20.2084 123.334 21.184 123.334 24.0759V32.438L125.127 32.7516V33.1C123.981 33.5181 122.736 33.6923 121.441 33.6923C119 33.6923 117.804 33.1348 117.256 32.1941H117.107C116.061 33.1697 114.566 33.7271 112.275 33.7271C109.336 33.7271 107.293 32.438 107.293 30.2081C107.293 28.0479 109.236 26.8633 113.122 26.3406L117.157 25.818ZM117.157 31.6018V26.4451L115.911 26.5148C113.968 26.6194 113.271 27.4904 113.271 29.4416C113.271 31.5321 114.267 32.0896 115.612 32.0896C116.21 32.0896 116.758 31.9502 117.157 31.6018ZM54.0895 25.818V24.1107C54.0895 21.5324 53.2924 20.6962 51.0009 20.6962C50.7518 20.6962 50.5027 20.731 50.2038 20.731L46.1189 24.5985H45.571V21.0446C47.7629 20.522 50.0544 20.2433 52.3958 20.2084C57.3774 20.2084 60.2667 21.184 60.2667 24.0759V32.438L62.0601 32.7516V33.1C60.9143 33.5181 59.6689 33.6923 58.3737 33.6923C55.9327 33.6923 54.7371 33.1348 54.1891 32.1941H54.0397C52.9936 33.1697 51.4991 33.7271 49.2075 33.7271C46.2684 33.7271 44.2259 32.438 44.2259 30.2081C44.2259 28.0479 46.1189 26.8633 50.0544 26.3406L54.0895 25.818ZM54.0895 31.6018V26.4451L52.8441 26.5148C50.9013 26.6194 50.2038 27.4904 50.2038 29.4416C50.2038 31.5321 51.2002 32.0896 52.5452 32.0896C53.0932 32.0896 53.691 31.9502 54.0895 31.6018Z" fill="#232229"/>
</g>
<defs>
<clipPath id="clip0_2001_3754">
<rect width="147" height="34" fill="white"/>
</clipPath>
</defs>
</svg>
