<svg width="198" height="34" viewBox="0 0 198 34" fill="none" xmlns="http://www.w3.org/2000/svg">
<path d="M32.4136 24.1418V8.77351C32.4136 7.97401 32.6637 7.37438 33.195 6.97463C33.6951 6.57488 34.3828 6.375 35.1955 6.375C36.0394 6.375 36.7271 6.57488 37.2272 6.97463C37.7585 7.37438 38.0086 7.97401 38.0086 8.77351V24.1418C38.0086 24.9413 37.7585 25.5631 37.2272 25.9629C36.6958 26.3626 36.0394 26.5625 35.1955 26.5625C34.3828 26.5625 33.7264 26.3626 33.2263 25.9629C32.6949 25.5409 32.4136 24.9413 32.4136 24.1418Z" fill="#232229"/>
<path d="M183.666 26.5403C175.852 26.5403 169.476 22.0098 169.476 16.4576C169.476 10.9055 175.852 6.375 183.666 6.375C191.481 6.375 197.857 10.9055 197.857 16.4576C197.857 22.032 191.512 26.5403 183.666 26.5403ZM183.666 10.4614C179.009 10.4614 175.227 13.1486 175.227 16.4576C175.227 19.7667 179.009 22.4539 183.666 22.4539C188.324 22.4539 192.106 19.7667 192.106 16.4576C192.106 13.1708 188.324 10.4614 183.666 10.4614Z" fill="#232229"/>
<path d="M119.996 26.5403C112.181 26.5403 105.805 22.0098 105.805 16.4576C105.805 10.9055 112.181 6.375 119.996 6.375C127.81 6.375 134.186 10.9055 134.186 16.4576C134.186 22.032 127.81 26.5403 119.996 26.5403ZM119.996 10.4614C115.338 10.4614 111.556 13.1486 111.556 16.4576C111.556 19.7667 115.338 22.4539 119.996 22.4539C124.653 22.4539 128.435 19.7667 128.435 16.4576C128.435 13.1708 124.653 10.4614 119.996 10.4614Z" fill="#232229"/>
<path d="M164.943 16.4576C164.943 14.2368 163.912 12.1714 162.193 10.5058C159.692 8.08505 155.691 6.48604 151.159 6.375C151.003 6.375 150.878 6.375 150.721 6.375H143.595C142.376 6.375 141.501 6.57488 140.969 6.97463C140.438 7.37438 140.156 7.99622 140.156 8.88456V24.0529C140.156 24.9413 140.438 25.5631 140.969 25.9629C141.501 26.3626 142.407 26.5625 143.595 26.5625H150.721C150.878 26.5625 151.003 26.5625 151.159 26.5625C155.691 26.4737 159.661 24.8747 162.193 22.4317C163.912 20.7439 164.943 18.6785 164.943 16.4576ZM151.753 22.4095C151.065 22.4317 150.315 22.4539 149.534 22.4539H145.814V10.4614H149.534C150.315 10.4614 151.065 10.4614 151.753 10.5058C154.222 10.7057 156.348 11.6828 157.692 13.0597C158.629 14.0147 159.192 15.1918 159.192 16.4576C159.192 17.7235 158.629 18.8784 157.692 19.8333C156.348 21.2547 154.222 22.2096 151.753 22.4095Z" fill="#232229"/>
<path d="M97.7719 6.46378C96.7404 6.2417 95.6152 6.53041 95.0213 7.17445L86.4569 16.4354L77.8925 7.17445C77.2986 6.53041 76.1733 6.2417 75.1419 6.46378C74.1104 6.68587 73.3915 7.39654 73.3915 8.17383V24.6303C73.3915 25.6075 74.4855 26.4292 75.8608 26.4292C77.2048 26.4292 78.3301 25.6297 78.3301 24.6303V14.0369L84.3939 20.6106C84.3939 20.6106 84.3939 20.6106 84.3939 20.6328C84.3939 20.6328 84.3939 20.655 84.4252 20.655C84.4565 20.6994 84.4877 20.7438 84.5502 20.766C84.5815 20.7882 84.5815 20.7882 84.6127 20.8104C84.644 20.8327 84.6752 20.8771 84.7065 20.8993C84.7378 20.9215 84.769 20.9437 84.8003 20.9659C84.8315 20.9881 84.8628 20.9881 84.8628 21.0103C84.9253 21.0325 84.9566 21.0547 85.0191 21.0992L85.0503 21.1214C85.1128 21.1436 85.1754 21.1658 85.2066 21.188C85.2379 21.188 85.2379 21.2102 85.2379 21.2102C85.2691 21.2324 85.3316 21.2324 85.3629 21.2546C85.613 21.3435 85.863 21.3879 86.1443 21.4101C86.2068 21.4101 86.2381 21.4101 86.3006 21.4101C86.3319 21.4101 86.3631 21.4101 86.3944 21.4101C86.4256 21.4101 86.4569 21.4101 86.4882 21.4101C86.5507 21.4101 86.5819 21.4101 86.6444 21.4101C86.8945 21.3879 87.1758 21.3435 87.4259 21.2546C87.4571 21.2324 87.5196 21.2324 87.5509 21.2102L87.5822 21.188C87.6447 21.1658 87.7072 21.1436 87.7384 21.1214C87.7697 21.1214 87.7697 21.0992 87.7697 21.0992C87.8322 21.077 87.8635 21.0547 87.926 21.0103C87.9572 20.9881 87.9885 20.9881 87.9885 20.9659C88.0198 20.9437 88.051 20.9215 88.0823 20.8993C88.1135 20.8771 88.1448 20.8549 88.176 20.8104C88.2073 20.7882 88.2073 20.7882 88.2385 20.766C88.2698 20.7216 88.3323 20.6994 88.3636 20.655L88.3948 20.6328C88.3948 20.6328 88.3948 20.6328 88.3948 20.6106L94.4587 14.0369V24.6303C94.4587 25.6075 95.5527 26.4292 96.928 26.4292C98.272 26.4292 99.3973 25.6297 99.3973 24.6303V8.17383C99.5223 7.39654 98.8034 6.68587 97.7719 6.46378Z" fill="#232229"/>
<path d="M65.0146 25.9407H46.6042C45.6353 25.9407 44.5725 25.5187 44.1662 24.8524C43.7598 24.1862 43.6973 23.2756 44.5413 22.5428L59.5759 10.1282H47.1356C45.7916 10.1282 44.6663 9.28431 44.6663 8.26272C44.6663 7.24113 45.7603 6.59708 47.1356 6.59708H63.8894C64.8583 6.59708 65.8586 6.70813 66.7337 7.39659C67.5464 8.01843 67.4839 9.37314 66.6087 10.1726L52.0742 22.2096H65.0146C66.3899 22.2096 67.3589 23.0536 67.3589 24.0751C67.3589 25.0967 66.3899 25.9407 65.0146 25.9407Z" fill="#232229"/>
<path d="M14.0969 26.5403C10.0022 26.5403 6.31392 25.3854 3.65707 23.2978C1.34405 21.4768 0 19.056 0 16.6575C0 9.17327 8.75197 6.375 14.2845 6.375C19.7232 6.375 23.6928 8.26272 23.8804 8.35155C25.0994 8.95118 25.4432 10.1282 24.5993 11.0166C23.7866 11.9049 22.13 12.127 20.911 11.5496C20.8484 11.5274 18.0041 10.2171 14.2845 10.2171C10.8149 10.2171 6.03261 11.8383 6.03261 16.6575C6.03261 19.3892 8.90825 22.6316 14.1594 22.6316C17.1289 22.6316 19.1918 22.0764 20.4108 21.5212V18.6785H16.3474C14.8783 18.6785 13.6906 17.8124 13.6906 16.7686C13.6906 15.7026 14.8783 14.8586 16.3474 14.8586H23.1302C24.5993 14.8586 25.7871 15.7248 25.7871 16.7686V22.4761C25.7871 22.9869 25.5057 23.4977 24.9744 23.8531C23.1927 25.0967 19.2543 26.5403 14.0969 26.5403Z" fill="#232229"/>
</svg>
