<svg width="123" height="125" viewBox="0 0 123 125" fill="none" xmlns="http://www.w3.org/2000/svg">
<g clip-path="url(#clip0_2001_3597)">
<path fill-rule="evenodd" clip-rule="evenodd" d="M85.7688 16.6386C81.8287 19.6275 76.1009 27.9348 77.7047 28.374C79.135 28.7656 87.0295 20.5424 87.4201 18.2649C87.695 16.7505 86.8215 15.8567 85.7674 16.6435L85.7688 16.6386Z" fill="black"/>
<path fill-rule="evenodd" clip-rule="evenodd" d="M29.7444 2.79466C29.0298 5.40431 30.6319 18.2902 31.6722 18.575C32.409 18.7768 32.5791 18.496 33.0802 16.1553C33.5695 13.858 33.0834 4.74272 32.3994 3.6671C31.6526 2.48077 29.9742 1.97443 29.7479 2.80081L29.7444 2.79466Z" fill="black"/>
<path fill-rule="evenodd" clip-rule="evenodd" d="M64.5506 41.0014C63.126 41.7801 54.9072 48.4651 40.1991 60.8125C36.6848 63.7777 34.7768 65.1306 34.6624 64.6785C34.5724 64.3266 34.5611 61.9857 34.5868 59.5096C34.6403 50.6356 32.9207 35.2863 31.6938 33.6412C30.8245 32.5616 29.2285 32.2648 28.4463 33.0793C28.0553 33.4865 26.9649 36.7881 25.8918 40.7074C22.3521 53.6348 14.8947 68.1078 4.82571 81.7202C3.80208 83.0763 4.03209 84.4485 5.33239 84.8045C5.67913 84.8994 6.25783 85.3384 6.52121 85.7378C6.82794 86.1491 8.41447 87.3316 10.0367 88.3836C14.0067 90.92 19.5313 95.7575 25.1034 101.631C31.3234 108.202 31.6268 108.285 38.0575 104.898C47.7556 99.7868 55.8873 96.8236 69.8007 93.3342C74.0565 92.2553 78.0584 91.1016 78.7648 90.734C80.2328 89.9671 80.6691 88.5436 79.828 87.1912C79.2503 86.2382 78.5134 86.0364 70.5487 84.1361C65.7718 83.0152 59.4232 81.6976 56.3877 81.1938C53.4122 80.6596 50.7396 80.0213 50.4839 79.7643C49.9723 79.2502 50.6807 77.8544 60.6039 59.3292C68.0722 45.3268 68.8086 43.6582 68.26 41.9183C67.7308 40.2773 66.5172 39.945 64.552 40.9965L64.5506 41.0014ZM55.2861 61.9044C50.8182 70.2243 46.9666 77.8245 46.7046 78.7814C46.3354 80.1297 46.4406 80.7663 47.1917 81.7668C48.2062 83.1667 46.9374 82.8661 61.3746 85.6503C65.0436 86.3743 69.257 87.341 70.7502 87.8434L73.5318 88.7453L67.3187 90.3169C63.9188 91.1627 58.4456 92.7551 55.2148 93.8341C50.0463 95.5048 47.4805 96.5374 39.3556 100.157C38.3415 100.627 37.7185 100.691 37.6285 100.339C37.1622 98.8084 18.6376 79.7928 14.7363 76.8543L13.1183 75.6165L14.2568 74.0112C16.4112 70.9075 21.4535 61.8514 23.386 57.7051C24.4311 55.4197 26.2983 50.6425 27.5783 47.159L29.8428 40.7606L30.5094 48.1954C30.8408 52.2603 31.1355 58.3308 31.1121 61.6492C31.0724 69.4516 31.854 71.0215 35.0039 69.406C35.7536 69.0502 41.6271 64.2945 48.1001 58.8615C63.4994 45.8617 63.365 46.012 63.3879 46.439C63.3836 46.6249 59.754 53.5846 55.2861 61.9044ZM16.098 81.5806C17.172 82.763 17.8722 83.6093 17.6793 83.463C16.7462 82.7867 11.4898 78.8227 11.3402 78.6882C11.2774 78.5775 11.4279 78.1979 11.7085 77.8539C12.1471 77.2727 12.2338 77.2965 13.1583 78.3444C13.6894 78.9574 15.0192 80.3968 16.0932 81.5793L16.098 81.5806ZM22.7513 93.8858C22.9518 94.1745 21.3143 92.8378 19.1291 90.9303C16.9486 89.0241 13.6645 86.5353 11.806 85.3251C9.93563 84.1584 8.35672 83.1182 8.32528 83.0629C8.26242 82.9521 8.63825 82.2602 9.16792 81.5169L10.093 80.1805L16.2577 86.7829C19.658 90.379 22.6034 93.5752 22.7487 93.8955L22.7513 93.8858ZM30.2926 96.6521C33.3151 99.3966 35.74 101.79 35.6923 101.964C35.6447 102.138 35.1669 102.522 34.6697 102.807C33.7661 103.214 33.2427 102.743 27.8538 96.5402C24.6794 92.8189 21.9458 89.6807 21.8949 89.5265C21.5491 88.9175 25.1427 91.9587 30.2939 96.6472L30.2926 96.6521ZM31.4793 102.868C31.9942 103.71 29.637 101.429 28.8979 100.385C28.5283 99.8626 28.8945 100.056 29.6933 100.883C30.5039 101.666 31.3341 102.548 31.4793 102.868Z" fill="black"/>
<path fill-rule="evenodd" clip-rule="evenodd" d="M99.0141 88.4755C91.6619 87.9118 89.4342 88.0499 89.7356 89.161C89.9709 89.8333 94.4715 91.1123 98.8306 91.6981C102.189 92.1967 104.497 91.6131 104.866 90.2648C105.164 89.1775 104.309 88.8966 99.0141 88.4755Z" fill="black"/>
</g>
<defs>
<clipPath id="clip0_2001_3597">
<rect width="99" height="102" fill="white" transform="translate(26.9375) rotate(15.3129)"/>
</clipPath>
</defs>
</svg>
