<svg width="121" height="74" viewBox="0 0 121 74" fill="none" xmlns="http://www.w3.org/2000/svg">
<g clip-path="url(#clip0_2001_3609)">
<path fill-rule="evenodd" clip-rule="evenodd" d="M0.862969 0.619011C-0.431683 1.99772 -0.234671 4.33621 1.22885 4.92708C3.73372 5.96815 5.93213 3.32328 4.49675 0.984791C3.95888 0.112548 3.76187 0 2.66423 0C1.73545 0 1.25699 0.168821 0.862969 0.619011Z" fill="black"/>
<path fill-rule="evenodd" clip-rule="evenodd" d="M23.2788 2.44799C23.1662 2.5324 23.0818 3.40465 23.0818 4.3613C23.0818 8.10663 21.8153 12.4147 20.039 14.7782C17.9282 17.5669 14.2381 19.5646 10.4917 19.9022C9.00007 20.0429 8.71863 20.1555 8.71863 20.6057C8.71863 21.3091 9.95699 21.7593 11.5362 21.5905C13.9567 21.3091 18.0408 23.1098 19.423 25.0544C20.2955 26.2924 21.0272 28.7716 21.6745 32.7389C22.2093 36.0059 22.5189 36.8782 23.1943 36.8782C23.9824 36.85 24.2638 36.231 24.6297 33.583C25.5585 26.9677 27.5036 24.4323 33.1919 22.4908C35.0213 21.8437 36.0377 21.2247 36.0377 20.7463C36.0377 19.9867 35.4748 19.649 33.3608 19.1144C29.1641 18.0452 27.7569 16.8072 26.6311 13.2307C25.9275 11.0079 25.055 6.13705 25.055 4.38944C25.055 3.79856 24.9143 3.09514 24.7736 2.78564C24.4921 2.25104 23.6478 2.05408 23.2819 2.44799H23.2788ZM25.4209 15.8224C26.0964 17.4262 27.9821 19.2864 29.702 20.0179C30.5464 20.3837 31.25 20.7495 31.25 20.8339C31.25 20.9183 30.5464 21.3403 29.702 21.7624C26.997 23.0848 24.8299 25.4515 23.7885 28.237L23.2819 29.5876L22.6627 27.4773C21.7058 24.1259 20.1016 22.2407 17.1433 20.9183L16.0738 20.44L17.5373 19.624C20.2423 18.0765 22.522 15.1752 23.7885 11.6831C23.9574 11.2611 24.1262 11.5425 24.4921 12.9493C24.7454 13.9622 25.1676 15.2565 25.4209 15.8224Z" fill="black"/>
<path fill-rule="evenodd" clip-rule="evenodd" d="M88.8964 4.53317C88.6149 4.70199 88.4179 5.15218 88.4179 5.71492C88.4179 7.1499 87.6299 10.0793 86.8418 11.6549C85.716 13.9059 85.2094 14.3311 83.3769 14.4155C81.9134 14.4999 81.8008 14.5562 81.8008 15.2033C81.8008 15.766 82.0259 15.963 83.208 16.3851C85.0656 17.0322 86.1945 18.3546 87.461 21.4247C88.6149 24.1852 88.9245 24.5791 89.8814 24.4385C90.4443 24.354 90.585 24.0727 90.9791 22.2438C91.2042 21.0902 91.6264 19.7396 91.8797 19.23C92.4426 18.1889 94.2438 16.6414 95.9638 15.7942C97.7932 14.8657 97.5399 13.7965 95.4009 13.4025C93.2056 13.0086 91.936 11.2641 90.9228 7.2093C90.3036 4.67698 89.797 4.02671 88.8964 4.53317ZM92.2456 14.1622C92.7803 14.4999 93.2025 14.8657 93.2025 14.9782C93.2025 15.0908 92.7803 15.5128 92.2456 15.9067C91.1198 16.7508 89.8814 18.4672 89.5687 19.5958L89.3435 20.4118L88.6118 18.9486C88.1896 18.1327 87.486 17.0635 87.0075 16.5289L86.1913 15.5722L87.1483 14.6437C87.683 14.1372 88.4429 12.9273 88.8651 11.9676L89.625 10.2231L90.4693 11.8832C90.9759 12.9242 91.6514 13.7965 92.2424 14.1622H92.2456Z" fill="black"/>
<path fill-rule="evenodd" clip-rule="evenodd" d="M62.6781 23.9882C62.6218 24.1851 62.4248 26.014 62.256 28.043C61.5523 36.2652 59.0725 41.7832 53.8907 46.7384C50.7354 49.7241 48.0335 50.9339 44.4279 50.9621C42.6829 50.9621 42.4859 51.159 43.3584 51.9469C43.7243 52.2845 44.653 52.5096 46.3167 52.6784C52.4835 53.2974 56.0329 55.0701 58.2844 58.5903C59.5228 60.5036 61.2146 65.4026 62.1152 69.7388C62.5093 71.7083 62.9877 73.5122 63.1566 73.7092C63.3254 73.9061 63.7758 74.0468 64.1698 73.9906C64.986 73.9061 64.9015 74.2719 65.6052 67.9661C65.971 64.5303 67.0124 60.5067 68.0256 58.5059C69.7706 55.0701 72.954 52.8472 77.6573 51.778C81.4037 50.9058 81.5163 50.8777 81.6007 50.1742C81.7133 49.3864 80.7845 48.9925 78.755 48.9925C77.9388 48.9925 76.5034 48.7955 75.5152 48.5704C69.2358 47.0792 67.1218 43.3339 65.4332 30.5535C64.5325 23.8819 64.5325 23.8256 63.5475 23.7131C63.0972 23.6568 62.7313 23.7693 62.675 23.9944L62.6781 23.9882ZM65.3237 40.9078C66.7872 45.7505 69.1545 48.5079 73.0103 49.9742L74.3331 50.4806L72.8696 51.1559C68.3633 53.238 65.38 57.518 64.2229 63.4861C64.0259 64.4146 63.8289 65.4838 63.7445 65.8496C63.6319 66.3279 63.2942 65.5682 62.4217 63.0328C61.7744 61.0914 60.8737 58.8936 60.4234 58.1339C58.7066 55.2045 56.3112 53.263 53.0183 52.0813L51.2451 51.4342L52.8775 50.3368C55.0165 48.8456 56.061 47.8326 58.0874 45.3253C59.9731 42.9618 61.9464 39.1321 62.8188 36.1746C63.1284 35.0772 63.4662 34.008 63.5506 33.7829C63.635 33.5579 63.9446 34.5989 64.2261 36.1183C64.4794 37.6377 64.986 39.8074 65.3237 40.9047V40.9078Z" fill="black"/>
<path fill-rule="evenodd" clip-rule="evenodd" d="M115.815 43.0683C113.166 43.7154 111.281 46.3634 111.872 48.6425C112.66 51.8814 116.406 53.4289 118.995 51.6C120.797 50.3057 121.557 47.0106 120.543 44.8722C119.727 43.1277 118.123 42.5368 115.812 43.0714L115.815 43.0683Z" fill="black"/>
</g>
<defs>
<clipPath id="clip0_2001_3609">
<rect width="121" height="74" fill="white"/>
</clipPath>
</defs>
</svg>
