<svg width="238" height="4" viewBox="0 0 238 4" fill="none" xmlns="http://www.w3.org/2000/svg">
<g clip-path="url(#clip0_2001_3618)">
<path fill-rule="evenodd" clip-rule="evenodd" d="M25.3652 3.78523C21.5871 3.61339 14.6927 3.44156 10.1096 3.3986C1.48177 3.35564 0.0149839 3.09788 0.0149839 1.63249C0.0149839 -0.386606 -2.03457 -0.343646 46.2657 0.73034C75.3101 1.37473 207.578 1.9332 223.411 1.50361C234.884 1.20289 238.045 1.37473 238 2.27688C237.956 3.00719 211.672 3.78046 203.489 3.30791C199.577 3.09311 195.839 2.83535 195.172 2.70647C194.55 2.62055 170.933 2.83535 142.693 3.17903C78.7326 4.00003 34.3487 4.21483 25.3652 3.78523Z" fill="black"/>
</g>
<defs>
<clipPath id="clip0_2001_3618">
<rect width="238" height="4" fill="white" transform="matrix(1 0 0 -1 0 4)"/>
</clipPath>
</defs>
</svg>
