<svg width="168" height="25" viewBox="0 0 168 25" fill="none" xmlns="http://www.w3.org/2000/svg">
<path d="M15.3125 0.84375L18.3594 7.07812L25.0625 8.0625C25.625 8.15625 26.0938 8.53125 26.2812 9.09375C26.4688 9.60938 26.3281 10.2188 25.9062 10.5938L21.0312 15.4219L22.2031 22.2656C22.2969 22.8281 22.0625 23.3906 21.5938 23.7188C21.125 24.0938 20.5156 24.0938 20 23.8594L14 20.625L7.95312 23.8594C7.48438 24.0938 6.875 24.0938 6.40625 23.7188C5.9375 23.3906 5.70312 22.8281 5.79688 22.2656L6.92188 15.4219L2.04688 10.5938C1.67188 10.2188 1.53125 9.60938 1.67188 9.09375C1.85938 8.53125 2.32812 8.15625 2.89062 8.0625L9.64062 7.07812L12.6406 0.84375C12.875 0.328125 13.3906 0 14 0C14.5625 0 15.0781 0.328125 15.3125 0.84375Z" fill="#8BCDA6"/>
<path d="M50.3125 0.84375L53.3594 7.07812L60.0625 8.0625C60.625 8.15625 61.0938 8.53125 61.2812 9.09375C61.4688 9.60938 61.3281 10.2188 60.9062 10.5938L56.0312 15.4219L57.2031 22.2656C57.2969 22.8281 57.0625 23.3906 56.5938 23.7188C56.125 24.0938 55.5156 24.0938 55 23.8594L49 20.625L42.9531 23.8594C42.4844 24.0938 41.875 24.0938 41.4062 23.7188C40.9375 23.3906 40.7031 22.8281 40.7969 22.2656L41.9219 15.4219L37.0469 10.5938C36.6719 10.2188 36.5312 9.60938 36.6719 9.09375C36.8594 8.53125 37.3281 8.15625 37.8906 8.0625L44.6406 7.07812L47.6406 0.84375C47.875 0.328125 48.3906 0 49 0C49.5625 0 50.0781 0.328125 50.3125 0.84375Z" fill="#8BCDA6"/>
<path d="M85.3125 0.84375L88.3594 7.07812L95.0625 8.0625C95.625 8.15625 96.0938 8.53125 96.2812 9.09375C96.4688 9.60938 96.3281 10.2188 95.9062 10.5938L91.0312 15.4219L92.2031 22.2656C92.2969 22.8281 92.0625 23.3906 91.5938 23.7188C91.125 24.0938 90.5156 24.0938 90 23.8594L84 20.625L77.9531 23.8594C77.4844 24.0938 76.875 24.0938 76.4062 23.7188C75.9375 23.3906 75.7031 22.8281 75.7969 22.2656L76.9219 15.4219L72.0469 10.5938C71.6719 10.2188 71.5312 9.60938 71.6719 9.09375C71.8594 8.53125 72.3281 8.15625 72.8906 8.0625L79.6406 7.07812L82.6406 0.84375C82.875 0.328125 83.3906 0 84 0C84.5625 0 85.0781 0.328125 85.3125 0.84375Z" fill="#8BCDA6"/>
<path d="M120.312 0.84375L123.359 7.07812L130.062 8.0625C130.625 8.15625 131.094 8.53125 131.281 9.09375C131.469 9.60938 131.328 10.2188 130.906 10.5938L126.031 15.4219L127.203 22.2656C127.297 22.8281 127.062 23.3906 126.594 23.7188C126.125 24.0938 125.516 24.0938 125 23.8594L119 20.625L112.953 23.8594C112.484 24.0938 111.875 24.0938 111.406 23.7188C110.938 23.3906 110.703 22.8281 110.797 22.2656L111.922 15.4219L107.047 10.5938C106.672 10.2188 106.531 9.60938 106.672 9.09375C106.859 8.53125 107.328 8.15625 107.891 8.0625L114.641 7.07812L117.641 0.84375C117.875 0.328125 118.391 0 119 0C119.562 0 120.078 0.328125 120.312 0.84375Z" fill="#8BCDA6"/>
<path d="M155.312 0.84375L158.359 7.07812L165.062 8.0625C165.625 8.15625 166.094 8.53125 166.281 9.09375C166.469 9.60938 166.328 10.2188 165.906 10.5938L161.031 15.4219L162.203 22.2656C162.297 22.8281 162.062 23.3906 161.594 23.7188C161.125 24.0938 160.516 24.0938 160 23.8594L154 20.625L147.953 23.8594C147.484 24.0938 146.875 24.0938 146.406 23.7188C145.938 23.3906 145.703 22.8281 145.797 22.2656L146.922 15.4219L142.047 10.5938C141.672 10.2188 141.531 9.60938 141.672 9.09375C141.859 8.53125 142.328 8.15625 142.891 8.0625L149.641 7.07812L152.641 0.84375C152.875 0.328125 153.391 0 154 0C154.562 0 155.078 0.328125 155.312 0.84375Z" fill="#8BCDA6"/>
</svg>
