<svg width="124" height="8" viewBox="0 0 124 8" fill="none" xmlns="http://www.w3.org/2000/svg">
<path fill-rule="evenodd" clip-rule="evenodd" d="M93.8595 0.809029C92.4823 1.24958 90.6255 1.85235 89.778 2.13053C87.8976 2.73337 87.4467 2.66599 85.0271 1.41157C83.354 0.544882 83.1418 0.499672 81.5749 0.596578C80.3291 0.669489 79.2695 0.948351 77.1484 1.80444C73.6241 3.23888 72.7228 3.26477 70.0413 2.103C66.9055 0.736159 65.9511 0.762218 61.0487 2.3618C59.698 2.80227 58.2911 3.15111 57.9199 3.15232C57.5487 3.15353 56.3812 2.83602 55.3164 2.42637C52.9274 1.53906 50.9359 1.4767 48.7645 2.2641C47.97 2.5421 46.54 3.02873 45.5836 3.33021C43.4913 3.97965 42.9841 3.84359 40.4064 1.97001C38.0677 0.256307 37.4815 0.258216 33.7224 1.96883C32.0281 2.73173 30.5952 3.24132 30.065 3.24304C29.5347 3.24477 28.6323 2.9264 27.62 2.35592C24.2971 0.507714 23.2898 0.556897 18.8669 2.8664C14.9997 4.87572 14.3373 4.99519 12.5576 3.94269C10.3794 2.64158 9.63329 2.39155 7.98956 2.3969C5.84212 2.4039 3.56231 3.37526 1.52675 5.17461C0.525021 6.02706 -0.0294816 6.71739 0.0242892 6.94673C0.185975 7.74949 1.16608 7.49383 3.2854 6.08692C5.71924 4.47243 7.65551 3.8439 8.87633 4.23264C9.30096 4.36896 10.3897 4.89329 11.2927 5.39527C14.0314 6.94701 15.4361 6.80473 19.4086 4.5885C21.605 3.342 23.0113 2.7866 23.8331 2.76097C24.2837 2.73655 25.3721 3.14612 26.5435 3.73903C28.2696 4.6285 28.6412 4.74204 30.1022 4.73728C31.5633 4.73252 32.0106 4.59336 34.3961 3.5069C35.8522 2.85953 37.2584 2.30413 37.4705 2.30344C37.6826 2.30274 38.5592 2.82776 39.4097 3.46762C41.5093 5.04439 42.2821 5.36319 44.0054 5.35758C45.0923 5.33109 46.1519 5.07518 48.141 4.38017C49.6239 3.84747 51.2427 3.40613 51.7729 3.4044C52.3031 3.40267 53.5501 3.69698 54.5618 4.08385C57.166 5.01635 58.677 4.98848 61.8286 3.94542C63.1792 3.48201 64.9305 3.04024 65.6991 2.96888C66.9713 2.84998 67.3161 2.91771 69.496 3.8057C71.6993 4.69361 72.0207 4.76142 73.5315 4.66469C74.7508 4.56892 75.8897 4.24389 77.9579 3.41092C81.5352 1.97631 82.251 1.95103 84.6943 3.25128C87.2467 4.57412 88.3866 4.54746 92.3619 3.1804C97.6084 1.37314 97.6614 1.37297 101.354 2.6921C104.409 3.76084 106.291 3.75471 110.321 2.63994C111.936 2.19861 113.661 1.82578 114.139 1.82423C114.616 1.82267 116.075 2.27694 117.459 2.84621C120.223 4.0077 121.549 4.14109 122.554 3.40339C123.109 3.01141 123.136 2.91952 122.79 2.71409C122.578 2.60002 122.127 2.48674 121.809 2.48778C121.49 2.48881 120.031 1.96569 118.567 1.30488C115.166 -0.198802 114.026 -0.24099 109.414 0.99043C107.692 1.47801 105.835 1.85127 105.304 1.853C104.774 1.85473 103.341 1.49218 102.091 1.03723C98.7699 -0.168353 97.0995 -0.208814 93.8654 0.81156L93.8595 0.809029Z" fill="black"/>
</svg>
