<svg width="52" height="50" viewBox="0 0 52 50" fill="none" xmlns="http://www.w3.org/2000/svg">
<rect x="1" y="1" width="50" height="48" rx="24" stroke="#232229" stroke-width="2"/>
<path d="M18.3828 24.25C17.7578 24.25 17.25 23.7422 17.25 23.1172C17.25 23.0391 17.25 23 17.25 22.9219C17.4453 22.1016 19.0469 16.75 26 16.75C32.9141 16.75 34.5156 22.1016 34.7109 22.9219C34.7109 23 34.75 23.0391 34.75 23.1172C34.75 23.7422 34.2422 24.25 33.5781 24.25H18.3828ZM21.625 20.5C21.625 20.1875 21.3125 19.875 21 19.875C20.6484 19.875 20.375 20.1875 20.375 20.5C20.375 20.8516 20.6484 21.125 21 21.125C21.3125 21.125 21.625 20.8516 21.625 20.5ZM31 21.125C31.3125 21.125 31.625 20.8516 31.625 20.5C31.625 20.1875 31.3125 19.875 31 19.875C30.6484 19.875 30.375 20.1875 30.375 20.5C30.375 20.8516 30.6484 21.125 31 21.125ZM26.625 19.25C26.625 18.9375 26.3125 18.625 26 18.625C25.6484 18.625 25.375 18.9375 25.375 19.25C25.375 19.6016 25.6484 19.875 26 19.875C26.3125 19.875 26.625 19.6016 26.625 19.25ZM16.625 27.375C16.625 26.3594 17.4453 25.5 18.5 25.5H33.5C34.5156 25.5 35.375 26.3594 35.375 27.375C35.375 28.4297 34.5156 29.25 33.5 29.25H18.5C17.4453 29.25 16.625 28.4297 16.625 27.375ZM17.25 31.125C17.25 30.8125 17.5234 30.5 17.875 30.5H34.125C34.4375 30.5 34.75 30.8125 34.75 31.125V31.75C34.75 33.1562 33.6172 34.25 32.25 34.25H19.75C18.3438 34.25 17.25 33.1562 17.25 31.75V31.125Z" fill="#232229"/>
</svg>
