<svg width="142" height="10" viewBox="0 0 142 10" fill="none" xmlns="http://www.w3.org/2000/svg">
<g clip-path="url(#clip0_2001_3685)">
<path fill-rule="evenodd" clip-rule="evenodd" d="M34.1694 1.21427C20.5862 1.62917 2.0045 3.03342 0.647286 3.73555C-0.0809754 4.11853 -0.246489 5.20363 0.415567 5.42704C0.614183 5.49087 1.57416 5.52278 2.46794 5.45895C10.5818 4.85257 24.6615 3.99087 30.6237 3.73555C39.933 3.32066 63.8111 3.38449 59.4415 3.79938C46.3255 5.01215 38.3109 6.16108 32.3818 7.66463C29.866 8.30293 29.6343 8.43058 29.6343 9.16463V9.9625L36.093 9.89867C39.6387 9.86676 46.8919 9.64335 52.1589 9.35612C80.6457 7.85612 110.655 7.66463 128.008 8.84548C138.278 9.51569 141.621 9.61144 141.919 9.16463C143.276 7.05824 127.744 5.93768 98.0321 5.93768C79.4503 5.96959 70.1742 6.22491 52.3244 7.24619C39.5725 7.98023 38.0829 7.98023 42.7173 7.24619C51.3608 5.84193 80.311 3.60434 94.5526 3.25328C98.4955 3.15754 101.64 2.93413 101.806 2.77456C102.037 2.55115 102.037 2.26392 101.806 1.88094C101.475 1.40222 100.614 1.30647 95.6781 1.1469C87.5936 0.859663 43.8722 0.923493 34.1694 1.21427Z" fill="black"/>
</g>
<defs>
<clipPath id="clip0_2001_3685">
<rect width="142" height="9" fill="white" transform="translate(0 0.962524)"/>
</clipPath>
</defs>
</svg>
