<svg width="30" height="31" viewBox="0 0 30 31" fill="none" xmlns="http://www.w3.org/2000/svg">
<g clip-path="url(#clip0_2001_3742)">
<path d="M15 0.405029C6.7158 0.405029 0 7.12083 0 15.405C0 22.4394 4.8432 28.3422 11.3766 29.9634V19.989H8.2836V15.405H11.3766V13.4298C11.3766 8.32443 13.6872 5.95803 18.6996 5.95803C19.65 5.95803 21.2898 6.14463 21.9606 6.33063V10.4856C21.6066 10.4484 20.9916 10.4298 20.2278 10.4298C17.7684 10.4298 16.818 11.3616 16.818 13.7838V15.405H21.7176L20.8758 19.989H16.818V30.2952C24.2454 29.3982 30.0006 23.0742 30.0006 15.405C30 7.12083 23.2842 0.405029 15 0.405029Z" fill="white"/>
</g>
<defs>
<clipPath id="clip0_2001_3742">
<rect width="30" height="30" fill="white" transform="translate(0 0.405029)"/>
</clipPath>
</defs>
</svg>
