<svg width="133" height="140" viewBox="0 0 133 140" fill="none" xmlns="http://www.w3.org/2000/svg">
<g clip-path="url(#clip0_2001_3426)">
<path fill-rule="evenodd" clip-rule="evenodd" d="M88.4212 48.463C85.6234 49.437 82.3155 54.2117 83.7198 55.2796C84.2574 55.6926 84.7828 55.3511 87.4891 52.9856L90.6589 50.2151L89.9424 49.1933C89.455 48.5011 89.0299 48.2841 88.4212 48.463Z" fill="black"/>
<path fill-rule="evenodd" clip-rule="evenodd" d="M106.648 85.8289C102.963 86.4606 85.5914 90.1017 77.3251 91.9644C72.7602 93.0116 70.9629 94.0528 71.8962 95.1205C72.8294 96.1882 75.681 95.8145 89.0082 93.0008C104.916 89.6382 108.206 88.8229 110.049 87.565C111.363 86.7111 111.471 86.4985 110.946 85.8979C110.509 85.3975 109.316 85.3801 106.648 85.8289Z" fill="black"/>
<path fill-rule="evenodd" clip-rule="evenodd" d="M76.0129 61.0219C74.2828 61.0626 57.206 74.3407 56.0834 76.5578C55.253 78.1665 56.2698 78.9258 58.1795 78.0806C59.6014 77.4852 69.9474 69.4427 75.3855 64.7484C77.6878 62.7361 77.8296 62.4944 77.3756 61.773C77.1216 61.3476 76.4839 61.0221 76.0129 61.0219Z" fill="black"/>
<path fill-rule="evenodd" clip-rule="evenodd" d="M44.7319 36.8903C43.6397 36.7855 42.5465 38.565 41.9494 41.3234C39.4496 53.285 39.059 65.6396 41.1004 67.9752C42.646 69.7436 43.2222 68.1806 43.2707 62.3703C43.2873 56.4637 43.8192 50.9371 45.0783 43.8856C46.0981 38.1092 46.0454 36.9716 44.7323 36.8833L44.7319 36.8903Z" fill="black"/>
<path fill-rule="evenodd" clip-rule="evenodd" d="M97.9788 119.028C88.6516 117.051 79.4653 115.833 77.9856 116.303C76.3469 116.852 76.1213 117.873 77.4465 118.716C77.9257 119.063 81.0561 119.681 84.4228 120.159C87.7826 120.636 93.5669 121.59 97.3184 122.313C102.59 123.362 104.22 123.468 104.695 122.934C105.104 122.459 105.079 121.892 104.65 121.267C104.134 120.541 102.538 119.994 97.9825 119.025L97.9788 119.028Z" fill="black"/>
<path fill-rule="evenodd" clip-rule="evenodd" d="M4.37737 38.889C3.31438 38.8176 2.73876 39.4384 2.98417 40.4599C3.07981 40.906 6.09897 45.1009 9.61487 49.7968C13.1674 54.4673 17.3239 59.9635 18.8194 62.0111C21.9011 66.2102 23.0387 67.0404 23.644 65.5108C23.836 64.9898 23.8907 64.177 23.7992 63.6683C23.5538 62.6469 10.8178 45.4495 7.34737 41.479C6.00586 39.9441 4.81832 38.9222 4.38061 38.8927L4.37737 38.889Z" fill="black"/>
</g>
<defs>
<clipPath id="clip0_2001_3426">
<rect width="129.807" height="62.1977" fill="white" transform="translate(47.4597 0.559204) rotate(48.8448)"/>
</clipPath>
</defs>
</svg>
