<svg width="113" height="163" viewBox="0 0 113 163" fill="none" xmlns="http://www.w3.org/2000/svg">
<g clip-path="url(#clip0_2001_3423)">
<path fill-rule="evenodd" clip-rule="evenodd" d="M105.265 1.09252C103.885 1.90536 98.8601 10.6661 97.543 14.5427C96.9785 16.231 96.1632 19.9826 95.7869 22.8032L95.0969 27.9929H91.271C74.3298 27.9929 59.514 44.4444 56.5034 66.5303C56.1271 69.2815 55.7508 72.4148 55.6881 73.6028C55.4999 75.7287 55.4372 75.7912 51.674 76.5415C36.677 79.5428 22.6208 95.8762 17.9099 115.642C15.4638 125.84 14.7739 132.468 14.7112 145.613C14.7112 158 15.3384 162.502 17.1573 162.502C17.7844 162.502 18.0353 159.501 18.3489 149.802C19.2897 118.643 24.1191 102.879 36.677 90.1793C41.9455 84.8645 48.4753 80.9184 53.4929 80.1056C55.6881 79.7929 55.8135 79.8554 55.8135 81.4186C55.8135 84.7325 57.8205 92.8054 59.5767 96.4945C62.6499 102.942 68.0508 107.444 72.6293 107.444C77.2079 107.444 81.5425 101.747 81.5425 95.5566C81.5425 87.046 73.1311 77.9102 63.9671 76.472C58.3223 75.5341 58.7613 75.9718 59.2004 71.0947C60.8311 54.7058 69.4934 40.2482 81.1035 34.6208C84.9294 32.745 90.9574 31.4944 93.4662 32.0572C95.2851 32.4323 95.536 32.8075 96.2886 36.7467C97.3549 41.8739 101.683 47.7584 105.578 49.1965C108.275 50.2594 109.718 50.0093 111.348 48.3211C113.669 46.0076 113.544 41.6238 110.972 37.8096C108.902 34.6833 104.568 31.1749 100.804 29.6117C98.8601 28.8614 98.4838 28.4237 98.7347 27.2357C98.9228 26.4228 99.2364 24.2969 99.4246 22.4836C99.9264 18.0442 101.557 13.7855 105.39 7.15762C107.083 4.15633 108.526 1.40515 108.526 1.08557C108.526 0.27272 106.644 0.335247 105.265 1.08557V1.09252ZM106.268 38.7614C111.411 44.771 109.216 48.7102 103.634 43.451C101.94 41.7627 99.118 36.1284 99.118 34.19C99.118 33.002 104.01 36.1284 106.275 38.7545L106.268 38.7614ZM64.5943 80.6127C71.4377 82.3009 77.7724 89.6235 77.7724 95.8762C77.7724 100.065 74.95 103.699 71.6816 103.699C69.2355 103.699 65.3399 100.51 62.9566 96.5015C61.2004 93.4377 58.9425 85.1772 58.9425 81.6757C58.9425 79.0495 58.5662 79.1121 64.5873 80.6127H64.5943Z" fill="black"/>
<path fill-rule="evenodd" clip-rule="evenodd" d="M1.21263 119.47C0.836313 121.658 0.334555 127.605 0.146396 132.795C-0.229922 142.431 -0.041763 143.744 2.78062 153.443C5.22669 161.703 6.04205 159.452 4.66222 148.065C3.6587 139.617 3.59598 137.616 4.34862 128.731C5.22669 117.969 4.97581 115.593 3.15694 115.593C2.21615 115.593 1.83983 116.343 1.21263 119.47Z" fill="black"/>
</g>
<defs>
<clipPath id="clip0_2001_3423">
<rect width="113" height="162" fill="white" transform="translate(0 0.508911)"/>
</clipPath>
</defs>
</svg>
