<svg width="82" height="56" viewBox="0 0 82 56" fill="none" xmlns="http://www.w3.org/2000/svg">
<g clip-path="url(#clip0_4001_729)">
<path d="M2.3642 13.7072C9.26883 15.6091 16.4075 16.6399 23.5436 16.8625C27.1057 16.9734 30.6745 16.8632 34.2212 16.5424C37.9323 16.2066 41.6006 15.5815 45.2764 14.9912C52.0807 13.8981 59.08 13.0625 65.8367 15.0036C71.2835 16.5681 76.601 20.1123 78.7456 25.6562C80.5457 30.3093 80.36 36.5368 76.6526 40.1834C76.1954 40.6329 75.6697 40.9975 75.1292 41.3357C74.4594 41.7548 73.8688 40.7139 74.3915 40.2077C77.8821 36.8279 78.7412 31.7174 77.2248 27.1206C75.4742 21.8138 70.597 18.4999 65.5255 16.9733C59.1699 15.0603 52.5022 15.8654 46.0886 16.8897C42.4737 17.4674 38.8685 18.1018 35.2231 18.4604C31.7825 18.7985 28.3203 18.949 24.8621 18.9062C18.9211 18.8348 13.0175 18.1875 7.19796 17.0111C13.5536 20.7765 20.9043 22.7352 28.2528 22.605C30.8127 22.5596 33.363 22.2276 35.8567 21.6592C37.2443 21.3423 37.6597 23.5548 36.2751 23.8721C29.9514 25.3191 23.2949 25.153 17.0017 23.5126C17.614 23.7578 18.2196 24.0406 18.8239 24.2752C19.8372 24.6684 20.8651 25.0236 21.9042 25.3384C23.9741 25.9664 26.0888 26.4286 28.222 26.7583C32.4516 27.4116 36.7695 27.5015 41.0034 26.9217C42.2003 26.7579 43.3906 26.5439 44.5703 26.2785C45.7775 26.0068 46.9598 25.5936 48.1808 25.4001C49.1692 25.2434 49.6914 26.6754 48.7525 27.1312C47.7023 27.6414 46.5443 27.8957 45.411 28.1554C44.3575 28.397 43.2943 28.598 42.2243 28.758C40.0009 29.0918 37.7476 29.2517 35.4984 29.2505C33.831 29.2491 32.1675 29.1483 30.515 28.9485C33.8828 30.287 37.3722 31.175 40.9926 31.4111C42.891 31.5351 44.7914 31.4711 46.6741 31.2089C47.6082 31.0786 48.5366 30.9021 49.4532 30.6793C50.4342 30.4413 51.3762 30.0857 52.3792 29.9747C53.3842 29.8633 53.7876 31.1332 52.9352 31.6594C51.6073 32.4803 49.8763 32.7391 48.353 32.9868C46.7788 33.2431 45.1806 33.3669 43.5843 33.3753C42.8825 33.379 42.1797 33.3566 41.4785 33.3107C44.029 34.581 46.5965 35.732 49.4317 36.1589C52.4076 36.6075 55.4077 36.4778 58.3012 35.6483C58.991 35.4503 59.6652 35.2068 60.3264 34.9255C61.0304 34.6249 62.296 34.0397 62.6499 35.1627C62.9796 36.2106 61.8575 36.6496 61.1106 36.9432C60.35 37.2423 59.5697 37.5008 58.78 37.7146C58.7452 37.7242 58.7101 37.7319 58.6753 37.7415C59.7837 38.2136 61.0675 38.1069 62.24 37.8559C63.9613 37.4881 65.6244 36.8701 67.4136 36.9613C68.9391 37.0388 70.3908 37.7202 71.2877 39.0148C72.1926 40.3209 72.516 42.0466 71.3515 43.2763C70.6678 43.9985 69.5023 43.0774 69.8134 42.2058C70.156 41.2446 70.0001 40.4099 69.1991 39.6689C68.169 38.7162 66.659 38.8303 65.3878 39.0304C62.661 39.4593 59.4544 40.5951 57.015 38.6151C56.8538 38.4843 56.7623 38.3251 56.7232 38.1601C54.4101 38.543 52.0098 38.5533 49.7124 38.1609C46.374 37.5902 42.8791 36.3432 40.4 33.9069C40.2044 33.715 40.2467 33.4206 40.398 33.2216C38.2789 33.0032 36.1823 32.5476 34.1774 31.8135C32.5043 31.2012 30.8604 30.4502 29.352 29.4851C29.0876 29.3163 29.1105 28.9822 29.2741 28.7798C26.9131 28.4226 24.5817 27.8662 22.3041 27.1081C21.0921 26.705 19.8964 26.2474 18.7225 25.7374C17.5971 25.2483 16.3273 24.7443 15.368 23.9566C15.0155 23.6673 15.1714 23.1891 15.5285 23.0994C12.9962 22.339 10.5322 21.3378 8.18415 20.1018C5.78757 18.8398 3.52167 17.3322 1.42349 15.6023C0.48112 14.8256 1.18575 13.3825 2.36516 13.707L2.3642 13.7072Z" fill="#171714"/>
</g>
<defs>
<clipPath id="clip0_4001_729">
<rect width="74.6606" height="42.1613" fill="white" transform="matrix(-0.982585 0.185814 0.185814 0.982585 74.1658 0)"/>
</clipPath>
</defs>
</svg>
