<svg width="188" height="13" viewBox="0 0 188 13" fill="none" xmlns="http://www.w3.org/2000/svg">
<g clip-path="url(#clip0_4001_734)">
<path fill-rule="evenodd" clip-rule="evenodd" d="M0.854237 1.14602C0.854237 1.41451 0.988455 1.95149 1.18978 2.2871C1.42467 2.75696 1.35756 2.92476 0.854237 3.05901C-0.0852932 3.29394 -0.0181838 4.70351 1.02201 5.91171C1.99509 7.08636 6.1596 9.30513 9.31373 10.312C14.9211 12.1578 17.337 12.4934 26.0351 12.6277C30.5687 12.6948 37.7532 12.5941 41.9848 12.3928C66.8972 11.2181 99.9672 10.3455 121.893 10.3455C136.665 10.312 153.822 9.87567 155.399 9.50649C156.775 9.13732 156.205 8.76815 153.688 8.36541C151.373 8.0298 150.463 7.96268 136.161 7.12365C123.806 6.41886 91.4406 5.98256 51.6522 5.98256C14.3171 5.98256 14.7869 5.98256 8.87752 4.17026C7.33401 3.7004 5.08212 2.69357 3.87415 1.95522C1.52906 0.508357 0.854237 0.30699 0.854237 1.14602Z" fill="black"/>
<path fill-rule="evenodd" clip-rule="evenodd" d="M166.48 7.62701C164.936 8.02974 164.265 8.63384 164.735 9.20439C165.306 9.90917 187.198 9.80849 187.198 9.13726C187.198 8.29823 185.856 8.09686 178.806 7.86194C175.01 7.76125 170.95 7.59345 169.742 7.49276C168.534 7.42564 167.058 7.49276 166.484 7.62701H166.48Z" fill="black"/>
</g>
<defs>
<clipPath id="clip0_4001_734">
<rect width="187" height="12" fill="white" transform="translate(0.194336 0.650024)"/>
</clipPath>
</defs>
</svg>
