<svg width="152" height="144" viewBox="0 0 152 144" fill="none" xmlns="http://www.w3.org/2000/svg">
<g clip-path="url(#clip0_2001_3509)">
<path d="M122.723 126.015C122.723 127.719 122.073 129.1 121.305 129.1C120.536 129.1 119.857 127.719 119.857 126.015C119.857 124.31 120.507 122.958 121.305 122.958C122.102 122.958 122.723 124.34 122.723 126.015Z" fill="black"/>
<path d="M147.451 23.3927C149.017 21.3649 152.03 17.3682 152 12.431C152 3.32082 147.983 0 147.983 0C147.983 0 142.251 6.87673 140.035 8.66939C135.633 12.2547 128.189 15.6049 117.376 16.898C104.761 18.3673 99.5021 21.8939 96.9613 24.2155C92.323 28.6531 89.4869 34.2073 88.1279 40.1731C80.3285 38.8212 71.3769 38.2922 64.0502 38.1453C58.8506 26.8604 56.1621 24.1273 45.8811 21.8645C36.8704 19.8955 31.0799 10.3739 30.6072 7.90531C30.5481 7.64082 30.0754 7.72898 29.8982 7.96408C15.3334 28.7706 30.1936 31.0041 30.1936 31.0041C26.2348 39.1739 32.7048 40.702 32.7048 40.702L34.4478 40.5845C22.8964 44.0522 9.77922 51.8988 3.87057 67.6212C-3.4857 87.1347 1.5662 115.611 3.51605 124.751C3.87057 126.544 5.28865 127.896 7.09079 128.219L36.2795 133.391C36.2795 133.391 37.9635 142.325 46.0288 142.325C52.6465 142.325 54.5963 137.652 55.069 135.948C55.1872 135.595 55.4826 135.36 55.8667 135.36H105.854C105.854 135.36 110.374 144 117.169 144C123.964 144 129.607 138.387 128.898 129.512L142.635 126.749C142.635 126.749 149.223 78.7298 135.486 62.3902C132.236 58.4816 127.686 55.0727 122.516 52.1339C123.314 51.8694 124.141 51.5755 124.909 51.1347C126.386 50.3706 128.898 48.9012 129.932 46.6678C130.257 46.0212 130.257 45.4041 130.286 44.6106C132.738 44.2873 135.22 43.729 137.524 42.3478C140.626 40.6727 143.64 37.1167 145.087 33.7078C145.826 32.0327 147.155 29.1527 147.421 27.36C147.864 24.6269 147.214 23.6865 147.421 23.3927H147.451ZM64.7887 101.74C64.7887 98.8898 66.3545 96.5975 68.2748 96.5975C70.1952 96.5975 71.7314 98.8898 71.7314 101.74C71.7314 104.591 70.1656 106.854 68.2748 106.854C66.3841 106.854 64.7887 104.562 64.7887 101.74ZM18.6717 102.916C18.6717 100.095 20.208 97.7731 22.1283 97.7731C24.0486 97.7731 25.5849 100.095 25.5849 102.916C25.5849 105.737 24.0486 108.059 22.1283 108.059C20.208 108.059 18.6717 105.767 18.6717 102.916ZM89.1619 84.0784C89.1619 84.0784 69.5157 82.1094 50.2535 82.2563C31.0208 82.3739 6.1454 85.9004 6.1454 85.9004C6.55901 59.4514 20.8579 56.4833 20.8579 56.4833L81.9534 55.6604C90.58 62.4196 89.1619 84.0784 89.1619 84.0784ZM119.857 138.475C116.844 138.475 114.421 133.215 114.421 126.749C114.421 125.721 114.48 124.722 114.599 123.752H118.292C118.292 123.752 118.38 117.11 121.275 115.435C123.609 116.787 125.323 121.342 125.323 126.749C125.323 133.215 122.871 138.475 119.857 138.475ZM133.004 69.2963C140.065 78.3184 138.529 96.5975 138.529 96.5975L95.5137 84.2253C95.9569 67.7388 90.4323 57.7763 90.4323 57.7763C106.74 58.3347 133.004 69.2963 133.004 69.2963ZM143.049 19.6016C141.926 20.689 140.301 21.8939 138.706 22.9812C135.456 25.0971 131.97 26.9192 128.129 28.2122C124.318 29.5053 119.976 30.5927 115.721 30.9747L115.367 31.0335C119.532 32.5029 124.643 33.0318 129.104 32.5029C132.502 32.0914 135.899 31.0922 139.06 29.5641C139.06 29.9461 139.001 30.3576 138.913 30.7396C138.44 33.12 137.229 35.3241 135.22 37.058C133.3 38.88 129.075 40.8784 123.787 41.4367C120.832 41.76 117.198 42.142 117.198 42.142H116.992C116.992 42.142 117.996 44.5518 123.816 44.5224C123.816 44.5224 123.905 44.7576 123.875 44.8751C123.609 45.6392 123.048 46.4327 122.25 47.138C121.482 47.8727 120.419 48.4604 119.326 48.9894C118.823 49.2245 118.292 49.4302 117.73 49.6065C109.754 45.7567 100.861 42.9355 93.0616 41.1722C94.9229 36.1469 97.2863 31.9151 101.334 28.5649C104.79 25.7143 110.522 23.04 116.371 22.6873C124.377 22.2171 132.266 20.1012 135.84 18.4261C138.942 17.1037 145.442 12.6661 146.269 10.609C146.86 14.2824 144.319 18.4849 143.049 19.6016Z" fill="black"/>
<path d="M32.9999 95.3045H14.624V111.056H32.9999V95.3045Z" fill="black"/>
<path d="M75.1877 93.071H62.8386V108.059H75.1877V93.071Z" fill="black"/>
<path d="M138.499 102.975L137.701 120.784C137.701 121.107 137.435 121.342 137.11 121.342H130.522C130.256 121.342 129.99 121.166 129.961 120.872C129.547 118.697 127.39 109.499 121.304 109.381C115.337 109.293 112.707 115.2 112.116 116.875C112.028 117.14 111.762 117.257 111.496 117.228L94.2724 115.082C93.9474 115.053 93.7406 114.759 93.7701 114.465L95.395 92.1894C95.395 91.8367 95.7791 91.5722 96.1336 91.6604L138.115 102.387C138.38 102.446 138.558 102.71 138.558 102.975H138.499Z" fill="white"/>
<path d="M127.124 62.302C115.75 57.3355 87.2115 51.6342 86.8866 51.5755L79.2644 43.8465C79.2644 43.8465 79.2644 43.7289 79.3235 43.7583C116.459 49.871 126.002 60.6563 127.213 62.2726C127.243 62.3314 127.213 62.3902 127.154 62.3608L127.124 62.302Z" fill="white"/>
<path d="M75.0103 49.3126L24.2254 50.5469C24.0186 50.5469 23.93 50.3118 24.1072 50.1943C26.5889 48.6367 37.1358 42.4947 51.8188 41.9657C66.62 41.4661 73.6808 47.4906 75.158 48.96C75.2761 49.0775 75.1875 49.2832 75.0103 49.2832V49.3126Z" fill="white"/>
<path d="M88.3933 90.8669C88.3637 90.2792 87.891 89.809 87.3002 89.7502C82.1892 89.3975 58.7319 87.8694 39.9424 88.9861C22.0391 90.0441 9.48327 92.3363 5.99717 93.0122C5.43584 93.1298 5.02224 93.6294 5.05178 94.2171C5.11087 96.7445 5.31767 103.739 6.14488 109.264C7.03118 115.318 8.09474 118.844 8.62651 120.402C8.80377 120.96 9.3651 121.283 9.92642 121.166C15.4215 120.167 43.0444 115.288 60.4454 115.171C75.542 115.053 82.9278 115.112 85.439 115.141C86.0298 115.171 86.5321 114.73 86.6207 114.142C87.0048 111.203 88.0978 102.798 88.3046 97.8612C88.4819 94.1877 88.4524 92.013 88.3933 90.8669ZM22.1278 108.059C20.2075 108.059 18.6712 105.767 18.6712 102.916C18.6712 100.065 20.2075 97.773 22.1278 97.773C24.0481 97.773 25.5843 100.095 25.5843 102.916C25.5843 105.737 24.0481 108.059 22.1278 108.059ZM68.2743 106.854C66.354 106.854 64.7882 104.562 64.7882 101.74C64.7882 98.9192 66.354 96.5975 68.2743 96.5975C70.1946 96.5975 71.7309 98.8898 71.7309 101.74C71.7309 104.591 70.1651 106.854 68.2743 106.854Z" fill="white"/>
</g>
<defs>
<clipPath id="clip0_2001_3509">
<rect width="152" height="144" fill="white"/>
</clipPath>
</defs>
</svg>
