<svg width="69" height="71" viewBox="0 0 69 71" fill="none" xmlns="http://www.w3.org/2000/svg">
<g clip-path="url(#clip0_2001_3530)">
<path fill-rule="evenodd" clip-rule="evenodd" d="M62.8781 21.1162C62.252 21.0787 61.1451 21.3752 60.3933 21.8048C58.9321 22.6526 58.2518 23.5194 52.7148 31.7384C51.3021 33.8737 48.2974 38.0807 46.052 41.0348C40.4021 48.5768 39.2582 51.1192 40.8826 52.6688C41.8063 53.562 42.9889 53.633 44.1976 52.8554C44.8799 52.4216 47.4844 49.531 50.9605 45.3802C54.0907 41.6414 58.246 36.8751 60.1883 34.7577C62.7731 31.9636 64.1607 30.2457 65.1736 28.4913C66.7918 25.7509 66.9198 24.7812 65.9382 22.9909C65.2595 21.7355 64.4114 21.2098 62.8781 21.1162Z" fill="black"/>
<path fill-rule="evenodd" clip-rule="evenodd" d="M34.0279 5.79107C30.3882 4.73329 27.0297 5.24535 24.0128 7.35415C22.6268 8.32126 22.1916 8.82572 20.8982 11.0659C19.6048 13.3061 19.4036 13.8416 19.3064 15.6928C19.151 18.9539 20.4481 20.8903 22.8732 20.9909C24.6122 21.0953 25.7806 20.0065 27.4166 16.7366C28.575 14.4185 29.0047 13.7989 29.8189 13.2614C31.1565 12.3782 32.8374 12.521 34.8647 13.6914C39.2131 16.202 39.9096 20.8546 36.5696 24.832C34.7779 27.0004 33.2725 27.8626 29.1004 29.1605C22.9755 31.0983 20.9796 32.2491 18.3739 35.391C16.5977 37.5324 16.0172 39.0365 16.5328 40.4498C17.3419 42.7882 20.1202 42.8448 21.8777 40.5487C24.1032 37.6912 24.7969 37.3 31.3236 35.4143C36.1319 34.0118 37.701 33.2264 40.0762 31.107C44.6964 26.969 46.5336 21.0443 44.7773 15.8518C43.3288 11.6288 38.5025 7.07892 34.0279 5.79107Z" fill="black"/>
<path fill-rule="evenodd" clip-rule="evenodd" d="M35.1423 57.2438C32.0086 57.8097 30.8627 61.2906 33.0049 63.7509C34.4932 65.4739 37.7876 65.0728 38.9892 62.9916C39.6281 61.885 39.7356 60.3276 39.2548 59.2903C38.6884 58.0276 36.5832 56.9921 35.1441 57.2408L35.1423 57.2438Z" fill="black"/>
<path fill-rule="evenodd" clip-rule="evenodd" d="M13.459 46.0924C12.2338 46.0328 10.4166 46.9988 9.79151 48.0814C8.13801 50.9454 10.2632 54.4395 13.5763 54.3731C14.7516 54.3319 16.4568 53.3731 17.0195 52.3985C17.5822 51.4238 17.6579 49.6722 17.2353 48.5965C16.7612 47.4231 14.8928 46.1645 13.459 46.0924Z" fill="black"/>
</g>
<defs>
<clipPath id="clip0_2001_3530">
<rect width="47.0598" height="54.5741" fill="white" transform="translate(27.2871) rotate(30)"/>
</clipPath>
</defs>
</svg>
