<svg width="49" height="95" viewBox="0 0 49 95" fill="none" xmlns="http://www.w3.org/2000/svg">
<g clip-path="url(#clip0_2001_3637)">
<path fill-rule="evenodd" clip-rule="evenodd" d="M12.9379 86.9909C13.4742 80.7668 15.0728 74.9361 17.4684 70.3669C18.5856 68.2548 18.6177 67.404 17.5522 67.307C16.5757 67.2158 15.6972 68.4781 13.9888 72.3501L12.4809 75.7719L12.6793 71.9594C13.4226 56.0576 18.8181 39.5349 27.339 26.9792C30.5579 22.2607 33.6657 18.9449 39.8569 13.6087C44.8323 9.27753 45.7736 8.57965 46.7332 8.35448C48.1515 8.04187 48.2538 7.917 47.9639 7.17206C47.6181 6.31063 46.5916 6.01382 45.4131 6.41968C43.8168 6.9638 36.4605 12.8183 33.167 16.1641C19.5405 29.9229 11.1615 50.5563 10.2639 72.6503C10.1618 75.4406 10.0371 78.2067 10.0497 78.7685L10.0184 79.819L9.65426 78.688C9.46593 78.0645 8.76587 75.7374 8.07583 73.5218C7.40905 71.287 6.63755 69.2671 6.34611 69.0149C5.62331 68.3426 4.5972 69.0323 4.73915 70.1401C4.85266 71.0698 8.65732 83.8567 9.56636 86.3377C9.88886 87.2183 10.248 88.3952 10.3714 88.9903C10.519 89.5629 10.8655 90.178 11.1202 90.3369C12.1002 90.8751 12.7024 89.7237 12.9345 86.99L12.9379 86.9909Z" fill="black"/>
</g>
<defs>
<clipPath id="clip0_2001_3637">
<rect width="90.4764" height="25.8364" fill="white" transform="translate(48.373 6.68701) rotate(105)"/>
</clipPath>
</defs>
</svg>
