<svg width="231" height="177" viewBox="0 0 231 177" fill="none" xmlns="http://www.w3.org/2000/svg">
<g clip-path="url(#clip0_2001_3621)">
<path fill-rule="evenodd" clip-rule="evenodd" d="M215.599 7.73166C210.416 -3.99066 209.258 -1.80128 211.134 15.9308C215.075 52.6426 209.879 73.126 194.241 82.7587C188.779 86.1707 188.16 86.3199 178.197 87.1764C168.779 88.0713 167.141 87.9558 159.807 85.9406C146.06 82.1843 134.029 75.4522 109.834 57.9427C84.7748 39.792 70.2849 33.9265 56.1143 36.1772C47.823 37.5076 41.7511 41.1584 36.3536 48.1002C25.8636 61.4926 23.7709 71.8169 20.3377 126.065C19.0974 145.359 18.0005 151.892 17.2033 144.454C16.7987 141.147 13.6342 130.68 12.8408 129.942C12.5464 129.698 11.9278 129.848 11.4243 130.257C10.3276 131.085 14.1956 173.69 15.5392 175.461C17.4885 177.897 21.5511 173.081 28.9523 159.53C39.2002 140.736 42.4701 127.578 34.2673 138.403C32.7438 140.446 29.957 144.417 28.2413 147.293C26.436 150.176 25.1302 151.656 25.3054 150.645C25.6897 148.981 26.1133 142.974 28.8154 101.011C30.7994 70.5162 36.9385 53.1977 48.1222 46.2585C50.6824 44.6592 53.3277 43.9557 59.1614 43.4014C66.0603 42.7457 67.4298 42.8868 73.8133 45.2636C83.102 48.7203 91.4427 53.7237 107.56 65.3008C135.923 85.7593 151.657 93.4051 168.442 94.8838C195.809 97.2554 213.532 82.9144 218.604 54.4769C219.637 48.3217 219.612 44.2558 218.449 29.1681C217.466 15.9619 216.652 10.2533 215.599 7.73166Z" fill="#8BCDA6"/>
</g>
<defs>
<clipPath id="clip0_2001_3621">
<rect width="156.44" height="216.75" fill="white" transform="translate(215.778) rotate(84.5714)"/>
</clipPath>
</defs>
</svg>
