<svg width="104" height="104" viewBox="0 0 104 104" fill="none" xmlns="http://www.w3.org/2000/svg">
<path d="M93.4939 23.3077C96.4514 20.1858 97.5651 14.3072 96.7985 10.5646C95.9039 6.49343 92.4352 3.59064 88.6378 2.3492C86.1184 1.5094 83.1609 1.5094 80.6415 2.45874C78.5783 1.18078 76.0589 0.614826 73.6674 0.779135C71.714 0.888674 69.9249 1.45463 68.3 2.3492C65.5068 0.724365 61.8737 0.724365 58.8066 1.34509C57.8025 1.56417 56.5793 1.96581 55.3379 2.62304C52.4353 -0.389284 47.6884 -0.389284 43.9458 0.560056C42.7774 0.833904 41.4812 1.39986 40.258 2.07535C37.1361 0.797391 33.3935 0.614826 30.3082 0.90693C28.9024 1.01647 27.4054 1.29032 25.9449 1.69196C23.7176 0.852161 21.0886 0.9617 18.6788 1.58242C11.8691 3.26202 2.13834 11.9704 9.73306 18.7253C10.7372 19.6199 11.796 20.2406 13.0375 20.7883C11.65 22.121 10.6824 23.6911 10.3538 25.535C10.1347 25.6993 9.97039 25.9732 9.8426 26.2653C6.53816 38.5519 7.15889 51.0211 7.77961 63.5816C8.21777 73.0201 7.04935 82.9699 11.6865 91.5689C18.8978 104.86 40.2397 102.359 52.5264 103.016C65.3788 103.746 86.2645 107.598 92.7455 92.6824C96.8167 83.2437 95.8126 69.953 95.7579 59.9484C95.5569 48.1183 95.6664 34.9919 93.4939 23.3077ZM87.6335 5.89096C90.2623 6.78553 92.3802 8.84852 93.1105 11.587C93.5485 13.2666 93.1653 15.001 92.6723 16.5528C92.3437 17.6117 91.723 18.561 91.1023 19.5103C89.3679 17.995 87.0311 16.9909 84.5664 16.3885C85.7894 12.9197 85.2417 8.33734 83.5074 5.43455C84.8403 5.27024 86.2825 5.48932 87.6335 5.89096ZM79.8562 6.78553C79.966 6.89507 80.0753 7.00461 80.185 7.16892C82.029 9.85263 81.0794 12.7007 80.8056 15.5487C79.6919 15.3844 78.6332 15.2201 77.6291 15.0375C77.848 12.1347 77.3551 8.84852 79.8562 6.78553ZM73.5577 4.37567C74.7262 4.3209 75.9676 4.43044 77.0814 4.88686C74.7994 7.5158 74.1239 11.587 75.5112 14.7819C74.4523 14.6176 73.3934 14.508 72.3347 14.3437C73.1198 11.2219 72.5536 7.58882 70.8192 4.95988C71.7138 4.64952 72.6084 4.48521 73.5577 4.37567ZM67.6244 6.78553C69.2492 8.73898 68.6834 11.4227 68.4096 13.9421C67.2957 13.8326 66.1823 13.7778 65.0504 13.723C64.9406 10.9115 65.8352 8.46514 67.6244 6.78553ZM59.701 4.88686C61.2711 4.55824 63.1698 4.50347 64.7763 4.99639C62.7134 7.27846 61.7092 10.3638 62.3665 13.4857C60.906 13.4309 59.4089 13.3214 57.9484 13.3214C58.3865 10.8567 58.0581 7.95395 57.054 5.61712C57.9666 5.27024 58.8612 5.05116 59.701 4.88686ZM53.6033 7.27846C54.2788 9.12237 53.7676 11.2401 53.5486 13.2483C52.654 13.2483 51.7047 13.3031 50.8101 13.3031C49.9703 10.6924 51.4308 8.68421 53.6033 7.27846ZM44.8402 4.21136C47.0127 3.64541 49.6417 3.53587 51.5951 4.77732C48.4732 7.18718 46.1729 10.3638 48.0168 13.3214C47.5057 13.3214 46.958 13.3214 46.4468 13.3214C46.1182 13.3214 45.7165 13.3214 45.3331 13.3761C46.3372 10.4186 45.8443 6.8403 43.7631 4.55824C44.1647 4.43044 44.4933 4.3209 44.8402 4.21136ZM39.9292 6.49343C40.0387 6.5482 40.203 6.65774 40.3126 6.71251C43.0511 8.55642 41.7183 11.1854 40.696 13.577C39.6919 13.6317 38.633 13.6865 37.5193 13.7413C35.4016 10.8567 37.2455 8.28257 39.9292 6.49343ZM30.1985 4.77732C32.1519 4.55824 34.2149 4.61301 36.2231 5.05116C33.5942 7.73487 32.3162 11.0758 34.653 13.9969C33.3751 14.1064 32.0241 14.2707 30.6914 14.435C31.4216 11.0758 31.3669 7.46103 29.742 4.88686C29.9246 4.83209 30.0889 4.83209 30.1985 4.77732ZM20.9241 8.57468C21.9282 7.29672 23.4983 6.45692 25.1049 5.83619C25.2692 5.94573 25.3787 6.0005 25.4883 6.11004C26.4924 6.94984 26.894 8.28257 26.9488 9.9074C27.0036 11.7513 26.5654 13.4309 26.0542 15.1653C24.6485 15.4391 23.3157 15.786 22.0378 16.1694C20.4312 13.8143 19.0255 10.9663 20.9241 8.57468ZM11.4855 15.5487C10.5909 14.3255 10.5909 13.3761 10.9196 12.1347C11.7046 9.6153 14.8265 7.388 17.4554 6.27435C17.8388 6.11004 18.2404 5.94573 18.6238 5.83619C18.2952 6.21958 18.0031 6.56646 17.7292 7.00461C15.5019 10.4734 17.0537 14.2159 19.5731 16.9544C18.0579 17.5204 16.6156 18.1228 15.3741 18.9079C13.8954 18.0133 12.4348 16.9544 11.4855 15.5487ZM89.587 80.0673C88.5829 91.7514 84.895 97.3926 72.937 98.4516C66.1821 99.0722 59.1898 98.2325 52.4349 97.7761C40.1483 96.9911 20.4312 100.003 14.6621 85.9276C11.3029 77.7122 12.9825 65.6446 12.5444 56.8269C12.2705 51.6238 12.161 46.4389 12.2158 41.2904C18.6421 44.0289 40.8238 40.122 44.402 39.8299C53.8954 39.0996 63.4436 38.4241 73.01 38.3146C76.424 38.2598 79.8199 38.3693 83.2337 38.698C85.1324 38.8623 88.3092 40.1037 88.3092 40.0307C88.4733 40.98 89.3133 41.4182 90.2077 41.4912C90.9745 54.3803 90.6459 67.7259 89.587 80.0673Z" fill="black"/>
<path d="M47.743 84.1567C43.7814 83.8281 39.7467 83.8281 35.785 83.9378C43.544 75.8319 51.8142 63.0523 45.68 53.9971C38.8156 43.8282 22.8228 53.8328 24.4477 64.3303C24.7215 66.0647 27.7521 66.0647 27.9712 64.3303C28.5919 59.9122 30.9835 56.7356 35.2921 55.2751C40.5499 53.4857 43.4527 58.2874 42.3939 62.9244C40.6047 71.1398 33.4482 79.6839 27.0401 84.887C25.1414 86.4025 26.7663 89.4696 28.9388 89.4696C35.2008 89.4696 41.5723 89.8529 47.816 89.3052C50.9744 88.9034 50.9744 84.4306 47.743 84.1567Z" fill="black"/>
<path d="M75.1096 60.2957C72.1522 56.8269 67.6244 57.8858 63.8818 59.7843C63.8818 57.9404 63.8818 56.0967 63.8818 54.3073C67.8983 54.4717 72.4261 54.7455 75.566 52.3541C76.7892 51.4047 76.406 49.5059 74.781 49.3965C70.3081 49.1227 65.7805 49.287 61.3259 49.1227C59.9384 49.0679 58.7518 50.3459 58.7518 51.6968C58.697 55.9506 58.697 60.2409 58.697 64.4949C58.697 66.3388 60.9791 67.9636 62.6037 66.722C64.5571 65.3164 69.03 61.7014 71.4218 64.0384C73.3751 65.9369 72.8823 70.3004 72.4259 72.6373C71.8598 75.8139 70.6915 79.1731 68.4642 81.5282C65.8353 84.2667 63.4985 80.6882 61.7093 78.8993C59.6463 76.8363 56.5062 79.4654 57.8024 81.9116C60.1575 86.4392 65.1781 89.1777 70.0343 86.9321C74.5619 84.8144 76.7344 78.5526 77.5742 74.0248C78.414 69.3507 78.3045 63.9833 75.1096 60.2957Z" fill="black"/>
</svg>
