<svg width="868" height="322" viewBox="0 0 868 322" fill="none" xmlns="http://www.w3.org/2000/svg">
<path fill-rule="evenodd" clip-rule="evenodd" d="M10.4424 3.29543C8.97538 4.78656 8.97538 6.77474 10.0757 9.75702C11.9095 14.2304 9.89228 87.3513 6.59143 134.423C4.39087 165.94 0.723263 307.34 2.00693 311.997C2.37369 313.986 4.20749 315.974 5.67453 316.637C12.2762 318.79 13.3765 309.347 14.6602 246.351C15.3937 213.03 17.0441 169.088 18.5112 148.543C20.1616 127.98 21.812 89.5236 22.5455 62.9961L23.6458 14.7459L84.3854 15.4086C117.781 15.5743 233.005 16.237 340.547 16.7341C448.069 17.2311 540.921 17.8938 546.972 18.3909C557.792 19.0536 618.348 20.7104 775.423 24.3554C819.272 25.3495 855.418 26.5093 855.785 26.675C856.702 27.3377 850.65 157.14 848.816 177.537C847.899 188.472 846.249 211.189 845.332 228.107C840.748 305.702 840.931 300.713 844.232 305.37C845.882 307.69 847.899 309.015 848.816 308.352C850.467 306.696 853.401 277.849 856.152 235.581C857.252 219.989 858.902 201.101 859.819 193.314C862.753 169.272 866.237 101.14 866.237 67.3222C866.237 39.1379 865.871 34.3332 863.12 30.3568C861.286 28.0372 859.819 24.8893 859.819 23.3982C859.819 16.1082 837.61 14.617 665.314 10.972C622.382 9.97793 561.826 8.48679 530.448 7.65838C499.253 6.66429 380.728 5.6702 267.317 5.17315C77.6004 4.47361 45.305 3.97656 21.0989 1.80429C15.2307 1.14156 11.9298 1.63861 10.4628 3.29543H10.4424Z" fill="white"/>
<path fill-rule="evenodd" clip-rule="evenodd" d="M372.659 310.322C371.742 310.654 298.166 311.151 209.349 311.648C86.5859 312.31 44.5715 312.973 34.3022 314.63C21.2822 316.784 16.6773 319.269 21.2822 321.754C23.116 322.748 140.744 322.748 577.25 321.423C687.707 321.092 792.845 320.926 810.836 321.092C834.329 321.257 844.048 320.76 846.066 319.269C850.1 316.287 849.55 314.63 843.865 312.145C839.647 310.157 800.75 309.825 606.612 309.825C478.897 309.825 373.759 309.991 372.659 310.322Z" fill="white"/>
</svg>
