<svg width="104" height="104" viewBox="0 0 104 104" fill="none" xmlns="http://www.w3.org/2000/svg">
<g clip-path="url(#clip0_2001_3558)">
<path d="M42.2688 73.5257C40.3956 58.777 27.2562 47.4422 26.9485 32.6395C26.5872 15.0976 50.6448 5.32805 64.7608 12.0884C78.8769 18.8488 79.7734 37.5242 73.284 50.1274C70.4207 55.6869 66.3129 60.4907 63.5566 66.1581C61.844 69.6799 58.5926 75.1989 59.7433 79.1526L62.0714 76.076C56.5722 75.7387 37.7062 73.836 36.1139 82.2562C34.1604 92.6059 59.1144 84.6581 58.6327 87.7481C58.2715 90.123 36.6625 82.6205 35.1505 91.5264C33.0231 104.022 57.6426 94.1307 60.9609 98.1788C62.9411 100.594 66.3129 97.1398 64.3728 94.7514C62.4327 92.363 59.6898 92.7273 56.813 92.7948C53.7356 92.7948 50.6582 92.9972 47.5941 93.1052L43.58 93.2401C41.6667 91.8907 42.0279 91.4589 44.6906 92.0931C49.8955 90.9057 61.3355 96.1413 64.6404 89.9611C68.0657 83.5651 59.1546 81.595 55.0067 81.6894C53.2506 81.7648 51.5 81.9368 49.7617 82.2022C47.7145 82.4721 39.8604 84.0778 45.1054 81.6219C49.7884 79.4225 57.1475 80.6369 62.0179 80.9338C62.7672 80.9259 63.4708 80.5694 63.9257 79.9678C64.3806 79.3662 64.5356 78.5881 64.3461 77.8572C63.5433 74.9695 67.8115 68.2226 69.1495 65.9422C71.0361 62.5012 73.2706 59.3032 75.3981 56.0107C79.5905 49.5944 81.8797 42.1043 81.9945 34.4207C82.2487 20.4951 74.1939 8.24271 60.1714 5.53046C46.7913 2.94077 30.0259 10.0115 24.1119 22.8441C15.6289 41.1417 35.2977 56.4841 37.4519 73.5268C37.84 76.5899 42.6568 76.6304 42.2688 73.5268V73.5257Z" fill="black"/>
</g>
<defs>
<clipPath id="clip0_2001_3558">
<rect width="60" height="94" fill="white" transform="translate(22 5)"/>
</clipPath>
</defs>
</svg>
