<svg width="104" height="104" viewBox="0 0 104 104" fill="none" xmlns="http://www.w3.org/2000/svg">
<g clip-path="url(#clip0_2001_3568)">
<path d="M50.3726 93.1952C34.9678 80.7572 20.9634 62.5383 16.9322 42.7892C14.8643 32.64 15.0868 17.6124 27.4028 14.3689C39.7188 11.1253 49.7313 20.686 53.7887 31.5153C54.8433 33.9327 55.5065 36.5016 55.7519 39.1272L55.6734 40.3043C55.7912 42.92 54.6917 42.1745 52.4144 38.0155C52.2726 36.7959 52.3697 35.561 52.7023 34.3795C54.0112 26.99 60.1364 22.0854 67.2303 20.5683C74.5597 18.9857 83.5513 21.7454 87.1505 28.7033C90.7498 35.6613 89.6111 44.8295 86.5223 51.8137C78.8526 69.1431 60.1757 79.2793 43.5929 86.3549C40.8182 87.532 43.2134 91.5865 45.975 90.4094C65.2016 82.2874 87.962 69.0516 93.0926 46.9876C96.273 33.2548 91.2079 19.025 76.0779 15.9253C64.7042 13.5188 51.76 20.0451 48.4356 31.4237C47.1268 35.7921 46.9959 41.6906 50.3988 45.1696C53.0819 47.9292 57.2047 47.8638 59.3642 44.5026C62.0735 40.2781 59.5344 33.3201 57.9638 29.2657C55.7552 23.0216 51.76 17.5645 46.4723 13.5711C37.6378 7.26706 23.9475 7.03164 16.5265 15.716C7.36476 26.4145 11.2912 44.1364 16.16 55.7635C22.9452 71.6575 33.5565 85.6301 47.0482 96.4387C49.3779 98.3221 52.7416 95.0131 50.3726 93.1167V93.1952Z" fill="black"/>
</g>
<defs>
<clipPath id="clip0_2001_3568">
<rect width="83" height="88" fill="white" transform="translate(11 9)"/>
</clipPath>
</defs>
</svg>
