<svg width="95" height="81" viewBox="0 0 95 81" fill="none" xmlns="http://www.w3.org/2000/svg">
<g clip-path="url(#clip0_2001_3546)">
<path d="M37.26 69.85C40.66 58.95 45.16 48.65 52.26 39.65C53.86 37.65 51.86 34.05 49.26 35.75C41.46 41.15 33.86 49.15 27.56 57.85C31.06 48.65 35.36 39.75 41.36 31.75C43.06 29.55 39.26 26.65 37.46 28.75C29.16 38.55 21.96 49.15 13.96 59.25C19.06 45.85 25.36 33.05 33.56 21.05C35.36 18.35 31.16 16.05 29.36 18.55C23.06 27.05 16.76 35.55 10.56 44.05C13.66 35.25 16.66 26.45 19.46 17.45C20.46 14.45 15.66 13.15 14.76 16.15C10.26 30.35 5.35996 44.45 0.159963 58.45C-0.840037 61.25 3.15996 62.45 4.65996 60.35C7.45996 56.65 10.16 52.85 12.96 49.15C9.95996 56.15 7.35996 63.25 4.95996 70.55C4.25996 72.85 7.45996 74.75 9.05996 72.95C14.16 67.35 18.86 61.35 23.36 55.25C20.56 62.55 18.16 70.15 15.96 77.65C15.16 80.25 19.26 82.15 20.46 79.55C24.76 70.35 31.56 59.65 39.46 51.05C35.66 58.75 32.76 66.85 30.56 75.35C29.86 77.85 32.86 79.35 34.66 77.75C40.36 72.75 47.76 69.65 55.26 67.95L54.76 63.05C48.56 64.45 42.56 66.65 37.26 69.85Z" fill="black"/>
<path d="M91.8599 3.24996L84.5599 0.349959C81.9599 -0.650041 79.0599 0.54996 78.0599 3.14996L76.1599 7.74996C78.8599 8.24996 81.8599 9.04996 84.7599 10.25C87.7599 11.45 90.4599 12.95 92.6599 14.45L94.5599 9.84996C95.6599 7.24996 94.3599 4.34996 91.8599 3.24996Z" fill="black"/>
<path d="M74.4599 11.85L59.1599 49.55C61.8599 50.05 64.8599 50.85 67.7599 52.05C70.5599 53.15 73.3599 54.65 75.6599 56.25L90.9599 18.55C89.1599 17.15 86.5599 15.65 83.0599 14.25C79.6599 12.85 76.7599 12.15 74.4599 11.85Z" fill="black"/>
<path d="M58.1599 53.75L59.6599 67.75C59.8599 69.25 61.5599 69.95 62.6599 68.95L73.4599 60.05C71.6599 58.75 69.2599 57.35 66.0599 56.05C63.3599 54.95 60.5599 54.15 58.1599 53.75Z" fill="black"/>
</g>
<defs>
<clipPath id="clip0_2001_3546">
<rect width="94.95" height="80.79" fill="white"/>
</clipPath>
</defs>
</svg>
