<svg width="480" height="13" viewBox="0 0 480 13" fill="none" xmlns="http://www.w3.org/2000/svg">
<path fill-rule="evenodd" clip-rule="evenodd" d="M115.503 0.365694C69.5881 0.964889 6.77736 2.99293 2.18964 4.00696C-0.272066 4.56006 -0.831544 6.12718 1.40637 6.44983C2.07774 6.54201 5.32272 6.5881 8.3439 6.49592C35.7708 5.62017 83.3637 4.37569 103.517 4.00696C134.985 3.40776 215.699 3.49994 200.929 4.09914C156.593 5.85063 129.502 7.50994 109.46 9.68138C100.956 10.6032 100.173 10.7876 100.173 11.8477V13L122.005 12.9078C133.99 12.8617 158.508 12.5391 176.312 12.1243C272.604 9.95793 374.044 9.68138 432.702 11.3868C467.414 12.3547 478.716 12.493 479.723 11.8477C484.311 8.80564 431.807 7.1873 331.374 7.1873C268.563 7.23339 237.208 7.60212 176.871 9.07707C133.766 10.1372 128.731 10.1372 144.397 9.07707C173.614 7.04902 271.473 3.81747 319.613 3.31046C332.941 3.17218 343.571 2.84954 344.13 2.61908C344.914 2.29643 344.914 1.88161 344.13 1.3285C343.011 0.637124 340.102 0.498848 323.417 0.268389C296.09 -0.146439 148.3 -0.0542548 115.503 0.365694Z" fill="black"/>
</svg>
