<svg width="127" height="90" viewBox="0 0 127 90" fill="none" xmlns="http://www.w3.org/2000/svg">
<path d="M0 33.75C0 15.1875 15.0246 0 34.0179 0H36.2857C41.1049 0 45.3571 4.21875 45.3571 9C45.3571 14.0625 41.1049 18 36.2857 18H34.0179C25.2299 18 18.1429 25.3125 18.1429 33.75V36H36.2857C46.2076 36 54.4286 44.1562 54.4286 54V72C54.4286 82.125 46.2076 90 36.2857 90H18.1429C7.9375 90 0 82.125 0 72V63V54V33.75ZM72.5714 33.75C72.5714 15.1875 87.596 0 106.589 0H108.857C113.676 0 117.929 4.21875 117.929 9C117.929 14.0625 113.676 18 108.857 18H106.589C97.8013 18 90.7143 25.3125 90.7143 33.75V36H108.857C118.779 36 127 44.1562 127 54V72C127 82.125 118.779 90 108.857 90H90.7143C80.5089 90 72.5714 82.125 72.5714 72V63V54V33.75Z" fill="#8BCDA6"/>
</svg>
