<svg width="286" height="34" viewBox="0 0 286 34" fill="none" xmlns="http://www.w3.org/2000/svg">
<path d="M107.319 13.2767V25.905H100.81V13.2767H94.2254V9.25626H113.885V13.2767H107.319Z" fill="#232229"/>
<path d="M129.1 20.883H118.758C118.963 22.2671 120.097 22.8734 121.753 22.8734C123.297 22.8734 124.58 22.6361 126.31 21.9902L128.616 24.7321C126.44 25.6416 124.189 26.1557 121.437 26.1557C116.136 26.1557 113.216 23.493 113.216 19.657C113.216 15.3466 116.638 13.1452 121.269 13.1452C126.105 13.1452 129.118 15.3993 129.118 20.0393C129.118 20.4084 129.118 20.6721 129.1 20.883ZM121.102 16.322C119.725 16.322 118.963 16.9943 118.758 18.2202H123.799C123.483 16.9548 122.887 16.322 121.102 16.322Z" fill="#232229"/>
<path d="M140.334 26.1686C135.163 26.1686 132.076 23.8354 132.076 19.6304C132.076 15.7944 134.828 13.1581 140.464 13.1581C143.793 13.1581 145.69 14.2522 147.234 16.0054L143.068 18.2463C142.231 17.1522 141.654 16.6249 140.352 16.6249C138.809 16.6249 138.027 17.719 138.027 19.6963C138.027 21.6736 138.864 22.6886 140.52 22.6886C141.654 22.6886 142.473 22.2404 143.57 21.0672L147.402 23.1895C145.356 25.3249 143.458 26.1686 140.334 26.1686Z" fill="#232229"/>
<path d="M160.923 25.9051V18.8132C160.923 17.1919 160.161 16.7701 158.915 16.7701C157.631 16.7701 156.869 17.1919 156.869 18.7737V25.9051H150.824V10.2714L156.869 8.55775V14.2523C157.985 13.6591 159.212 13.1582 161.295 13.1582C165.164 13.1582 167.005 14.9905 167.005 18.2728V25.9051H160.923Z" fill="#232229"/>
<path d="M181.457 26.1688C174.482 26.1688 170.744 22.5042 170.744 17.5874C170.744 12.2355 175.171 9.00596 181.476 9.00596C187.242 9.00596 189.53 10.7723 191.148 13.9096L185.252 15.531C184.415 13.9887 183.615 13.0132 181.457 13.0132C178.742 13.0132 177.57 14.9378 177.57 17.5742C177.57 20.1183 178.705 22.1351 181.532 22.1351C183.578 22.1351 184.452 21.3442 185.717 19.7755L191.222 21.8451C189.66 24.0465 187.037 26.1688 181.457 26.1688Z" fill="#232229"/>
<path d="M206.083 18.1279C205.321 17.5347 204.446 17.0865 203.275 17.0865C201.805 17.0865 200.894 17.5874 200.894 19.1034V25.9052H194.849V13.422H200.894V14.3315C201.935 13.6197 203.107 13.1715 204.651 13.1715C205.934 13.1715 206.79 13.3824 207.497 13.6988L206.083 18.1279Z" fill="#232229"/>
<path d="M220.442 25.9051V25.0747C219.363 25.6679 218.098 26.1688 216.052 26.1688C212.184 26.1688 210.342 24.3365 210.342 21.0542V13.4219H216.424V20.5138C216.424 22.1351 217.187 22.5569 218.433 22.5569C219.679 22.5569 220.442 22.1351 220.442 20.5533V13.4219H226.524V25.9051H220.442Z" fill="#232229"/>
<path d="M240.976 25.9049V18.8131C240.976 17.1917 240.213 16.7699 238.967 16.7699C237.684 16.7699 236.921 17.1917 236.921 18.7735V25.9049H230.876V13.4217H236.921V14.2522C238.037 13.659 239.265 13.1581 241.348 13.1581C245.217 13.1581 247.058 14.9904 247.058 18.2726V25.9049H240.976Z" fill="#232229"/>
<path d="M258.832 26.1686C253.661 26.1686 250.573 23.8354 250.573 19.6304C250.573 15.7944 253.326 13.1581 258.962 13.1581C262.291 13.1581 264.188 14.2522 265.732 16.0054L261.566 18.2463C260.729 17.1522 260.152 16.6249 258.85 16.6249C257.306 16.6249 256.525 17.719 256.525 19.6963C256.525 21.6736 257.362 22.6886 259.018 22.6886C260.152 22.6886 260.97 22.2404 262.068 21.0672L265.899 23.1895C263.853 25.3249 261.956 26.1686 258.832 26.1686Z" fill="#232229"/>
<path d="M279.421 25.9051V18.8132C279.421 17.1919 278.659 16.7701 277.412 16.7701C276.129 16.7701 275.367 17.1919 275.367 18.7737V25.9051H269.322V10.2714L275.367 8.55775V14.2523C276.482 13.6591 277.71 13.1582 279.793 13.1582C283.662 13.1582 285.503 14.9905 285.503 18.2728V25.9051H279.421Z" fill="#232229"/>
<path d="M0 2.125V11.6423H13.4289V30.6637H26.8392V11.6423H40.268V2.125H0Z" fill="#232229"/>
<path d="M53.6783 21.1465V11.6424L40.268 11.6423L40.268 30.6638H80.5175V21.1465H53.6783Z" fill="#232229"/>
<path d="M80.5175 2.125H53.6783L53.6783 11.6424L80.5175 11.6423V2.125Z" fill="#232229"/>
</svg>
