<svg width="138" height="34" viewBox="0 0 138 34" fill="none" xmlns="http://www.w3.org/2000/svg">
<path fill-rule="evenodd" clip-rule="evenodd" d="M84.0637 11.1675C81.866 11.1675 80.1261 11.4907 78.3862 12.2019C78.3862 8.64616 78.3862 5.34904 78.5693 4.25L67.8553 5.60764V6.25413L68.9542 6.38343C70.4194 6.57738 70.8772 7.15923 71.1519 8.51687C71.4267 11.2321 71.3351 25.5197 71.1519 27.9117C73.9907 28.3643 77.0126 28.6875 80.0345 28.6875C88.4592 28.6875 93.4957 25.0025 93.4957 19.184C93.5872 14.5293 89.4665 11.1675 84.0637 11.1675ZM80.4008 27.3945C79.7598 27.3945 78.9356 27.3945 78.4778 27.2652C78.2946 25.7136 78.203 19.1194 78.2946 13.3009C79.2103 13.107 79.8513 12.9777 80.6755 12.9777C84.1553 12.9777 86.0783 15.8869 86.0783 19.4426C86.0783 23.9681 83.6974 27.3945 80.4008 27.3945Z" fill="#232229"/>
<path fill-rule="evenodd" clip-rule="evenodd" d="M27.9297 4.70243H0V5.73683L1.55674 5.86612C3.66291 6.06007 4.39549 6.96517 4.76178 9.0986C5.21964 13.1069 5.0365 20.4123 4.76178 23.9033C4.48706 26.0368 3.66291 27.0065 1.55674 27.1358L0 27.3298V28.2348H17.9482V27.3298L16.0252 27.1358C13.919 27.0065 13.1865 26.0368 12.8202 23.9033C12.637 22.4164 12.5455 20.089 12.5455 17.1798L16.3915 17.3091C18.7724 17.3091 19.8713 18.6667 20.3291 20.5416H21.7943V12.525H20.3291C19.8713 14.3999 18.7724 15.7575 16.3915 15.7575L12.5455 15.8868C12.5455 12.0725 12.7286 8.51675 12.8202 6.38332H18.4061C22.71 6.38332 24.9078 8.25816 26.4645 11.6199L28.0212 11.2967L27.9297 4.70243Z" fill="#232229"/>
<path fill-rule="evenodd" clip-rule="evenodd" d="M36.9038 10.9736C44.8706 10.9736 48.8082 14.7879 48.8082 19.8306C48.8082 24.6146 44.4128 28.6875 36.4459 28.6875C28.4791 28.6875 24.5415 24.8732 24.5415 19.8306C24.5415 14.9819 29.0285 10.9736 36.9038 10.9736ZM36.4459 12.0726C32.9662 12.0726 32.0504 15.4344 32.0504 19.7659C32.0504 24.0328 33.6072 27.4592 36.8122 27.4592C40.4751 27.4592 41.3909 24.0974 41.3909 19.7659C41.3909 15.5637 39.8341 12.0726 36.4459 12.0726Z" fill="#232229"/>
<path fill-rule="evenodd" clip-rule="evenodd" d="M95.6019 19.8953C95.6019 15.3051 99.7226 10.909 107.781 10.909C114.466 10.909 117.579 14.4001 117.579 18.9902H102.836C102.653 23.1277 105.492 26.1663 111.261 26.1663C113.825 26.1663 115.107 25.7137 116.664 24.9379L117.305 25.5198C115.748 27.0714 112.268 28.6229 107.781 28.6229C100.73 28.6876 95.6019 25.0672 95.6019 19.8953ZM102.928 17.8265L110.345 17.6972C110.345 15.4344 109.887 12.0727 107.14 12.0727C104.484 12.0727 103.111 15.2405 102.928 17.8265Z" fill="#232229"/>
<path fill-rule="evenodd" clip-rule="evenodd" d="M136.535 11.8787C134.612 11.2968 132.139 10.9736 129.209 10.9736C123.348 10.9736 119.685 13.4303 119.685 16.3395C119.685 19.2487 122.341 20.4771 126.187 21.3822C130.125 22.4165 131.224 23.1923 131.224 24.4853C131.224 25.843 129.758 27.0713 127.286 27.0713C124.264 27.0713 122.066 25.843 120.326 22.4812L119.228 22.6751L119.411 27.5885C121.334 28.1704 124.814 28.6229 127.835 28.6229C134.062 28.6229 138 26.3602 138 22.9337C138 20.6064 136.26 19.2487 132.139 18.1497C127.744 16.9213 126.096 16.1455 126.096 14.6586C126.096 13.1717 127.561 12.2019 129.392 12.2019C132.231 12.2019 134.154 13.4303 135.619 16.4688L136.718 16.2748L136.535 11.8787Z" fill="#232229"/>
<path fill-rule="evenodd" clip-rule="evenodd" d="M69.4121 11.4262C66.7565 10.3272 61.9947 10.8444 59.4307 14.9173L59.6138 10.9737L48.9914 12.4606V13.1071L50.0903 13.2364C51.5554 13.3657 52.1964 13.8829 52.288 15.3698C52.5627 18.0851 52.4711 22.7399 52.288 25.1319C52.1048 26.4895 51.4638 27.136 50.0903 27.2653L48.9914 27.3946V28.2997H63.7346V27.3946L61.8115 27.2653C60.2548 27.136 59.7054 26.4895 59.6138 25.1319C59.3391 22.9985 59.3391 18.7316 59.4307 16.081C60.2548 15.3052 63.7346 14.594 66.848 16.081L69.4121 11.4262Z" fill="#232229"/>
</svg>
