<svg width="102" height="125" viewBox="0 0 102 125" fill="none" xmlns="http://www.w3.org/2000/svg">
<g clip-path="url(#clip0_4006_899)">
<path fill-rule="evenodd" clip-rule="evenodd" d="M97.0195 87.756C96.6481 88.1606 96.2767 89.3376 96.1653 90.4779C95.9796 92.2066 96.0539 92.5745 96.7595 93.2733C98.6906 95.186 102 93.6044 102 90.7721C102 87.9399 98.769 85.8393 97.0195 87.756Z" fill="black"/>
<path fill-rule="evenodd" clip-rule="evenodd" d="M75.9873 90.1102C74.799 90.6987 73.462 92.6849 73.1649 94.3074C72.8307 96.1097 73.9077 98.7254 75.3932 99.6081C79.8166 102.256 84.8673 97.5851 82.7133 92.7994C81.5249 90.0775 78.4755 88.8596 75.9873 90.1143V90.1102Z" fill="black"/>
<path fill-rule="evenodd" clip-rule="evenodd" d="M70.7841 119.81C69.6328 120.95 69.7814 123.235 71.0069 124.191C73.3094 125.993 76.7302 124.595 76.7302 121.837C76.7302 119.924 75.6903 119.078 73.3878 119.078C72.0137 119.078 71.3453 119.262 70.7882 119.814L70.7841 119.81Z" fill="black"/>
</g>
<g clip-path="url(#clip1_4006_899)">
<path fill-rule="evenodd" clip-rule="evenodd" d="M65.2083 0.360175C64.3535 0.861933 61.2409 6.26977 60.425 8.66277C60.0754 9.70489 59.5703 12.0207 59.3372 13.7618L58.9098 16.9654H56.5397C46.0451 16.9654 36.8672 27.1206 35.0023 40.7539C34.7692 42.4521 34.536 44.3862 34.4972 45.1196C34.3806 46.4319 34.3418 46.4705 32.0106 46.9336C22.7204 48.7863 14.0131 58.8686 11.0948 71.0695C9.57952 77.3651 9.15213 81.4563 9.11328 89.5702C9.11328 97.2167 9.50181 99.9957 10.6285 99.9957C11.0171 99.9957 11.1725 98.143 11.3668 92.1562C11.9495 72.9221 14.9412 63.1915 22.7204 55.352C25.9841 52.0713 30.0291 49.6354 33.1373 49.1337C34.4972 48.9407 34.5749 48.9793 34.5749 49.9442C34.5749 51.9898 35.8182 56.9731 36.9061 59.2503C38.8099 63.2301 42.1555 66.009 44.9918 66.009C47.8281 66.009 50.5132 62.4924 50.5132 58.6714C50.5132 53.4179 45.3026 47.7785 39.6258 46.8908C36.129 46.3118 36.401 46.582 36.6729 43.5714C37.6831 33.4548 43.0491 24.5303 50.2412 21.0566C52.6113 19.8987 56.3455 19.1268 57.8996 19.4742C59.0263 19.7057 59.1817 19.9373 59.648 22.3689C60.3085 25.5339 62.9893 29.1662 65.4025 30.054C67.0732 30.7101 67.9668 30.5557 68.977 29.5136C70.4145 28.0855 70.3368 25.3795 68.7439 23.0251C67.4617 21.0952 64.7766 18.9295 62.4454 17.9646C61.2409 17.5014 61.0078 17.2313 61.1632 16.4979C61.2798 15.9962 61.4741 14.6839 61.5906 13.5646C61.9014 10.8242 62.9116 8.19532 65.286 4.10406C66.335 2.25142 67.2286 0.553159 67.2286 0.355886C67.2286 -0.145872 66.063 -0.107275 65.2083 0.355886V0.360175ZM65.8299 23.6126C69.0158 27.3222 67.656 29.7538 64.1981 26.5074C63.1491 25.4652 61.4007 21.9872 61.4007 20.7907C61.4007 20.0574 64.4312 21.9872 65.8342 23.6083L65.8299 23.6126ZM40.0143 49.4467C44.2536 50.4888 48.1777 55.0089 48.1777 58.8686C48.1777 61.4546 46.4293 63.6975 44.4047 63.6975C42.8894 63.6975 40.4762 61.7291 38.9998 59.2546C37.9119 57.3633 36.5132 52.2643 36.5132 50.1029C36.5132 48.4818 36.2801 48.5204 40.01 49.4467H40.0143Z" fill="black"/>
<path fill-rule="evenodd" clip-rule="evenodd" d="M0.751257 73.4326C0.518139 74.7834 0.207316 78.4544 0.090757 81.658C-0.14236 87.6062 -0.0258018 88.4167 1.72258 94.4035C3.23784 99.5025 3.74293 98.1131 2.88817 91.0842C2.26652 85.8693 2.22767 84.6342 2.6939 79.1492C3.23784 72.5062 3.08243 71.0396 1.9557 71.0396C1.3729 71.0396 1.13979 71.5027 0.751257 73.4326Z" fill="black"/>
</g>
<defs>
<clipPath id="clip0_4006_899">
<rect width="32" height="38" fill="white" transform="translate(70 87)"/>
</clipPath>
<clipPath id="clip1_4006_899">
<rect width="70" height="100" fill="white"/>
</clipPath>
</defs>
</svg>
