<svg width="183" height="69" viewBox="0 0 183 69" fill="none" xmlns="http://www.w3.org/2000/svg">
<g clip-path="url(#clip0_2001_3706)">
<path d="M171.7 41.84C171.43 41.84 171.21 42.31 171.21 42.88C171.21 43.45 171.43 43.93 171.7 43.93C171.97 43.93 172.18 43.46 172.18 42.88C172.18 42.3 171.96 41.84 171.7 41.84ZM171.7 41.84C171.43 41.84 171.21 42.31 171.21 42.88C171.21 43.45 171.43 43.93 171.7 43.93C171.97 43.93 172.18 43.46 172.18 42.88C172.18 42.3 171.96 41.84 171.7 41.84ZM171.7 41.84C171.43 41.84 171.21 42.31 171.21 42.88C171.21 43.45 171.43 43.93 171.7 43.93C171.97 43.93 172.18 43.46 172.18 42.88C172.18 42.3 171.96 41.84 171.7 41.84ZM171.7 41.84C171.43 41.84 171.21 42.31 171.21 42.88C171.21 43.45 171.43 43.93 171.7 43.93C171.97 43.93 172.18 43.46 172.18 42.88C172.18 42.3 171.96 41.84 171.7 41.84ZM176.5 21.23C175.4 19.9 173.86 18.74 172.11 17.74C171.58 17.44 171.04 17.15 170.49 16.88C167.79 15.57 164.78 14.61 162.14 14.01C161.84 13.94 161.54 13.88 161.25 13.82C161 13.77 160.74 13.72 160.47 13.67C157.83 13.21 154.8 13.03 152.32 12.98C149.5 12.91 147.39 13 147.39 13C146.05 13 144.22 13.22 142.26 13.82C138.36 15.01 133.95 17.68 131.95 23.01C129.46 29.65 131.17 39.34 131.83 42.45C131.95 43.06 132.43 43.52 133.04 43.63L142.92 45.39C142.92 45.39 143.49 48.43 146.22 48.43C148.46 48.43 149.12 46.84 149.28 46.26C149.32 46.14 149.42 46.06 149.55 46.06H166.47C166.47 46.06 168 49 170.3 49C172.6 49 174.51 47.09 174.27 44.07L178.92 43.13C178.92 43.13 181.15 26.79 176.5 21.23ZM153.75 36.36C153.1 36.36 152.57 35.58 152.57 34.62C152.57 33.66 153.1 32.87 153.75 32.87C154.4 32.87 154.92 33.65 154.92 34.62C154.92 35.59 154.39 36.36 153.75 36.36ZM136.96 35.02C136.96 34.06 137.48 33.27 138.13 33.27C138.78 33.27 139.3 34.06 139.3 35.02C139.3 35.98 138.78 36.77 138.13 36.77C137.48 36.77 136.96 35.99 136.96 35.02ZM160.82 28.61C160.82 28.61 154.17 27.94 147.65 27.99C141.14 28.03 132.72 29.23 132.72 29.23C132.86 20.23 137.7 19.22 137.7 19.22L158.38 18.94C161.3 21.24 160.82 28.61 160.82 28.61ZM171.21 47.12C170.19 47.12 169.37 45.33 169.37 43.13C169.37 42.78 169.39 42.44 169.43 42.11H170.68C170.68 42.11 170.71 39.85 171.69 39.28C172.48 39.74 173.06 41.29 173.06 43.13C173.06 45.33 172.23 47.12 171.21 47.12ZM177.53 32.87L162.97 28.66C163.12 23.05 161.25 19.66 161.25 19.66C166.77 19.85 175.66 23.58 175.66 23.58C178.05 26.65 177.53 32.87 177.53 32.87ZM171.7 41.84C171.43 41.84 171.21 42.31 171.21 42.88C171.21 43.45 171.43 43.93 171.7 43.93C171.97 43.93 172.18 43.46 172.18 42.88C172.18 42.3 171.96 41.84 171.7 41.84ZM171.7 41.84C171.43 41.84 171.21 42.31 171.21 42.88C171.21 43.45 171.43 43.93 171.7 43.93C171.97 43.93 172.18 43.46 172.18 42.88C172.18 42.3 171.96 41.84 171.7 41.84ZM171.7 41.84C171.43 41.84 171.21 42.31 171.21 42.88C171.21 43.45 171.43 43.93 171.7 43.93C171.97 43.93 172.18 43.46 172.18 42.88C172.18 42.3 171.96 41.84 171.7 41.84ZM171.7 41.84C171.43 41.84 171.21 42.31 171.21 42.88C171.21 43.45 171.43 43.93 171.7 43.93C171.97 43.93 172.18 43.46 172.18 42.88C172.18 42.3 171.96 41.84 171.7 41.84ZM171.7 41.84C171.43 41.84 171.21 42.31 171.21 42.88C171.21 43.45 171.43 43.93 171.7 43.93C171.97 43.93 172.18 43.46 172.18 42.88C172.18 42.3 171.96 41.84 171.7 41.84Z" fill="white"/>
<path d="M156.83 68.8101C170.085 68.8101 180.83 67.2431 180.83 65.3101C180.83 63.3771 170.085 61.8101 156.83 61.8101C143.575 61.8101 132.83 63.3771 132.83 65.3101C132.83 67.2431 143.575 68.8101 156.83 68.8101Z" fill="white"/>
<path d="M177.52 35.0399L177.25 41.0999C177.25 41.2099 177.16 41.2899 177.05 41.2899H174.82C174.73 41.2899 174.64 41.2299 174.63 41.1299C174.49 40.3899 173.76 37.2599 171.7 37.2199C169.68 37.1899 168.79 39.1999 168.59 39.7699C168.56 39.8599 168.47 39.8999 168.38 39.8899L162.55 39.1599C162.44 39.1499 162.37 39.0499 162.38 38.9499L162.93 31.3699C162.93 31.2499 163.06 31.1599 163.18 31.1899L177.39 34.8399C177.48 34.8599 177.54 34.9499 177.54 35.0399H177.52Z" fill="white"/>
<path d="M173.67 21.2C169.82 19.51 160.16 17.57 160.05 17.55L157.47 14.92C157.47 14.92 157.47 14.88 157.49 14.89C170.06 16.97 173.29 20.64 173.7 21.19C173.71 21.21 173.7 21.23 173.68 21.22L173.67 21.2Z" fill="white"/>
<path d="M156.03 16.78L138.84 17.2C138.77 17.2 138.74 17.12 138.8 17.08C139.64 16.55 143.21 14.46 148.18 14.28C153.19 14.11 155.58 16.16 156.08 16.66C156.12 16.7 156.09 16.77 156.03 16.77V16.78Z" fill="white"/>
<path d="M172.18 42.8801C172.18 43.4601 171.96 43.9301 171.7 43.9301C171.44 43.9301 171.21 43.4601 171.21 42.8801C171.21 42.3001 171.43 41.8401 171.7 41.8401C171.97 41.8401 172.18 42.3101 172.18 42.8801Z" fill="white"/>
<path d="M160.56 30.92C160.55 30.72 160.39 30.56 160.19 30.54C158.46 30.42 150.52 29.9 144.16 30.28C138.1 30.64 133.85 31.42 132.67 31.65C132.48 31.69 132.34 31.86 132.35 32.06C132.37 32.92 132.44 35.3 132.72 37.18C133.02 39.24 133.38 40.44 133.56 40.97C133.62 41.16 133.81 41.27 134 41.23C135.86 40.89 145.21 39.23 151.1 39.19C156.21 39.15 158.71 39.17 159.56 39.18C159.76 39.19 159.93 39.04 159.96 38.84C160.09 37.84 160.46 34.98 160.53 33.3C160.59 32.05 160.58 31.31 160.56 30.92ZM138.13 36.77C137.48 36.77 136.96 35.99 136.96 35.02C136.96 34.05 137.48 33.27 138.13 33.27C138.78 33.27 139.3 34.06 139.3 35.02C139.3 35.98 138.78 36.77 138.13 36.77ZM153.75 36.36C153.1 36.36 152.57 35.58 152.57 34.62C152.57 33.66 153.1 32.87 153.75 32.87C154.4 32.87 154.92 33.65 154.92 34.62C154.92 35.59 154.39 36.36 153.75 36.36Z" fill="white"/>
<path d="M141.71 13.85C141.71 13.85 139.52 13.33 140.86 10.54C140.86 10.54 135.83 9.78003 140.76 2.70003C140.82 2.62003 140.98 2.59003 141 2.69003C141.16 3.53003 143.12 6.77003 146.17 7.44003C149.81 8.24003 150.64 9.21003 152.57 13.52L147.03 13.47L141.71 13.85Z" fill="white"/>
<path d="M182.09 4.23C182.1 5.91 181.08 7.26 180.55 7.95C180.47 8.05 180.69 8.37 180.55 9.31C180.46 9.92 180.01 10.89 179.76 11.46C179.27 12.62 178.25 13.83 177.2 14.4C176.42 14.87 175.58 15.06 174.75 15.17C174.74 15.44 174.73 15.65 174.63 15.87C174.28 16.63 173.43 17.13 172.93 17.39C172.44 17.66 171.93 17.8 171.44 17.91C170.94 18.01 170.46 18.05 169.97 18.08L169.83 17.09C170.25 16.97 170.66 16.83 171.04 16.66C171.41 16.48 171.77 16.28 172.03 16.03C172.3 15.79 172.49 15.52 172.58 15.26C172.58 15.23 172.56 15.14 172.56 15.14C170.6 15.14 170.25 14.35 170.25 14.35H170.32C170.32 14.35 171.54 14.2 172.54 14.1C174.33 13.91 175.76 13.22 176.41 12.6C177.09 12.01 177.5 11.26 177.66 10.45C177.69 10.32 177.71 10.18 177.71 10.05C176.64 10.57 175.49 10.91 174.34 11.05C172.83 11.23 171.1 11.05 169.69 10.55L169.81 10.53C171.25 10.4 172.72 10.03 174.01 9.59C175.31 9.15 176.49 8.53 177.59 7.81C178.13 7.44 178.68 7.03 179.06 6.66C179.49 6.28 180.35 4.85 180.15 3.6C179.87 4.3 177.67 5.82 176.62 6.27C175.41 6.84 172.74 7.55 170.03 7.72C168.05 7.84 166.11 8.75 164.94 9.72C163.46 10.95 162.66 12.53 162 14.41L160.37 14.17C160.78 11.96 161.77 9.87 163.47 8.24C164.33 7.45 166.11 6.25 170.38 5.75C174.04 5.32 176.56 4.17 178.05 2.95C178.8 2.34 180.74 0 180.74 0C180.74 0 182.1 1.12 182.1 4.23H182.09Z" fill="white"/>
<path d="M8.94 50.9699H10.51C10.95 50.9699 11.29 50.6199 11.29 50.1799V48.5099C11.29 45.4199 8.74 42.8599 5.64 42.8599C2.54 42.8599 0 45.4199 0 48.5099C0 49.5565 0.39 50.6032 1.17 51.6499L8 60.6899C8.1 60.8232 8.15 61.1032 8.15 61.5299C8.15 62.8999 7.02 64.0299 5.64 64.0299C4.26 64.0299 3.14 62.8999 3.14 61.5299V59.8599C3.14 59.4199 2.8 59.0699 2.35 59.0699H0.78C0.34 59.0699 0 59.4199 0 59.8599V61.5299C0 64.6199 2.55 67.1799 5.64 67.1799C8.73 67.1799 11.29 64.6199 11.29 61.5299C11.29 60.4832 10.9 59.4332 10.12 58.3799L3.29 49.3499C3.19 49.2165 3.14 48.9365 3.14 48.5099C3.14 47.1399 4.27 46.0099 5.64 46.0099C7.01 46.0099 8.15 47.1399 8.15 48.5099V50.1799C8.15 50.6199 8.49 50.9699 8.94 50.9699Z" fill="white"/>
<path d="M23.8299 50.9699H25.3999C25.8399 50.9699 26.1899 50.6199 26.1899 50.1799V48.5099C26.1899 45.4199 23.6299 42.8599 20.5399 42.8599C17.4499 42.8599 14.8899 45.4199 14.8899 48.5099V61.5299C14.8899 64.6199 17.3899 67.1799 20.5399 67.1799C23.6899 67.1799 26.1899 64.6199 26.1899 61.5299V59.7099C26.1899 59.2699 25.8399 58.9199 25.3999 58.9199H23.8299C23.3899 58.9199 23.0399 59.2699 23.0399 59.7099V61.5299C23.0399 62.8999 21.9099 64.0299 20.5399 64.0299C19.1699 64.0299 18.0299 62.8999 18.0299 61.5299V48.5099C18.0299 47.1399 19.1599 46.0099 20.5399 46.0099C21.9199 46.0099 23.0399 47.1399 23.0399 48.5099V50.1799C23.0399 50.6199 23.3899 50.9699 23.8299 50.9699Z" fill="white"/>
<path d="M40.29 42.8599H38.72C38.33 42.8599 37.94 43.1999 37.94 43.6499V53.4199H32.92V43.6499C32.92 43.1999 32.58 42.8599 32.14 42.8599H30.57C30.12 42.8599 29.78 43.1999 29.78 43.6499V66.3899C29.78 66.8299 30.12 67.1799 30.57 67.1799H32.14C32.58 67.1799 32.92 66.8299 32.92 66.3899V56.5699H37.94V66.3899C37.94 66.8299 38.33 67.1799 38.72 67.1799H40.29C40.74 67.1799 41.08 66.8299 41.08 66.3899V43.6499C41.08 43.1999 40.74 42.8599 40.29 42.8599Z" fill="white"/>
<path d="M63.8799 42.9099H62.3099C61.8699 42.9099 61.5299 43.2499 61.5299 43.6999V58.9199C61.5299 59.2199 61.4799 59.4699 61.3799 59.7599L59.0199 63.9399L56.6099 59.7599C56.5599 59.4699 56.5099 59.2199 56.5099 58.9199V43.6999C56.5099 43.2499 56.1199 42.9099 55.7299 42.9099H54.1499C53.7099 42.9099 53.3699 43.2499 53.3699 43.6999V58.9199C53.3699 59.2199 53.3199 59.4699 53.2199 59.7599L50.8099 63.9399L48.4599 59.7599C48.3599 59.4699 48.3099 59.2199 48.3099 58.9199V43.6999C48.3099 43.2499 47.9599 42.9099 47.5199 42.9099H45.9499C45.5099 42.9099 45.1599 43.2499 45.1599 43.6999V58.9199C45.1599 60.0999 45.5099 61.1799 46.0999 62.0699L48.7999 66.7799C48.8999 66.9799 49.1899 67.1799 49.4399 67.1799H52.1899C52.4799 67.1799 52.7299 66.9799 52.8799 66.7799L54.9399 63.1499L56.9499 66.7799C57.0999 66.9799 57.3499 67.1799 57.6399 67.1799H60.3999C60.6899 67.1799 60.9399 66.9799 61.0799 66.7799L63.7399 62.0699C64.3299 61.1799 64.6699 60.0999 64.6699 58.9199V43.6999C64.6699 43.2499 64.3299 42.9099 63.8799 42.9099Z" fill="white"/>
<path d="M74.46 42.9099C71.31 42.9099 68.76 45.4599 68.76 48.5599V66.3899C68.76 66.8299 69.1 67.1799 69.54 67.1799H71.12C71.56 67.1799 71.9 66.8299 71.9 66.3899V56.6199H76.96V66.3899C76.96 66.8299 77.31 67.1799 77.75 67.1799H79.32C79.76 67.1799 80.11 66.8299 80.11 66.3899V48.5599C80.11 45.4599 77.55 42.9099 74.46 42.9099ZM76.96 53.4699H71.9V48.5599C71.9 47.1799 73.03 46.0499 74.46 46.0499C75.89 46.0499 76.96 47.1799 76.96 48.5599V53.4699Z" fill="white"/>
<path d="M91.5599 64.0299H87.3399V43.6499C87.3399 43.1999 86.9399 42.8599 86.5499 42.8599H84.9799C84.5399 42.8599 84.1899 43.1999 84.1899 43.6499V65.6099C84.1899 66.4399 84.8799 67.1799 85.7599 67.1799H91.5599C91.9999 67.1799 92.3499 66.7799 92.3499 66.3899V64.8199C92.3499 64.3799 91.9999 64.0299 91.5599 64.0299Z" fill="white"/>
<path d="M107.29 48.5599C107.29 45.4199 104.73 42.8599 101.64 42.8599H97.5099C96.6299 42.8599 95.9399 43.5499 95.9399 44.4299V65.6099C95.9399 66.4399 96.6299 67.1799 97.5099 67.1799H101.64C104.73 67.1799 107.29 64.6199 107.29 61.4799V59.1199C107.29 57.4999 106.65 56.0299 105.52 54.9999C106.65 53.9599 107.29 52.5399 107.29 50.9199V48.5599ZM104.14 61.4799C104.14 62.8599 103.01 63.9799 101.64 63.9799H99.0799V56.5699H101.64C103.01 56.5699 104.14 57.6999 104.14 59.1199V61.4799ZM104.14 50.9199C104.14 52.2899 103.01 53.4199 101.64 53.4199H99.0799V46.0099H101.64C103.01 46.0099 104.14 47.1399 104.14 48.5599V50.9199Z" fill="white"/>
<path d="M118.79 46.0099C119.23 46.0099 119.58 45.6599 119.58 45.2199V43.6499C119.58 43.1999 119.23 42.8599 118.79 42.8599H112.95C112.06 42.8599 111.37 43.5499 111.37 44.4299V65.6099C111.37 66.4399 112.06 67.1799 112.95 67.1799H118.79C119.23 67.1799 119.58 66.8299 119.58 66.3899V64.8199C119.58 64.3799 119.23 64.0299 118.79 64.0299H114.52V56.5699H118.79C119.23 56.5699 119.58 56.2199 119.58 55.7799V54.2099C119.58 53.7699 119.23 53.4199 118.79 53.4199H114.52V46.0099H118.79Z" fill="white"/>
<path d="M11.62 19.56C11.62 16.34 9 13.72 5.83 13.72H1.61C0.7 13.72 0 14.43 0 15.33V37.02C0 37.88 0.7 38.63 1.61 38.63H5.83C9 38.63 11.62 36.02 11.62 32.8V30.38C11.62 28.72 10.97 27.21 9.81 26.15C10.97 25.1 11.62 23.64 11.62 21.98V19.56ZM8.4 32.8C8.4 34.21 7.24 35.36 5.83 35.36H3.22V27.76H5.83C7.24 27.76 8.4 28.92 8.4 30.38V32.8ZM8.4 21.98C8.4 23.39 7.24 24.54 5.83 24.54H3.22V16.94H5.83C7.24 16.94 8.4 18.1 8.4 19.56V21.98Z" fill="white"/>
<path d="M21.6501 13.72C18.4201 13.72 15.8101 16.34 15.8101 19.51V32.8C15.8101 36.02 18.4201 38.63 21.6501 38.63C24.8801 38.63 27.4301 36.02 27.4301 32.8V19.51C27.4301 16.34 24.8201 13.72 21.6501 13.72ZM24.2101 32.8C24.2101 34.26 23.0501 35.41 21.6501 35.41C20.1801 35.41 19.0301 34.26 19.0301 32.8V19.51C19.0301 18.1 20.1801 16.94 21.6501 16.94C23.1201 16.94 24.2101 18.1 24.2101 19.51V32.8Z" fill="white"/>
<path d="M42.1901 19.51C42.1901 16.34 39.6201 13.72 36.4001 13.72H32.2201C31.3101 13.72 30.6101 14.43 30.6101 15.33V37.83C30.6101 38.23 30.9601 38.63 31.4101 38.63H33.0301C33.4301 38.63 33.8301 38.23 33.8301 37.83V27.76H36.4001C37.8101 27.76 38.9701 28.92 38.9701 30.33V37.83C38.9701 38.23 39.3201 38.63 39.7701 38.63H41.3801C41.8401 38.63 42.1901 38.23 42.1901 37.83V30.33C42.1901 28.67 41.5301 27.21 40.4201 26.15C41.5301 25.1 42.1901 23.59 42.1901 21.92V19.51ZM38.9701 21.92C38.9701 23.39 37.8101 24.54 36.4001 24.54H33.8301V16.94H36.4001C37.8101 16.94 38.9701 18.1 38.9701 19.51V21.92Z" fill="white"/>
<path d="M52.2101 13.72H47.9801C47.1301 13.72 46.3701 14.43 46.3701 15.33V37.02C46.3701 37.88 47.1301 38.63 47.9801 38.63H52.2101C55.4301 38.63 58.0001 36.02 58.0001 32.8V19.56C58.0001 16.34 55.4301 13.72 52.2101 13.72ZM54.7801 32.8C54.7801 34.21 53.6201 35.36 52.2101 35.36H49.5901V16.94H52.2101C53.6201 16.94 54.7801 18.1 54.7801 19.56V32.8Z" fill="white"/>
<path d="M70.8399 22.03H72.4499C72.8999 22.03 73.2499 21.67 73.2499 21.22V19.51C73.2499 16.34 70.6299 13.72 67.4599 13.72C64.2899 13.72 61.6799 16.34 61.6799 19.51C61.6799 20.5833 62.0833 21.6566 62.8899 22.73L69.8799 31.99C69.9799 32.1233 70.0299 32.41 70.0299 32.85C70.0299 34.26 68.8699 35.41 67.4599 35.41C66.0499 35.41 64.8999 34.26 64.8999 32.85V31.13C64.8999 30.68 64.5499 30.33 64.0899 30.33H62.4799C62.0299 30.33 61.6799 30.68 61.6799 31.13V32.85C61.6799 36.02 64.2999 38.63 67.4599 38.63C70.6199 38.63 73.2499 36.02 73.2499 32.85C73.2499 31.7766 72.8466 30.7 72.0399 29.62L65.0499 20.37C64.9499 20.23 64.8999 19.9433 64.8999 19.51C64.8999 18.1 66.0599 16.94 67.4599 16.94C68.8599 16.94 70.0299 18.1 70.0299 19.51V21.22C70.0299 21.67 70.3799 22.03 70.8399 22.03Z" fill="white"/>
<path d="M83.4799 13.72H75.7299C75.2699 13.72 74.9199 14.07 74.9199 14.53V16.14C74.9199 16.59 75.2699 16.94 75.7299 16.94H77.9899V37.83C77.9899 38.23 78.3499 38.63 78.7999 38.63H80.4099C80.8599 38.63 81.2199 38.23 81.2199 37.83V16.94H83.4799C83.9299 16.94 84.2799 16.59 84.2799 16.14V14.53C84.2799 14.07 83.9299 13.72 83.4799 13.72Z" fill="white"/>
<path d="M95.56 16.94C96.02 16.94 96.37 16.59 96.37 16.14V14.53C96.37 14.07 96.02 13.72 95.56 13.72H89.57C88.67 13.72 87.96 14.43 87.96 15.33V37.02C87.96 37.88 88.67 38.63 89.57 38.63H95.56C96.02 38.63 96.37 38.28 96.37 37.83V36.22C96.37 35.77 96.02 35.41 95.56 35.41H91.18V27.76H95.56C96.02 27.76 96.37 27.41 96.37 26.96V25.35C96.37 24.89 96.02 24.54 95.56 24.54H91.18V16.94H95.56Z" fill="white"/>
<path d="M102.97 13.72H101.36C100.9 13.72 100.55 14.07 100.55 14.53V37.83C100.55 38.28 100.9 38.63 101.36 38.63H102.97C103.42 38.63 103.77 38.28 103.77 37.83V14.53C103.77 14.07 103.37 13.72 102.97 13.72Z" fill="white"/>
<path d="M113.79 13.72C110.57 13.72 107.95 16.34 107.95 19.51V37.83C107.95 38.23 108.3 38.63 108.76 38.63H110.37C110.82 38.63 111.17 38.23 111.17 37.83V19.51C111.17 18.1 112.33 16.94 113.79 16.94C115.25 16.94 116.36 18.1 116.36 19.51V37.83C116.36 38.23 116.71 38.63 117.16 38.63H118.77C119.23 38.63 119.58 38.23 119.58 37.83V19.51C119.58 16.34 116.96 13.72 113.79 13.72Z" fill="white"/>
</g>
<defs>
<clipPath id="clip0_2001_3706">
<rect width="182.09" height="68.81" fill="white"/>
</clipPath>
</defs>
</svg>
