<svg width="57" height="41" viewBox="0 0 57 41" fill="none" xmlns="http://www.w3.org/2000/svg">
<g clip-path="url(#clip0_2001_3602)">
<path fill-rule="evenodd" clip-rule="evenodd" d="M41.1052 0.597774C38.4423 1.93245 38.0115 6.76522 39.6954 15.4843C40.2436 18.3499 40.8702 22.8686 41.0268 25.4595C41.2226 28.0896 41.4576 30.41 41.6142 30.6848C41.7709 30.9203 42.3974 31.1166 42.9849 31.1166C43.9639 31.1166 44.4729 30.5278 47.2968 26.2838C49.059 23.6537 51.4522 20.2342 52.6661 18.7425C56.5865 13.7134 57.7613 9.70937 55.9165 7.38894C55.2899 6.60384 54.7808 6.36831 53.5668 6.36831C51.7263 6.36831 50.7473 6.80011 49.059 8.40958L47.8451 9.54799L47.571 6.91788C47.0227 1.69256 44.2423 -1.05531 41.1052 0.593412V0.597774Z" fill="black"/>
<path fill-rule="evenodd" clip-rule="evenodd" d="M10.8952 20.7881C9.79873 22.0442 8.58476 24.321 7.60575 26.9555C7.40995 27.5836 7.21415 27.4658 6.19598 26.0526C5.53026 25.1498 4.39461 24.1291 3.6114 23.7758C2.35827 23.1477 2.12331 23.1477 1.18346 23.6973C-1.5186 25.189 0.556899 30.9639 6.08285 37.2884C8.27583 39.84 10.199 41.1005 11.3347 40.7428C12.1571 40.4681 13.8409 36.7737 14.82 32.8482C15.6815 29.5115 16.2689 23.187 15.8381 21.5732C15.2116 18.9431 12.8228 18.5505 10.8996 20.7881H10.8952Z" fill="black"/>
</g>
<defs>
<clipPath id="clip0_2001_3602">
<rect width="57" height="41" fill="white"/>
</clipPath>
</defs>
</svg>
