<svg width="26" height="25" viewBox="0 0 26 25" fill="none" xmlns="http://www.w3.org/2000/svg">
<path d="M14.3125 0.84375L17.3594 7.07812L24.0625 8.0625C24.625 8.15625 25.0938 8.53125 25.2812 9.09375C25.4688 9.60938 25.3281 10.2188 24.9062 10.5938L20.0312 15.4219L21.2031 22.2656C21.2969 22.8281 21.0625 23.3906 20.5938 23.7188C20.125 24.0938 19.5156 24.0938 19 23.8594L13 20.625L6.95312 23.8594C6.48438 24.0938 5.875 24.0938 5.40625 23.7188C4.9375 23.3906 4.70312 22.8281 4.79688 22.2656L5.92188 15.4219L1.04688 10.5938C0.671875 10.2188 0.53125 9.60938 0.671875 9.09375C0.859375 8.53125 1.32812 8.15625 1.89062 8.0625L8.64062 7.07812L11.6406 0.84375C11.875 0.328125 12.3906 0 13 0C13.5625 0 14.0781 0.328125 14.3125 0.84375Z" fill="#8BCDA6"/>
</svg>
