<svg width="188" height="13" viewBox="0 0 188 13" fill="none" xmlns="http://www.w3.org/2000/svg">
<g clip-path="url(#clip0_4001_725)">
<path fill-rule="evenodd" clip-rule="evenodd" d="M187.146 1.14602C187.146 1.41451 187.011 1.95149 186.81 2.2871C186.575 2.75696 186.642 2.92476 187.146 3.05901C188.085 3.29394 188.018 4.70351 186.978 5.91171C186.005 7.08636 181.84 9.30513 178.686 10.312C173.079 12.1578 170.663 12.4934 161.965 12.6277C157.431 12.6948 150.247 12.5941 146.015 12.3928C121.103 11.2181 88.0326 10.3455 66.1065 10.3455C51.335 10.312 34.1774 9.87567 32.6003 9.50649C31.2246 9.13732 31.795 8.76815 34.3116 8.36541C36.6269 8.0298 37.5366 7.96268 51.8383 7.12365C64.1939 6.41886 96.5592 5.98256 136.348 5.98256C173.683 5.98256 173.213 5.98256 179.122 4.17026C180.666 3.7004 182.918 2.69357 184.126 1.95522C186.471 0.508357 187.146 0.30699 187.146 1.14602Z" fill="black"/>
<path fill-rule="evenodd" clip-rule="evenodd" d="M21.5198 7.62701C23.0633 8.02974 23.7344 8.63384 23.2646 9.20439C22.6942 9.90917 0.801638 9.80849 0.801638 9.13726C0.801638 8.29823 2.14382 8.09686 9.19402 7.86194C12.9894 7.76125 17.0495 7.59345 18.2575 7.49276C19.4655 7.42564 20.9419 7.49276 21.516 7.62701H21.5198Z" fill="black"/>
</g>
<defs>
<clipPath id="clip0_4001_725">
<rect width="187" height="12" fill="white" transform="matrix(-1 0 0 1 187.805 0.650024)"/>
</clipPath>
</defs>
</svg>
