<svg width="239" height="17" viewBox="0 0 239 17" fill="none" xmlns="http://www.w3.org/2000/svg">
<path fill-rule="evenodd" clip-rule="evenodd" d="M3.38776 16.0993C0.190416 15.3069 0.190416 14.5144 3.34272 13.8981C6.90033 13.1937 35.8765 11.4768 68.0951 10.1121C76.8816 9.71591 84.4971 9.36373 84.9925 9.3197C85.4879 9.23166 79.2233 9.05556 71.0223 8.87947C62.8663 8.70338 46.6444 8.35119 34.9759 8.08705C15.6467 7.64682 6.3199 7.73487 1.76657 8.39521C-2.33143 9.01154 1.36127 6.50221 6.13977 5.44566C9.92254 4.56519 47.6402 4.74129 81.3899 5.75382C95.7654 6.15003 115.14 6.50221 124.421 6.54624C142.309 6.54624 149.114 6.15003 201.698 2.00695C221.117 0.466141 231.665 -0.0621376 231.665 0.554188C231.665 0.818328 231.125 1.12649 230.449 1.25856C226.211 2.13902 201.748 4.29616 175.384 6.19405C168.309 6.72233 164.886 7.11854 165.922 7.29463C166.732 7.47073 176.87 7.73487 188.408 7.86694C212.921 8.1751 238.29 9.14361 238.965 9.80396C239.911 10.7284 223.689 10.8605 172.186 10.3763L119.693 9.892L102.345 10.9926C92.7932 11.6089 75.0853 12.7095 62.9163 13.4139C50.7975 14.1623 36.3769 15.0427 30.9229 15.3949C17.8083 16.2314 5.10401 16.5395 3.38776 16.0993Z" fill="#DCDCDC"/>
</svg>
