<svg width="82" height="56" viewBox="0 0 82 56" fill="none" xmlns="http://www.w3.org/2000/svg">
<g clip-path="url(#clip0_4001_732)">
<path d="M79.6356 13.7072C72.7309 15.6091 65.5923 16.6399 58.4561 16.8625C54.8941 16.9734 51.3253 16.8632 47.7786 16.5424C44.0675 16.2066 40.3992 15.5815 36.7234 14.9912C29.9191 13.8981 22.9197 13.0625 16.163 15.0036C10.7163 16.5681 5.39879 20.1123 3.25413 25.6562C1.45405 30.3093 1.63978 36.5368 5.34713 40.1834C5.80433 40.6329 6.33002 40.9975 6.87059 41.3357C7.54033 41.7548 8.13095 40.7139 7.6083 40.2077C4.11762 36.8279 3.2586 31.7174 4.77497 27.1206C6.52553 21.8138 11.4027 18.4999 16.4742 16.9733C22.8298 15.0603 29.4976 15.8654 35.9112 16.8897C39.5261 17.4674 43.1313 18.1018 46.7767 18.4604C50.2173 18.7985 53.6794 18.949 57.1376 18.9062C63.0787 18.8348 68.9822 18.1875 74.8018 17.0111C68.4461 20.7765 61.0954 22.7352 53.7469 22.605C51.187 22.5596 48.6368 22.2276 46.1431 21.6592C44.7555 21.3423 44.3401 23.5548 45.7246 23.8721C52.0484 25.3191 58.7049 25.153 64.9981 23.5126C64.3858 23.7578 63.7802 24.0406 63.1758 24.2752C62.1625 24.6684 61.1346 25.0236 60.0956 25.3384C58.0257 25.9664 55.911 26.4286 53.7778 26.7583C49.5482 27.4116 45.2302 27.5015 40.9963 26.9217C39.7995 26.7579 38.6091 26.5439 37.4295 26.2785C36.2223 26.0068 35.0399 25.5936 33.819 25.4001C32.8305 25.2434 32.3084 26.6754 33.2472 27.1312C34.2975 27.6414 35.4555 27.8957 36.5887 28.1554C37.6423 28.397 38.7055 28.598 39.7754 28.758C41.9989 29.0918 44.2522 29.2517 46.5013 29.2505C48.1687 29.2491 49.8322 29.1483 51.4847 28.9485C48.1169 30.287 44.6275 31.175 41.0072 31.4111C39.1088 31.5351 37.2083 31.4711 35.3256 31.2089C34.3915 31.0786 33.4632 30.9021 32.5466 30.6793C31.5656 30.4413 30.6236 30.0857 29.6206 29.9747C28.6156 29.8633 28.2122 31.1332 29.0645 31.6594C30.3924 32.4803 32.1234 32.7391 33.6468 32.9868C35.2209 33.2431 36.8192 33.3669 38.4155 33.3753C39.1173 33.379 39.82 33.3566 40.5213 33.3107C37.9708 34.581 35.4033 35.732 32.568 36.1589C29.5921 36.6075 26.592 36.4778 23.6985 35.6483C23.0088 35.4503 22.3345 35.2068 21.6734 34.9255C20.9693 34.6249 19.7037 34.0397 19.3499 35.1627C19.0201 36.2106 20.1422 36.6496 20.8891 36.9432C21.6498 37.2423 22.43 37.5008 23.2197 37.7146C23.2545 37.7242 23.2897 37.7319 23.3245 37.7415C22.2161 38.2136 20.9322 38.1069 19.7597 37.8559C18.0385 37.4881 16.3754 36.8701 14.5861 36.9613C13.0606 37.0388 11.6089 37.7202 10.7121 39.0148C9.80711 40.3209 9.48374 42.0466 10.6483 43.2763C11.3319 43.9985 12.4975 43.0774 12.1864 42.2058C11.8438 41.2446 11.9997 40.4099 12.8007 39.6689C13.8308 38.7162 15.3408 38.8303 16.612 39.0304C19.3388 39.4593 22.5454 40.5951 24.9847 38.6151C25.146 38.4843 25.2374 38.3251 25.2766 38.1601C27.5896 38.543 29.99 38.5533 32.2874 38.1609C35.6257 37.5902 39.1207 36.3432 41.5998 33.9069C41.7954 33.715 41.7531 33.4206 41.6018 33.2216C43.7208 33.0032 45.8175 32.5476 47.8223 31.8135C49.4955 31.2012 51.1394 30.4502 52.6477 29.4851C52.9122 29.3163 52.8892 28.9822 52.7257 28.7798C55.0867 28.4226 57.4181 27.8662 59.6956 27.1081C60.9077 26.705 62.1033 26.2474 63.2773 25.7374C64.4027 25.2483 65.6724 24.7443 66.6317 23.9566C66.9842 23.6673 66.8283 23.1891 66.4713 23.0994C69.0035 22.339 71.4675 21.3378 73.8156 20.1018C76.2122 18.8398 78.4781 17.3322 80.5763 15.6023C81.5186 14.8256 80.814 13.3825 79.6346 13.707L79.6356 13.7072Z" fill="#171714"/>
</g>
<defs>
<clipPath id="clip0_4001_732">
<rect width="74.6606" height="42.1613" fill="white" transform="translate(7.83398) rotate(10.7086)"/>
</clipPath>
</defs>
</svg>
